<svg xmlns="http://www.w3.org/2000/svg" xmlns:xlink="http://www.w3.org/1999/xlink" width="400px" height="400px" viewBox="0.000 0.000 0.500 0.750"><path d="M0.125 0.000L0.375 0.000L0.375 0.125L0.500 0.250L0.500 0.750L0.000 0.750L0.000 0.250L0.125 0.125Z" fill="silver" stroke="gray" stroke-width="0.005"/><g fill="none" stroke="purple" stroke-width="0.002"><path d="M0.000 0.250L0.000 0.750"/><path d="M0.125 0.000L0.125 0.125"/><path d="M0.250 0.000L0.250 0.750"/><path d="M0.375 0.000L0.375 0.125"/><path d="M0.500 0.250L0.500 0.750"/><path d="M0.250 0.000L0.500 0.250"/><path d="M0.250 0.000L0.000 0.250"/><path d="M0.125 0.125L0.250 0.250"/><path d="M0.125 0.000L0.375 0.000"/><path d="M0.375 0.125L0.250 0.250"/><path d="M0.125 0.125L0.375 0.125"/><path d="M0.000 0.250L0.500 0.250"/><path d="M0.000 0.750L0.500 0.750"/></g></svg>