<svg xmlns="http://www.w3.org/2000/svg" xmlns:xlink="http://www.w3.org/1999/xlink" width="300px" height="300px" viewBox="0.000 0.000 1.000 1.207"><rect x="0" y="0" width="1" height="1" fill="none" stroke="blue" stroke-width="0.005"/><path d="M 0.599 0.664 L 0.875 1.043 L 0.637 0.827 L 0.647 0.870 L 0.518 1.206 L 0.517 1.207 L 0.517 1.206 L 0.371 0.877 L 0.379 0.834 L 0.252 0.961 L 0.217 0.961 L 0.152 0.861 L 0.231 0.940 L 0.409 0.669 L 0.505 0.707 Z" fill="silver" stroke="gray" stroke-width="0.005"/><path d="M 0.599 0.664 L 0.647 0.870" fill="none" stroke="purple" stroke-width="0.002"/><path d="M 0.599 0.664 L 0.875 1.043" fill="none" stroke="purple" stroke-width="0.002"/><path d="M 0.513 0.704 L 0.515 0.748" fill="none" stroke="purple" stroke-width="0.002"/><path d="M 0.505 0.707 L 0.518 1.206" fill="none" stroke="purple" stroke-width="0.002"/><path d="M 0.505 0.707 L 0.510 0.914" fill="none" stroke="purple" stroke-width="0.002"/><path d="M 0.505 0.707 L 0.517 1.206" fill="none" stroke="purple" stroke-width="0.002"/><path d="M 0.497 0.704 L 0.497 0.749" fill="none" stroke="purple" stroke-width="0.002"/><path d="M 0.371 0.877 L 0.517 1.206" fill="none" stroke="purple" stroke-width="0.002"/><path d="M 0.409 0.669 L 0.371 0.877" fill="none" stroke="purple" stroke-width="0.002"/><path d="M 0.513 0.704 L 0.875 1.043" fill="none" stroke="purple" stroke-width="0.002"/><path d="M 0.505 0.707 L 0.875 1.043" fill="none" stroke="purple" stroke-width="0.002"/><path d="M 0.505 0.707 L 0.875 1.043" fill="none" stroke="purple" stroke-width="0.002"/><path d="M 0.515 0.748 L 0.647 0.870" fill="none" stroke="purple" stroke-width="0.002"/><path d="M 0.152 0.861 L 0.217 0.961" fill="none" stroke="purple" stroke-width="0.002"/><path d="M 0.386 0.796 L 0.510 0.914" fill="none" stroke="purple" stroke-width="0.002"/><path d="M 0.647 0.870 L 0.518 1.206" fill="none" stroke="purple" stroke-width="0.002"/><path d="M 0.152 0.861 L 0.248 0.961" fill="none" stroke="purple" stroke-width="0.002"/><path d="M 0.152 0.861 L 0.251 0.961" fill="none" stroke="purple" stroke-width="0.002"/><path d="M 0.152 0.861 L 0.252 0.961" fill="none" stroke="purple" stroke-width="0.002"/><path d="M 0.517 1.206 L 0.517 1.207" fill="none" stroke="purple" stroke-width="0.002"/><path d="M 0.409 0.669 L 0.217 0.961" fill="none" stroke="purple" stroke-width="0.002"/><path d="M 0.409 0.669 L 0.505 0.707" fill="none" stroke="purple" stroke-width="0.002"/><path d="M 0.401 0.710 L 0.497 0.749" fill="none" stroke="purple" stroke-width="0.002"/><path d="M 0.515 0.748 L 0.629 0.790" fill="none" stroke="purple" stroke-width="0.002"/><path d="M 0.497 0.704 L 0.248 0.961" fill="none" stroke="purple" stroke-width="0.002"/><path d="M 0.505 0.707 L 0.251 0.961" fill="none" stroke="purple" stroke-width="0.002"/><path d="M 0.505 0.707 L 0.252 0.961" fill="none" stroke="purple" stroke-width="0.002"/><path d="M 0.497 0.749 L 0.371 0.877" fill="none" stroke="purple" stroke-width="0.002"/><path d="M 0.629 0.790 L 0.510 0.914" fill="none" stroke="purple" stroke-width="0.002"/><path d="M 0.609 0.705 L 0.401 0.710" fill="none" stroke="purple" stroke-width="0.002"/><path d="M 0.599 0.664 L 0.505 0.707" fill="none" stroke="purple" stroke-width="0.002"/><path d="M 0.609 0.705 L 0.515 0.748" fill="none" stroke="purple" stroke-width="0.002"/><path d="M 0.497 0.749 L 0.386 0.796" fill="none" stroke="purple" stroke-width="0.002"/><path d="M 0.518 1.206 L 0.517 1.207" fill="none" stroke="purple" stroke-width="0.002"/><path d="M 0.217 0.961 L 0.252 0.961" fill="none" stroke="purple" stroke-width="0.002"/></svg>