<svg xmlns="http://www.w3.org/2000/svg" xmlns:xlink="http://www.w3.org/1999/xlink" width="300px" height="300px" viewBox="0.000 0.000 1.000 1.120"><rect x="0" y="0" width="1" height="1" fill="none" stroke="blue" stroke-width="0.005"/><path d="M 0.000 0.500 L 0.500 0.500 L 1.000 0.750 L 1.000 1.000 L 0.875 1.000 L 0.840 1.120 L 0.600 1.050 L 0.591 1.000 L 0.000 1.000 Z" fill="silver" stroke="gray" stroke-width="0.005"/><path d="M 0.500 0.500 L 0.600 1.050" fill="none" stroke="purple" stroke-width="0.002"/><path d="M 0.500 0.500 L 0.875 1.000" fill="none" stroke="purple" stroke-width="0.002"/><path d="M 0.000 0.500 L 0.000 1.000" fill="none" stroke="purple" stroke-width="0.002"/><path d="M 1.000 0.750 L 1.000 1.000" fill="none" stroke="purple" stroke-width="0.002"/><path d="M 0.500 0.500 L 1.000 0.750" fill="none" stroke="purple" stroke-width="0.002"/><path d="M 0.875 1.000 L 0.840 1.120" fill="none" stroke="purple" stroke-width="0.002"/><path d="M 0.000 0.500 L 0.500 0.500" fill="none" stroke="purple" stroke-width="0.002"/><path d="M 0.600 1.050 L 0.840 1.120" fill="none" stroke="purple" stroke-width="0.002"/><path d="M 1.000 0.750 L 0.600 1.050" fill="none" stroke="purple" stroke-width="0.002"/><path d="M 0.000 1.000 L 1.000 1.000" fill="none" stroke="purple" stroke-width="0.002"/></svg>