<svg xmlns="http://www.w3.org/2000/svg" xmlns:xlink="http://www.w3.org/1999/xlink" width="400px" height="400px" viewBox="0.000 0.000 1.000 0.620"><path d="M0.000 0.000L0.500 0.000L1.000 0.250L1.000 0.500L0.875 0.500L0.840 0.620L0.600 0.550L0.591 0.500L0.000 0.500Z" fill="silver" stroke="gray" stroke-width="0.005"/><g fill="none" stroke="purple" stroke-width="0.002"><path d="M0.500 0.000L0.600 0.550"/><path d="M0.500 0.000L0.875 0.500"/><path d="M0.000 0.000L0.000 0.500"/><path d="M1.000 0.250L1.000 0.500"/><path d="M0.500 0.000L1.000 0.250"/><path d="M0.875 0.500L0.840 0.620"/><path d="M0.000 0.000L0.500 0.000"/><path d="M0.600 0.550L0.840 0.620"/><path d="M1.000 0.250L0.600 0.550"/><path d="M0.000 0.500L1.000 0.500"/></g></svg>