<svg xmlns="http://www.w3.org/2000/svg" xmlns:xlink="http://www.w3.org/1999/xlink" width="300px" height="300px" viewBox="0.000 0.000 1.143 1.143"><rect x="0" y="0" width="1" height="1" fill="none" stroke="blue" stroke-width="0.005"/><path d="M 0.571 0.429 L 0.714 0.429 L 0.929 0.571 L 1.143 0.571 L 1.143 0.714 L 1.000 0.929 L 1.000 1.143 L 0.857 1.143 L 0.643 1.000 L 0.429 1.000 L 0.429 0.857 L 0.571 0.643 Z" fill="silver" stroke="gray" stroke-width="0.005"/><path d="M 0.714 0.429 L 1.143 0.714" fill="none" stroke="purple" stroke-width="0.002"/><path d="M 0.429 0.857 L 0.429 1.000" fill="none" stroke="purple" stroke-width="0.002"/><path d="M 0.571 0.429 L 0.571 1.000" fill="none" stroke="purple" stroke-width="0.002"/><path d="M 0.714 0.429 L 0.714 1.000" fill="none" stroke="purple" stroke-width="0.002"/><path d="M 0.857 0.571 L 0.857 1.143" fill="none" stroke="purple" stroke-width="0.002"/><path d="M 1.000 0.571 L 1.000 1.143" fill="none" stroke="purple" stroke-width="0.002"/><path d="M 1.143 0.571 L 1.143 0.714" fill="none" stroke="purple" stroke-width="0.002"/><path d="M 0.429 0.857 L 0.857 1.143" fill="none" stroke="purple" stroke-width="0.002"/><path d="M 0.571 0.429 L 0.714 0.429" fill="none" stroke="purple" stroke-width="0.002"/><path d="M 0.714 0.429 L 0.429 0.857" fill="none" stroke="purple" stroke-width="0.002"/><path d="M 0.571 0.571 L 1.143 0.571" fill="none" stroke="purple" stroke-width="0.002"/><path d="M 0.571 0.714 L 1.143 0.714" fill="none" stroke="purple" stroke-width="0.002"/><path d="M 1.143 0.714 L 0.857 1.143" fill="none" stroke="purple" stroke-width="0.002"/><path d="M 0.429 0.857 L 1.000 0.857" fill="none" stroke="purple" stroke-width="0.002"/><path d="M 0.429 1.000 L 1.000 1.000" fill="none" stroke="purple" stroke-width="0.002"/><path d="M 0.857 1.143 L 1.000 1.143" fill="none" stroke="purple" stroke-width="0.002"/></svg>