<svg xmlns="http://www.w3.org/2000/svg" xmlns:xlink="http://www.w3.org/1999/xlink" width="400px" height="400px" viewBox="0.000 0.000 0.714 0.714"><path d="M0.143 0.000L0.286 0.000L0.500 0.143L0.714 0.143L0.714 0.286L0.571 0.500L0.571 0.714L0.429 0.714L0.214 0.571L0.000 0.571L0.000 0.429L0.143 0.214Z" fill="silver" stroke="gray" stroke-width="0.005"/><g fill="none" stroke="purple" stroke-width="0.002"><path d="M0.286 0.000L0.714 0.286"/><path d="M0.000 0.429L0.000 0.571"/><path d="M0.143 0.000L0.143 0.571"/><path d="M0.286 0.000L0.286 0.571"/><path d="M0.429 0.143L0.429 0.714"/><path d="M0.571 0.143L0.571 0.714"/><path d="M0.714 0.143L0.714 0.286"/><path d="M0.000 0.429L0.429 0.714"/><path d="M0.143 0.000L0.286 0.000"/><path d="M0.286 0.000L0.000 0.429"/><path d="M0.143 0.143L0.714 0.143"/><path d="M0.143 0.286L0.714 0.286"/><path d="M0.714 0.286L0.429 0.714"/><path d="M0.000 0.429L0.571 0.429"/><path d="M0.000 0.571L0.571 0.571"/><path d="M0.429 0.714L0.571 0.714"/></g></svg>