<svg xmlns="http://www.w3.org/2000/svg" xmlns:xlink="http://www.w3.org/1999/xlink" width="300px" height="300px" viewBox="0.000 0.000 1.000 1.000"><rect x="0" y="0" width="1" height="1" fill="none" stroke="blue" stroke-width="0.005"/><path d="M 0.382 0.127 L 0.576 0.273 L 0.727 0.273 L 0.873 0.382 L 0.727 0.576 L 0.727 0.727 L 0.618 0.873 L 0.424 0.727 L 0.273 0.727 L 0.127 0.618 L 0.273 0.424 L 0.273 0.273 Z" fill="silver" stroke="gray" stroke-width="0.005"/><path d="M 0.727 0.273 L 0.873 0.382" fill="none" stroke="purple" stroke-width="0.002"/><path d="M 0.382 0.127 L 0.818 0.455" fill="none" stroke="purple" stroke-width="0.002"/><path d="M 0.273 0.273 L 0.273 0.727" fill="none" stroke="purple" stroke-width="0.002"/><path d="M 0.727 0.273 L 0.727 0.727" fill="none" stroke="purple" stroke-width="0.002"/><path d="M 0.273 0.273 L 0.709 0.600" fill="none" stroke="purple" stroke-width="0.002"/><path d="M 0.291 0.400 L 0.727 0.727" fill="none" stroke="purple" stroke-width="0.002"/><path d="M 0.382 0.127 L 0.273 0.273" fill="none" stroke="purple" stroke-width="0.002"/><path d="M 0.182 0.545 L 0.618 0.873" fill="none" stroke="purple" stroke-width="0.002"/><path d="M 0.273 0.273 L 0.727 0.273" fill="none" stroke="purple" stroke-width="0.002"/><path d="M 0.455 0.182 L 0.127 0.618" fill="none" stroke="purple" stroke-width="0.002"/><path d="M 0.127 0.618 L 0.273 0.727" fill="none" stroke="purple" stroke-width="0.002"/><path d="M 0.600 0.291 L 0.273 0.727" fill="none" stroke="purple" stroke-width="0.002"/><path d="M 0.727 0.273 L 0.400 0.709" fill="none" stroke="purple" stroke-width="0.002"/><path d="M 0.873 0.382 L 0.545 0.818" fill="none" stroke="purple" stroke-width="0.002"/><path d="M 0.727 0.727 L 0.618 0.873" fill="none" stroke="purple" stroke-width="0.002"/><path d="M 0.273 0.727 L 0.727 0.727" fill="none" stroke="purple" stroke-width="0.002"/></svg>