<svg xmlns="http://www.w3.org/2000/svg" xmlns:xlink="http://www.w3.org/1999/xlink" width="400px" height="400px" viewBox="0.000 0.000 0.745 0.745"><path d="M0.255 0.000L0.448 0.145L0.600 0.145L0.745 0.255L0.600 0.448L0.600 0.600L0.491 0.745L0.297 0.600L0.145 0.600L0.000 0.491L0.145 0.297L0.145 0.145Z" fill="silver" stroke="gray" stroke-width="0.005"/><g fill="none" stroke="purple" stroke-width="0.002"><path d="M0.600 0.145L0.745 0.255"/><path d="M0.255 0.000L0.691 0.327"/><path d="M0.145 0.145L0.145 0.600"/><path d="M0.600 0.145L0.600 0.600"/><path d="M0.145 0.145L0.582 0.473"/><path d="M0.164 0.273L0.600 0.600"/><path d="M0.255 0.000L0.145 0.145"/><path d="M0.055 0.418L0.491 0.745"/><path d="M0.145 0.145L0.600 0.145"/><path d="M0.327 0.055L0.000 0.491"/><path d="M0.000 0.491L0.145 0.600"/><path d="M0.473 0.164L0.145 0.600"/><path d="M0.600 0.145L0.273 0.582"/><path d="M0.745 0.255L0.418 0.691"/><path d="M0.600 0.600L0.491 0.745"/><path d="M0.145 0.600L0.600 0.600"/></g></svg>