<svg xmlns="http://www.w3.org/2000/svg" xmlns:xlink="http://www.w3.org/1999/xlink" width="400px" height="400px" viewBox="0.000 0.000 0.714 0.714"><path d="M0.286 0.000L0.429 0.000L0.619 0.286L0.714 0.286L0.714 0.429L0.429 0.619L0.429 0.714L0.286 0.714L0.095 0.429L0.000 0.429L0.000 0.286L0.286 0.095Z" fill="silver" stroke="gray" stroke-width="0.005"/><g fill="none" stroke="purple" stroke-width="0.002"><path d="M0.429 0.000L0.714 0.429"/><path d="M0.000 0.286L0.000 0.429"/><path d="M0.286 0.000L0.286 0.714"/><path d="M0.429 0.000L0.429 0.714"/><path d="M0.714 0.286L0.714 0.429"/><path d="M0.000 0.286L0.286 0.714"/><path d="M0.286 0.000L0.429 0.000"/><path d="M0.429 0.000L0.000 0.286"/><path d="M0.000 0.286L0.714 0.286"/><path d="M0.000 0.429L0.714 0.429"/><path d="M0.714 0.429L0.286 0.714"/><path d="M0.286 0.714L0.429 0.714"/></g></svg>