<svg xmlns="http://www.w3.org/2000/svg" xmlns:xlink="http://www.w3.org/1999/xlink" width="300px" height="300px" viewBox="0.000 0.000 1.143 1.286"><rect x="0" y="0" width="1" height="1" fill="none" stroke="blue" stroke-width="0.005"/><path d="M 0.714 0.571 L 0.857 0.571 L 1.048 0.857 L 1.143 0.857 L 1.143 1.000 L 0.857 1.190 L 0.857 1.286 L 0.714 1.286 L 0.524 1.000 L 0.429 1.000 L 0.429 0.857 L 0.714 0.667 Z" fill="silver" stroke="gray" stroke-width="0.005"/><path d="M 0.857 0.571 L 1.143 1.000" fill="none" stroke="purple" stroke-width="0.002"/><path d="M 0.429 0.857 L 0.429 1.000" fill="none" stroke="purple" stroke-width="0.002"/><path d="M 0.714 0.571 L 0.714 1.286" fill="none" stroke="purple" stroke-width="0.002"/><path d="M 0.857 0.571 L 0.857 1.286" fill="none" stroke="purple" stroke-width="0.002"/><path d="M 1.143 0.857 L 1.143 1.000" fill="none" stroke="purple" stroke-width="0.002"/><path d="M 0.429 0.857 L 0.714 1.286" fill="none" stroke="purple" stroke-width="0.002"/><path d="M 0.714 0.571 L 0.857 0.571" fill="none" stroke="purple" stroke-width="0.002"/><path d="M 0.857 0.571 L 0.429 0.857" fill="none" stroke="purple" stroke-width="0.002"/><path d="M 0.429 0.857 L 1.143 0.857" fill="none" stroke="purple" stroke-width="0.002"/><path d="M 0.429 1.000 L 1.143 1.000" fill="none" stroke="purple" stroke-width="0.002"/><path d="M 1.143 1.000 L 0.714 1.286" fill="none" stroke="purple" stroke-width="0.002"/><path d="M 0.714 1.286 L 0.857 1.286" fill="none" stroke="purple" stroke-width="0.002"/></svg>