<svg xmlns="http://www.w3.org/2000/svg" xmlns:xlink="http://www.w3.org/1999/xlink" width="300px" height="300px" viewBox="0.000 -0.125 1.125 1.125"><rect x="0" y="0" width="1" height="1" fill="none" stroke="blue" stroke-width="0.005"/><path d="M 0.375 -0.125 L 0.500 0.000 L 0.542 0.000 L 0.562 -0.062 L 0.625 -0.125 L 1.125 -0.125 L 1.000 0.000 L 1.000 0.042 L 1.062 0.062 L 1.125 0.125 L 1.125 0.625 L 1.000 0.500 L 0.958 0.500 L 0.938 0.562 L 0.875 0.625 L 0.375 0.625 L 0.500 0.500 L 0.500 0.458 L 0.438 0.438 L 0.375 0.375 Z" fill="silver" stroke="gray" stroke-width="0.005"/><path d="M 1.062 0.062 L 1.125 0.125" fill="none" stroke="purple" stroke-width="0.002"/><path d="M 0.875 0.000 L 1.000 0.125" fill="none" stroke="purple" stroke-width="0.002"/><path d="M 0.750 0.000 L 1.000 0.250" fill="none" stroke="purple" stroke-width="0.002"/><path d="M 0.562 -0.062 L 0.812 0.188" fill="none" stroke="purple" stroke-width="0.002"/><path d="M 1.000 0.375 L 1.125 0.500" fill="none" stroke="purple" stroke-width="0.002"/><path d="M 0.875 0.000 L 1.062 0.062" fill="none" stroke="purple" stroke-width="0.002"/><path d="M 0.375 -0.125 L 0.688 0.188" fill="none" stroke="purple" stroke-width="0.002"/><path d="M 0.812 0.312 L 1.125 0.625" fill="none" stroke="purple" stroke-width="0.002"/><path d="M 0.562 -0.062 L 0.750 0.000" fill="none" stroke="purple" stroke-width="0.002"/><path d="M 0.375 0.000 L 0.500 0.125" fill="none" stroke="purple" stroke-width="0.002"/><path d="M 0.688 0.312 L 0.938 0.562" fill="none" stroke="purple" stroke-width="0.002"/><path d="M 0.625 -0.125 L 1.125 -0.125" fill="none" stroke="purple" stroke-width="0.002"/><path d="M 0.500 0.250 L 0.750 0.500" fill="none" stroke="purple" stroke-width="0.002"/><path d="M 0.812 0.188 L 1.000 0.250" fill="none" stroke="purple" stroke-width="0.002"/><path d="M 0.500 0.375 L 0.625 0.500" fill="none" stroke="purple" stroke-width="0.002"/><path d="M 0.500 0.125 L 0.688 0.188" fill="none" stroke="purple" stroke-width="0.002"/><path d="M 0.375 0.000 L 0.625 0.000" fill="none" stroke="purple" stroke-width="0.002"/><path d="M 0.375 0.375 L 0.438 0.438" fill="none" stroke="purple" stroke-width="0.002"/><path d="M 0.375 -0.125 L 0.375 0.375" fill="none" stroke="purple" stroke-width="0.002"/><path d="M 0.500 0.375 L 0.500 0.625" fill="none" stroke="purple" stroke-width="0.002"/><path d="M 0.625 -0.125 L 0.625 0.000" fill="none" stroke="purple" stroke-width="0.002"/><path d="M 0.875 0.500 L 0.875 0.625" fill="none" stroke="purple" stroke-width="0.002"/><path d="M 1.000 -0.125 L 1.000 0.125" fill="none" stroke="purple" stroke-width="0.002"/><path d="M 1.125 0.125 L 1.125 0.625" fill="none" stroke="purple" stroke-width="0.002"/><path d="M 0.812 0.312 L 1.000 0.375" fill="none" stroke="purple" stroke-width="0.002"/><path d="M 0.500 0.250 L 0.688 0.312" fill="none" stroke="purple" stroke-width="0.002"/><path d="M 1.000 0.125 L 1.125 0.125" fill="none" stroke="purple" stroke-width="0.002"/><path d="M 0.562 -0.062 L 0.500 0.125" fill="none" stroke="purple" stroke-width="0.002"/><path d="M 0.500 0.250 L 0.438 0.438" fill="none" stroke="purple" stroke-width="0.002"/><path d="M 0.750 0.500 L 0.938 0.562" fill="none" stroke="purple" stroke-width="0.002"/><path d="M 0.750 0.000 L 0.688 0.188" fill="none" stroke="purple" stroke-width="0.002"/><path d="M 0.688 0.312 L 0.625 0.500" fill="none" stroke="purple" stroke-width="0.002"/><path d="M 0.625 -0.125 L 0.562 -0.062" fill="none" stroke="purple" stroke-width="0.002"/><path d="M 0.438 0.438 L 0.625 0.500" fill="none" stroke="purple" stroke-width="0.002"/><path d="M 0.875 0.000 L 0.812 0.188" fill="none" stroke="purple" stroke-width="0.002"/><path d="M 0.812 0.312 L 0.750 0.500" fill="none" stroke="purple" stroke-width="0.002"/><path d="M 0.625 0.000 L 0.500 0.125" fill="none" stroke="purple" stroke-width="0.002"/><path d="M 1.062 0.062 L 1.000 0.250" fill="none" stroke="purple" stroke-width="0.002"/><path d="M 1.000 0.375 L 0.938 0.562" fill="none" stroke="purple" stroke-width="0.002"/><path d="M 0.375 0.375 L 0.500 0.375" fill="none" stroke="purple" stroke-width="0.002"/><path d="M 0.750 0.000 L 0.500 0.250" fill="none" stroke="purple" stroke-width="0.002"/><path d="M 1.000 -0.125 L 0.875 0.000" fill="none" stroke="purple" stroke-width="0.002"/><path d="M 0.688 0.188 L 0.438 0.438" fill="none" stroke="purple" stroke-width="0.002"/><path d="M 0.875 0.500 L 1.125 0.500" fill="none" stroke="purple" stroke-width="0.002"/><path d="M 1.125 -0.125 L 0.812 0.188" fill="none" stroke="purple" stroke-width="0.002"/><path d="M 0.688 0.312 L 0.375 0.625" fill="none" stroke="purple" stroke-width="0.002"/><path d="M 1.062 0.062 L 0.812 0.312" fill="none" stroke="purple" stroke-width="0.002"/><path d="M 0.625 0.500 L 0.500 0.625" fill="none" stroke="purple" stroke-width="0.002"/><path d="M 0.375 0.625 L 0.875 0.625" fill="none" stroke="purple" stroke-width="0.002"/><path d="M 1.000 0.250 L 0.750 0.500" fill="none" stroke="purple" stroke-width="0.002"/><path d="M 1.000 0.375 L 0.875 0.500" fill="none" stroke="purple" stroke-width="0.002"/><path d="M 0.938 0.562 L 0.875 0.625" fill="none" stroke="purple" stroke-width="0.002"/></svg>