<svg xmlns="http://www.w3.org/2000/svg" xmlns:xlink="http://www.w3.org/1999/xlink" width="300px" height="300px" viewBox="-0.389 0.000 1.389 1.000"><rect x="0" y="0" width="1" height="1" fill="none" stroke="blue" stroke-width="0.005"/><path d="M -0.024 0.000 L 0.024 0.000 L 0.049 0.050 L 0.389 0.286 L 0.293 0.613 L 0.208 0.588 L 0.138 0.681 L 0.000 0.577 L -0.138 0.681 L -0.208 0.588 L -0.293 0.613 L -0.389 0.286 L -0.049 0.050 Z" fill="silver" stroke="gray" stroke-width="0.005"/><path d="M -0.024 0.000 L -0.274 0.500" fill="none" stroke="purple" stroke-width="0.002"/><path d="M 0.024 0.000 L 0.274 0.500" fill="none" stroke="purple" stroke-width="0.002"/><path d="M -0.024 0.000 L -0.095 0.500" fill="none" stroke="purple" stroke-width="0.002"/><path d="M 0.024 0.000 L 0.095 0.500" fill="none" stroke="purple" stroke-width="0.002"/><path d="M -0.024 0.000 L 0.024 0.000" fill="none" stroke="purple" stroke-width="0.002"/><path d="M -0.024 0.000 L 0.389 0.286" fill="none" stroke="purple" stroke-width="0.002"/><path d="M 0.024 0.000 L -0.389 0.286" fill="none" stroke="purple" stroke-width="0.002"/><path d="M -0.389 0.286 L -0.293 0.613" fill="none" stroke="purple" stroke-width="0.002"/><path d="M 0.389 0.286 L 0.293 0.613" fill="none" stroke="purple" stroke-width="0.002"/><path d="M -0.274 0.500 L -0.138 0.681" fill="none" stroke="purple" stroke-width="0.002"/><path d="M 0.274 0.500 L 0.138 0.681" fill="none" stroke="purple" stroke-width="0.002"/><path d="M -0.389 0.286 L 0.138 0.681" fill="none" stroke="purple" stroke-width="0.002"/><path d="M 0.389 0.286 L -0.138 0.681" fill="none" stroke="purple" stroke-width="0.002"/><path d="M -0.095 0.500 L 0.293 0.613" fill="none" stroke="purple" stroke-width="0.002"/><path d="M 0.095 0.500 L -0.293 0.613" fill="none" stroke="purple" stroke-width="0.002"/><path d="M -0.274 0.500 L 0.274 0.500" fill="none" stroke="purple" stroke-width="0.002"/></svg>