<svg xmlns="http://www.w3.org/2000/svg" xmlns:xlink="http://www.w3.org/1999/xlink" width="400px" height="400px" viewBox="0.000 0.000 0.778 0.681"><path d="M0.365 0.000L0.413 0.000L0.438 0.050L0.778 0.286L0.682 0.613L0.596 0.588L0.527 0.681L0.389 0.577L0.251 0.681L0.181 0.588L0.096 0.613L0.000 0.286L0.340 0.050Z" fill="silver" stroke="gray" stroke-width="0.005"/><g fill="none" stroke="purple" stroke-width="0.002"><path d="M0.365 0.000L0.115 0.500"/><path d="M0.413 0.000L0.663 0.500"/><path d="M0.365 0.000L0.294 0.500"/><path d="M0.413 0.000L0.484 0.500"/><path d="M0.365 0.000L0.413 0.000"/><path d="M0.365 0.000L0.778 0.286"/><path d="M0.413 0.000L0.000 0.286"/><path d="M0.000 0.286L0.096 0.613"/><path d="M0.778 0.286L0.682 0.613"/><path d="M0.115 0.500L0.251 0.681"/><path d="M0.663 0.500L0.527 0.681"/><path d="M0.000 0.286L0.527 0.681"/><path d="M0.778 0.286L0.251 0.681"/><path d="M0.294 0.500L0.682 0.613"/><path d="M0.484 0.500L0.096 0.613"/><path d="M0.115 0.500L0.663 0.500"/></g></svg>