<svg xmlns="http://www.w3.org/2000/svg" xmlns:xlink="http://www.w3.org/1999/xlink" width="300px" height="300px" viewBox="-0.200 0.000 1.200 1.000"><rect x="0" y="0" width="1" height="1" fill="none" stroke="blue" stroke-width="0.005"/><path d="M -0.200 0.200 L 0.100 0.200 L 0.150 0.250 L 0.200 0.200 L 0.200 0.500 L 0.150 0.550 L 0.200 0.600 L -0.100 0.600 L -0.150 0.550 L -0.200 0.600 L -0.200 0.300 L -0.150 0.250 Z" fill="silver" stroke="gray" stroke-width="0.005"/><path d="M -0.200 0.300 L -0.200 0.600" fill="none" stroke="purple" stroke-width="0.002"/><path d="M -0.100 0.400 L -0.100 0.600" fill="none" stroke="purple" stroke-width="0.002"/><path d="M 0.000 0.200 L 0.000 0.600" fill="none" stroke="purple" stroke-width="0.002"/><path d="M -0.100 0.200 L -0.200 0.400" fill="none" stroke="purple" stroke-width="0.002"/><path d="M 0.100 0.200 L 0.100 0.400" fill="none" stroke="purple" stroke-width="0.002"/><path d="M 0.200 0.200 L 0.200 0.500" fill="none" stroke="purple" stroke-width="0.002"/><path d="M -0.100 0.300 L -0.200 0.500" fill="none" stroke="purple" stroke-width="0.002"/><path d="M 0.000 0.200 L -0.100 0.400" fill="none" stroke="purple" stroke-width="0.002"/><path d="M 0.100 0.200 L 0.200 0.300" fill="none" stroke="purple" stroke-width="0.002"/><path d="M -0.100 0.200 L -0.200 0.300" fill="none" stroke="purple" stroke-width="0.002"/><path d="M 0.000 0.300 L -0.100 0.500" fill="none" stroke="purple" stroke-width="0.002"/><path d="M 0.000 0.200 L 0.200 0.400" fill="none" stroke="purple" stroke-width="0.002"/><path d="M 0.000 0.200 L -0.200 0.400" fill="none" stroke="purple" stroke-width="0.002"/><path d="M 0.100 0.300 L 0.000 0.500" fill="none" stroke="purple" stroke-width="0.002"/><path d="M 0.100 0.400 L 0.000 0.600" fill="none" stroke="purple" stroke-width="0.002"/><path d="M 0.200 0.300 L 0.100 0.500" fill="none" stroke="purple" stroke-width="0.002"/><path d="M -0.100 0.200 L 0.100 0.400" fill="none" stroke="purple" stroke-width="0.002"/><path d="M 0.000 0.300 L -0.200 0.500" fill="none" stroke="purple" stroke-width="0.002"/><path d="M 0.000 0.200 L 0.200 0.300" fill="none" stroke="purple" stroke-width="0.002"/><path d="M 0.200 0.400 L 0.100 0.600" fill="none" stroke="purple" stroke-width="0.002"/><path d="M -0.200 0.200 L 0.200 0.600" fill="none" stroke="purple" stroke-width="0.002"/><path d="M -0.100 0.200 L 0.100 0.300" fill="none" stroke="purple" stroke-width="0.002"/><path d="M -0.200 0.200 L 0.100 0.200" fill="none" stroke="purple" stroke-width="0.002"/><path d="M 0.200 0.200 L -0.200 0.600" fill="none" stroke="purple" stroke-width="0.002"/><path d="M 0.000 0.300 L 0.200 0.400" fill="none" stroke="purple" stroke-width="0.002"/><path d="M -0.100 0.400 L 0.100 0.600" fill="none" stroke="purple" stroke-width="0.002"/><path d="M 0.200 0.300 L 0.000 0.500" fill="none" stroke="purple" stroke-width="0.002"/><path d="M -0.100 0.300 L 0.100 0.400" fill="none" stroke="purple" stroke-width="0.002"/><path d="M -0.200 0.400 L 0.000 0.600" fill="none" stroke="purple" stroke-width="0.002"/><path d="M -0.200 0.300 L 0.000 0.300" fill="none" stroke="purple" stroke-width="0.002"/><path d="M 0.200 0.400 L 0.000 0.600" fill="none" stroke="purple" stroke-width="0.002"/><path d="M -0.200 0.500 L -0.100 0.600" fill="none" stroke="purple" stroke-width="0.002"/><path d="M 0.200 0.500 L 0.100 0.600" fill="none" stroke="purple" stroke-width="0.002"/><path d="M -0.100 0.400 L 0.100 0.500" fill="none" stroke="purple" stroke-width="0.002"/><path d="M -0.200 0.400 L 0.000 0.500" fill="none" stroke="purple" stroke-width="0.002"/><path d="M -0.200 0.400 L 0.200 0.400" fill="none" stroke="purple" stroke-width="0.002"/><path d="M -0.100 0.500 L 0.100 0.600" fill="none" stroke="purple" stroke-width="0.002"/><path d="M -0.200 0.500 L 0.000 0.600" fill="none" stroke="purple" stroke-width="0.002"/><path d="M 0.000 0.500 L 0.200 0.500" fill="none" stroke="purple" stroke-width="0.002"/><path d="M -0.100 0.600 L 0.200 0.600" fill="none" stroke="purple" stroke-width="0.002"/></svg>