<svg xmlns="http://www.w3.org/2000/svg" xmlns:xlink="http://www.w3.org/1999/xlink" width="400px" height="400px" viewBox="0.000 0.000 0.400 0.400"><path d="M0.000 0.000L0.300 0.000L0.350 0.050L0.400 0.000L0.400 0.300L0.350 0.350L0.400 0.400L0.100 0.400L0.050 0.350L0.000 0.400L0.000 0.100L0.050 0.050Z" fill="silver" stroke="gray" stroke-width="0.005"/><g fill="none" stroke="purple" stroke-width="0.002"><path d="M0.000 0.100L0.000 0.400"/><path d="M0.100 0.200L0.100 0.400"/><path d="M0.200 0.000L0.200 0.400"/><path d="M0.100 0.000L0.000 0.200"/><path d="M0.300 0.000L0.300 0.200"/><path d="M0.400 0.000L0.400 0.300"/><path d="M0.100 0.100L0.000 0.300"/><path d="M0.200 0.000L0.100 0.200"/><path d="M0.300 0.000L0.400 0.100"/><path d="M0.100 0.000L0.000 0.100"/><path d="M0.200 0.100L0.100 0.300"/><path d="M0.200 0.000L0.400 0.200"/><path d="M0.200 0.000L0.000 0.200"/><path d="M0.300 0.100L0.200 0.300"/><path d="M0.300 0.200L0.200 0.400"/><path d="M0.400 0.100L0.300 0.300"/><path d="M0.100 0.000L0.300 0.200"/><path d="M0.200 0.100L0.000 0.300"/><path d="M0.200 0.000L0.400 0.100"/><path d="M0.400 0.200L0.300 0.400"/><path d="M0.000 0.000L0.400 0.400"/><path d="M0.100 0.000L0.300 0.100"/><path d="M0.000 0.000L0.300 0.000"/><path d="M0.400 0.000L0.000 0.400"/><path d="M0.200 0.100L0.400 0.200"/><path d="M0.100 0.200L0.300 0.400"/><path d="M0.400 0.100L0.200 0.300"/><path d="M0.100 0.100L0.300 0.200"/><path d="M0.000 0.200L0.200 0.400"/><path d="M0.000 0.100L0.200 0.100"/><path d="M0.400 0.200L0.200 0.400"/><path d="M0.000 0.300L0.100 0.400"/><path d="M0.400 0.300L0.300 0.400"/><path d="M0.100 0.200L0.300 0.300"/><path d="M0.000 0.200L0.200 0.300"/><path d="M0.000 0.200L0.400 0.200"/><path d="M0.100 0.300L0.300 0.400"/><path d="M0.000 0.300L0.200 0.400"/><path d="M0.200 0.300L0.400 0.300"/><path d="M0.100 0.400L0.400 0.400"/></g></svg>