<svg xmlns="http://www.w3.org/2000/svg" xmlns:xlink="http://www.w3.org/1999/xlink" width="300px" height="300px" viewBox="0.000 0.000 1.000 1.000"><rect x="0" y="0" width="1" height="1" fill="none" stroke="blue" stroke-width="0.005"/><path d="M 0.250 0.000 L 0.375 0.125 L 0.375 0.250 L 0.250 0.375 L 0.125 0.375 L 0.000 0.250 Z" fill="silver" stroke="gray" stroke-width="0.005"/><path d="M 0.125 0.125 L 0.125 0.250 L 0.250 0.250 L 0.250 0.125 Z" fill="white" stroke="black" stroke-width="0.005"/><path d="M 0.250 0.000 L 0.375 0.125" fill="none" stroke="purple" stroke-width="0.002"/><path d="M 0.125 0.125 L 0.125 0.375" fill="none" stroke="purple" stroke-width="0.002"/><path d="M 0.250 0.000 L 0.250 0.375" fill="none" stroke="purple" stroke-width="0.002"/><path d="M 0.375 0.125 L 0.375 0.250" fill="none" stroke="purple" stroke-width="0.002"/><path d="M 0.000 0.250 L 0.125 0.375" fill="none" stroke="purple" stroke-width="0.002"/><path d="M 0.125 0.125 L 0.375 0.125" fill="none" stroke="purple" stroke-width="0.002"/><path d="M 0.250 0.000 L 0.000 0.250" fill="none" stroke="purple" stroke-width="0.002"/><path d="M 0.000 0.250 L 0.375 0.250" fill="none" stroke="purple" stroke-width="0.002"/><path d="M 0.375 0.250 L 0.250 0.375" fill="none" stroke="purple" stroke-width="0.002"/><path d="M 0.125 0.375 L 0.250 0.375" fill="none" stroke="purple" stroke-width="0.002"/></svg>