<svg xmlns="http://www.w3.org/2000/svg" xmlns:xlink="http://www.w3.org/1999/xlink" width="400px" height="400px" viewBox="0.000 0.000 0.375 0.375"><path d="M0.250 0.000L0.375 0.125L0.375 0.250L0.250 0.375L0.125 0.375L0.000 0.250Z" fill="silver" stroke="gray" stroke-width="0.005"/><path d="M0.125 0.125L0.125 0.250L0.250 0.250L0.250 0.125Z" fill="white" stroke="black" stroke-width="0.005"/><g fill="none" stroke="purple" stroke-width="0.002"><path d="M0.250 0.000L0.375 0.125"/><path d="M0.125 0.125L0.125 0.375"/><path d="M0.250 0.000L0.250 0.375"/><path d="M0.375 0.125L0.375 0.250"/><path d="M0.000 0.250L0.125 0.375"/><path d="M0.125 0.125L0.375 0.125"/><path d="M0.250 0.000L0.000 0.250"/><path d="M0.000 0.250L0.375 0.250"/><path d="M0.375 0.250L0.250 0.375"/><path d="M0.125 0.375L0.250 0.375"/></g></svg>