<svg xmlns="http://www.w3.org/2000/svg" xmlns:xlink="http://www.w3.org/1999/xlink" width="400px" height="400px" viewBox="0.000 0.000 0.300 0.380"><path d="M0.090 0.000L0.150 0.080L0.210 0.000L0.290 0.060L0.212 0.163L0.300 0.280L0.250 0.380L0.050 0.380L0.000 0.280L0.087 0.163L0.010 0.060Z" fill="silver" stroke="gray" stroke-width="0.005"/><path d="M0.150 0.247L0.125 0.280L0.175 0.280Z" fill="white" stroke="black" stroke-width="0.005"/><g fill="none" stroke="purple" stroke-width="0.002"><path d="M0.210 0.000L0.290 0.060"/><path d="M0.090 0.000L0.300 0.280"/><path d="M0.010 0.060L0.250 0.380"/><path d="M0.000 0.280L0.050 0.380"/><path d="M0.090 0.000L0.010 0.060"/><path d="M0.210 0.000L0.000 0.280"/><path d="M0.300 0.280L0.250 0.380"/><path d="M0.290 0.060L0.050 0.380"/><path d="M0.000 0.280L0.300 0.280"/><path d="M0.050 0.380L0.250 0.380"/></g></svg>