<svg xmlns="http://www.w3.org/2000/svg" xmlns:xlink="http://www.w3.org/1999/xlink" width="300px" height="300px" viewBox="0.000 0.000 1.000 1.000"><rect x="0" y="0" width="1" height="1" fill="none" stroke="blue" stroke-width="0.005"/><path d="M 0.440 0.120 L 0.500 0.200 L 0.560 0.120 L 0.640 0.180 L 0.562 0.283 L 0.650 0.400 L 0.600 0.500 L 0.400 0.500 L 0.350 0.400 L 0.438 0.283 L 0.360 0.180 Z" fill="silver" stroke="gray" stroke-width="0.005"/><path d="M 0.500 0.367 L 0.475 0.400 L 0.525 0.400 Z" fill="white" stroke="black" stroke-width="0.005"/><path d="M 0.560 0.120 L 0.640 0.180" fill="none" stroke="purple" stroke-width="0.002"/><path d="M 0.440 0.120 L 0.650 0.400" fill="none" stroke="purple" stroke-width="0.002"/><path d="M 0.360 0.180 L 0.600 0.500" fill="none" stroke="purple" stroke-width="0.002"/><path d="M 0.350 0.400 L 0.400 0.500" fill="none" stroke="purple" stroke-width="0.002"/><path d="M 0.440 0.120 L 0.360 0.180" fill="none" stroke="purple" stroke-width="0.002"/><path d="M 0.560 0.120 L 0.350 0.400" fill="none" stroke="purple" stroke-width="0.002"/><path d="M 0.650 0.400 L 0.600 0.500" fill="none" stroke="purple" stroke-width="0.002"/><path d="M 0.640 0.180 L 0.400 0.500" fill="none" stroke="purple" stroke-width="0.002"/><path d="M 0.350 0.400 L 0.650 0.400" fill="none" stroke="purple" stroke-width="0.002"/><path d="M 0.400 0.500 L 0.600 0.500" fill="none" stroke="purple" stroke-width="0.002"/></svg>