<svg xmlns="http://www.w3.org/2000/svg" xmlns:xlink="http://www.w3.org/1999/xlink" width="300px" height="300px" viewBox="0.000 0.000 1.000 1.000"><rect x="0" y="0" width="1" height="1" fill="none" stroke="blue" stroke-width="0.005"/><path d="M 0.129 0.000 L 0.286 0.029 L 0.357 0.171 L 0.286 0.314 L 0.129 0.343 L 0.039 0.260 L 0.028 0.267 L 0.026 0.248 L 0.011 0.234 L 0.024 0.230 L 0.011 0.109 Z" fill="silver" stroke="gray" stroke-width="0.005"/><path d="M 0.200 0.054 L 0.097 0.084 L 0.059 0.184 L 0.076 0.210 L 0.078 0.209 L 0.082 0.220 L 0.088 0.229 L 0.086 0.230 L 0.097 0.259 L 0.200 0.289 L 0.286 0.225 L 0.286 0.118 Z" fill="white" stroke="black" stroke-width="0.005"/><path d="M 0.286 0.029 L 0.357 0.171" fill="none" stroke="purple" stroke-width="0.002"/><path d="M 0.129 0.000 L 0.357 0.171" fill="none" stroke="purple" stroke-width="0.002"/><path d="M 0.129 0.000 L 0.286 0.029" fill="none" stroke="purple" stroke-width="0.002"/><path d="M 0.011 0.109 L 0.028 0.267" fill="none" stroke="purple" stroke-width="0.002"/><path d="M 0.286 0.029 L 0.286 0.314" fill="none" stroke="purple" stroke-width="0.002"/><path d="M 0.078 0.209 L 0.129 0.343" fill="none" stroke="purple" stroke-width="0.002"/><path d="M 0.011 0.109 L 0.088 0.229" fill="none" stroke="purple" stroke-width="0.002"/><path d="M 0.129 0.000 L 0.028 0.267" fill="none" stroke="purple" stroke-width="0.002"/><path d="M 0.129 0.000 L 0.011 0.109" fill="none" stroke="purple" stroke-width="0.002"/><path d="M 0.286 0.029 L 0.011 0.109" fill="none" stroke="purple" stroke-width="0.002"/><path d="M 0.011 0.234 L 0.129 0.343" fill="none" stroke="purple" stroke-width="0.002"/><path d="M 0.357 0.171 L 0.286 0.314" fill="none" stroke="purple" stroke-width="0.002"/><path d="M 0.088 0.229 L 0.028 0.267" fill="none" stroke="purple" stroke-width="0.002"/><path d="M 0.078 0.209 L 0.011 0.234" fill="none" stroke="purple" stroke-width="0.002"/><path d="M 0.011 0.234 L 0.286 0.314" fill="none" stroke="purple" stroke-width="0.002"/><path d="M 0.357 0.171 L 0.129 0.343" fill="none" stroke="purple" stroke-width="0.002"/><path d="M 0.286 0.314 L 0.129 0.343" fill="none" stroke="purple" stroke-width="0.002"/></svg>