<svg xmlns="http://www.w3.org/2000/svg" xmlns:xlink="http://www.w3.org/1999/xlink" width="400px" height="400px" viewBox="0.000 0.000 0.346 0.343"><path d="M0.117 0.000L0.274 0.029L0.346 0.171L0.274 0.314L0.117 0.343L0.028 0.260L0.017 0.267L0.015 0.248L0.000 0.234L0.013 0.230L0.000 0.109Z" fill="silver" stroke="gray" stroke-width="0.005"/><path d="M0.189 0.054L0.086 0.084L0.048 0.184L0.065 0.210L0.067 0.209L0.071 0.220L0.077 0.229L0.075 0.230L0.086 0.259L0.189 0.289L0.274 0.225L0.274 0.118Z" fill="white" stroke="black" stroke-width="0.005"/><g fill="none" stroke="purple" stroke-width="0.002"><path d="M0.274 0.029L0.346 0.171"/><path d="M0.117 0.000L0.346 0.171"/><path d="M0.117 0.000L0.274 0.029"/><path d="M0.000 0.109L0.017 0.267"/><path d="M0.274 0.029L0.274 0.314"/><path d="M0.067 0.209L0.117 0.343"/><path d="M0.000 0.109L0.077 0.229"/><path d="M0.117 0.000L0.017 0.267"/><path d="M0.117 0.000L0.000 0.109"/><path d="M0.274 0.029L0.000 0.109"/><path d="M0.000 0.234L0.117 0.343"/><path d="M0.346 0.171L0.274 0.314"/><path d="M0.077 0.229L0.017 0.267"/><path d="M0.067 0.209L0.000 0.234"/><path d="M0.000 0.234L0.274 0.314"/><path d="M0.346 0.171L0.117 0.343"/><path d="M0.274 0.314L0.117 0.343"/></g></svg>