<svg xmlns="http://www.w3.org/2000/svg" xmlns:xlink="http://www.w3.org/1999/xlink" width="300px" height="300px" viewBox="0.000 -0.008 1.000 1.008"><rect x="0" y="0" width="1" height="1" fill="none" stroke="blue" stroke-width="0.005"/><path d="M 0.154 -0.008 L 0.244 0.060 L 0.323 0.000 L 0.400 0.038 L 0.400 0.192 L 0.323 0.231 L 0.233 0.163 L 0.154 0.223 L 0.077 0.185 L 0.077 0.031 Z" fill="silver" stroke="gray" stroke-width="0.005"/><path d="M 0.154 0.088 L 0.154 0.127 L 0.179 0.108 Z" fill="white" stroke="black" stroke-width="0.005"/><path d="M 0.323 0.096 L 0.297 0.115 L 0.323 0.135 Z" fill="white" stroke="black" stroke-width="0.005"/><path d="M 0.323 0.000 L 0.400 0.038" fill="none" stroke="purple" stroke-width="0.002"/><path d="M 0.154 -0.008 L 0.246 0.062" fill="none" stroke="purple" stroke-width="0.002"/><path d="M 0.246 0.077 L 0.400 0.192" fill="none" stroke="purple" stroke-width="0.002"/><path d="M 0.077 0.031 L 0.200 0.123" fill="none" stroke="purple" stroke-width="0.002"/><path d="M 0.200 0.138 L 0.323 0.231" fill="none" stroke="purple" stroke-width="0.002"/><path d="M 0.077 0.031 L 0.077 0.185" fill="none" stroke="purple" stroke-width="0.002"/><path d="M 0.154 -0.008 L 0.154 0.223" fill="none" stroke="purple" stroke-width="0.002"/><path d="M 0.323 0.000 L 0.323 0.231" fill="none" stroke="purple" stroke-width="0.002"/><path d="M 0.400 0.038 L 0.400 0.192" fill="none" stroke="purple" stroke-width="0.002"/><path d="M 0.154 -0.008 L 0.077 0.031" fill="none" stroke="purple" stroke-width="0.002"/><path d="M 0.077 0.185 L 0.154 0.223" fill="none" stroke="purple" stroke-width="0.002"/><path d="M 0.246 0.062 L 0.200 0.123" fill="none" stroke="purple" stroke-width="0.002"/><path d="M 0.246 0.077 L 0.200 0.138" fill="none" stroke="purple" stroke-width="0.002"/><path d="M 0.323 0.000 L 0.077 0.185" fill="none" stroke="purple" stroke-width="0.002"/><path d="M 0.400 0.038 L 0.154 0.223" fill="none" stroke="purple" stroke-width="0.002"/><path d="M 0.400 0.192 L 0.323 0.231" fill="none" stroke="purple" stroke-width="0.002"/></svg>