<svg xmlns="http://www.w3.org/2000/svg" xmlns:xlink="http://www.w3.org/1999/xlink" width="400px" height="400px" viewBox="0.000 0.000 0.323 0.238"><path d="M0.077 0.000L0.167 0.067L0.246 0.008L0.323 0.046L0.323 0.200L0.246 0.238L0.156 0.171L0.077 0.231L0.000 0.192L0.000 0.038Z" fill="silver" stroke="gray" stroke-width="0.005"/><path d="M0.077 0.096L0.077 0.135L0.103 0.115Z" fill="white" stroke="black" stroke-width="0.005"/><path d="M0.246 0.104L0.221 0.123L0.246 0.142Z" fill="white" stroke="black" stroke-width="0.005"/><g fill="none" stroke="purple" stroke-width="0.002"><path d="M0.246 0.008L0.323 0.046"/><path d="M0.077 0.000L0.169 0.069"/><path d="M0.169 0.085L0.323 0.200"/><path d="M0.000 0.038L0.123 0.131"/><path d="M0.123 0.146L0.246 0.238"/><path d="M0.000 0.038L0.000 0.192"/><path d="M0.077 0.000L0.077 0.231"/><path d="M0.246 0.008L0.246 0.238"/><path d="M0.323 0.046L0.323 0.200"/><path d="M0.077 0.000L0.000 0.038"/><path d="M0.000 0.192L0.077 0.231"/><path d="M0.169 0.069L0.123 0.131"/><path d="M0.169 0.085L0.123 0.146"/><path d="M0.246 0.008L0.000 0.192"/><path d="M0.323 0.046L0.077 0.231"/><path d="M0.323 0.200L0.246 0.238"/></g></svg>