<svg xmlns="http://www.w3.org/2000/svg" xmlns:xlink="http://www.w3.org/1999/xlink" width="400px" height="400px" viewBox="0.000 0.000 0.500 0.500"><path d="M0.000 0.000L0.500 0.000L0.375 0.125L0.375 0.375L0.500 0.500L0.000 0.500L0.125 0.375L0.125 0.125Z" fill="silver" stroke="gray" stroke-width="0.005"/><g fill="none" stroke="purple" stroke-width="0.002"><path d="M0.250 0.000L0.375 0.125"/><path d="M0.000 0.000L0.125 0.125"/><path d="M0.375 0.375L0.500 0.500"/><path d="M0.000 0.000L0.500 0.000"/><path d="M0.125 0.375L0.250 0.500"/><path d="M0.125 0.000L0.125 0.500"/><path d="M0.250 0.000L0.250 0.500"/><path d="M0.375 0.000L0.375 0.500"/><path d="M0.125 0.125L0.375 0.125"/><path d="M0.250 0.000L0.125 0.125"/><path d="M0.125 0.375L0.375 0.375"/><path d="M0.500 0.000L0.375 0.125"/><path d="M0.125 0.375L0.000 0.500"/><path d="M0.000 0.500L0.500 0.500"/><path d="M0.375 0.375L0.250 0.500"/></g></svg>