<svg xmlns="http://www.w3.org/2000/svg" xmlns:xlink="http://www.w3.org/1999/xlink" width="400px" height="400px" viewBox="0.000 0.000 0.632 0.632"><path d="M0.245 0.000L0.402 0.004L0.632 0.245L0.239 0.236L0.236 0.393L0.628 0.402L0.387 0.632L0.230 0.628L0.000 0.387L0.004 0.230Z" fill="silver" stroke="gray" stroke-width="0.005"/><g fill="none" stroke="purple" stroke-width="0.002"><path d="M0.402 0.004L0.632 0.245"/><path d="M0.084 0.153L0.238 0.314"/><path d="M0.157 0.391L0.387 0.632"/><path d="M0.000 0.387L0.230 0.628"/><path d="M0.004 0.230L0.000 0.387"/><path d="M0.245 0.000L0.230 0.628"/><path d="M0.245 0.000L0.402 0.004"/><path d="M0.004 0.230L0.632 0.245"/><path d="M0.245 0.000L0.004 0.230"/><path d="M0.000 0.387L0.628 0.402"/><path d="M0.402 0.004L0.161 0.234"/><path d="M0.238 0.314L0.077 0.467"/><path d="M0.230 0.628L0.387 0.632"/><path d="M0.628 0.402L0.387 0.632"/></g></svg>