<svg xmlns="http://www.w3.org/2000/svg" xmlns:xlink="http://www.w3.org/1999/xlink" width="300px" height="300px" viewBox="0.000 0.000 1.211 1.000"><rect x="0" y="0" width="1" height="1" fill="none" stroke="blue" stroke-width="0.005"/><path d="M 0.824 0.115 L 0.981 0.119 L 1.211 0.360 L 0.818 0.351 L 0.814 0.508 L 1.207 0.517 L 0.966 0.747 L 0.808 0.743 L 0.579 0.502 L 0.582 0.345 Z" fill="silver" stroke="gray" stroke-width="0.005"/><path d="M 0.981 0.119 L 1.211 0.360" fill="none" stroke="purple" stroke-width="0.002"/><path d="M 0.663 0.268 L 0.816 0.429" fill="none" stroke="purple" stroke-width="0.002"/><path d="M 0.736 0.506 L 0.966 0.747" fill="none" stroke="purple" stroke-width="0.002"/><path d="M 0.579 0.502 L 0.808 0.743" fill="none" stroke="purple" stroke-width="0.002"/><path d="M 0.582 0.345 L 0.579 0.502" fill="none" stroke="purple" stroke-width="0.002"/><path d="M 0.824 0.115 L 0.808 0.743" fill="none" stroke="purple" stroke-width="0.002"/><path d="M 0.824 0.115 L 0.981 0.119" fill="none" stroke="purple" stroke-width="0.002"/><path d="M 0.582 0.345 L 1.211 0.360" fill="none" stroke="purple" stroke-width="0.002"/><path d="M 0.824 0.115 L 0.582 0.345" fill="none" stroke="purple" stroke-width="0.002"/><path d="M 0.579 0.502 L 1.207 0.517" fill="none" stroke="purple" stroke-width="0.002"/><path d="M 0.981 0.119 L 0.739 0.349" fill="none" stroke="purple" stroke-width="0.002"/><path d="M 0.816 0.429 L 0.655 0.582" fill="none" stroke="purple" stroke-width="0.002"/><path d="M 0.808 0.743 L 0.966 0.747" fill="none" stroke="purple" stroke-width="0.002"/><path d="M 1.207 0.517 L 0.966 0.747" fill="none" stroke="purple" stroke-width="0.002"/></svg>