<svg xmlns="http://www.w3.org/2000/svg" xmlns:xlink="http://www.w3.org/1999/xlink" width="300px" height="300px" viewBox="0.000 0.000 1.000 1.167"><rect x="0" y="0" width="1" height="1" fill="none" stroke="blue" stroke-width="0.005"/><path d="M 0.583 0.583 L 0.667 0.667 L 0.667 0.833 L 0.833 1.000 L 0.667 1.000 L 0.833 1.167 L 0.500 1.167 L 0.500 0.667 Z" fill="silver" stroke="gray" stroke-width="0.005"/><path d="M 0.583 0.583 L 0.667 0.667" fill="none" stroke="purple" stroke-width="0.002"/><path d="M 0.500 0.667 L 0.500 1.167" fill="none" stroke="purple" stroke-width="0.002"/><path d="M 0.583 0.750 L 0.583 1.000" fill="none" stroke="purple" stroke-width="0.002"/><path d="M 0.667 0.667 L 0.667 1.167" fill="none" stroke="purple" stroke-width="0.002"/><path d="M 0.500 0.667 L 0.833 1.000" fill="none" stroke="purple" stroke-width="0.002"/><path d="M 0.500 0.833 L 0.833 1.167" fill="none" stroke="purple" stroke-width="0.002"/><path d="M 0.583 0.583 L 0.500 0.667" fill="none" stroke="purple" stroke-width="0.002"/><path d="M 0.667 0.667 L 0.500 0.833" fill="none" stroke="purple" stroke-width="0.002"/><path d="M 0.667 0.833 L 0.500 1.000" fill="none" stroke="purple" stroke-width="0.002"/><path d="M 0.500 1.000 L 0.833 1.000" fill="none" stroke="purple" stroke-width="0.002"/><path d="M 0.500 1.167 L 0.833 1.167" fill="none" stroke="purple" stroke-width="0.002"/></svg>