<svg xmlns="http://www.w3.org/2000/svg" xmlns:xlink="http://www.w3.org/1999/xlink" width="400px" height="400px" viewBox="0.000 0.000 0.333 0.583"><path d="M0.083 0.000L0.167 0.083L0.167 0.250L0.333 0.417L0.167 0.417L0.333 0.583L0.000 0.583L0.000 0.083Z" fill="silver" stroke="gray" stroke-width="0.005"/><g fill="none" stroke="purple" stroke-width="0.002"><path d="M0.083 0.000L0.167 0.083"/><path d="M0.000 0.083L0.000 0.583"/><path d="M0.083 0.167L0.083 0.417"/><path d="M0.167 0.083L0.167 0.583"/><path d="M0.000 0.083L0.333 0.417"/><path d="M0.000 0.250L0.333 0.583"/><path d="M0.083 0.000L0.000 0.083"/><path d="M0.167 0.083L0.000 0.250"/><path d="M0.167 0.250L0.000 0.417"/><path d="M0.000 0.417L0.333 0.417"/><path d="M0.000 0.583L0.333 0.583"/></g></svg>