<svg xmlns="http://www.w3.org/2000/svg" xmlns:xlink="http://www.w3.org/1999/xlink" width="300px" height="300px" viewBox="0.000 0.000 1.000 1.000"><rect x="0" y="0" width="1" height="1" fill="none" stroke="blue" stroke-width="0.005"/><path d="M 0.000 0.000 L 0.125 0.000 L 0.125 0.125 L 0.188 0.125 L 0.312 0.250 L 0.312 0.312 L 0.188 0.438 L 0.000 0.438 Z" fill="silver" stroke="gray" stroke-width="0.005"/><path d="M 0.125 0.250 L 0.125 0.312 L 0.188 0.312 L 0.188 0.250 Z" fill="white" stroke="black" stroke-width="0.005"/><path d="M 0.188 0.125 L 0.312 0.250" fill="none" stroke="purple" stroke-width="0.002"/><path d="M 0.000 0.000 L 0.125 0.000" fill="none" stroke="purple" stroke-width="0.002"/><path d="M 0.000 0.000 L 0.000 0.438" fill="none" stroke="purple" stroke-width="0.002"/><path d="M 0.125 0.000 L 0.125 0.438" fill="none" stroke="purple" stroke-width="0.002"/><path d="M 0.188 0.125 L 0.188 0.438" fill="none" stroke="purple" stroke-width="0.002"/><path d="M 0.312 0.250 L 0.312 0.312" fill="none" stroke="purple" stroke-width="0.002"/><path d="M 0.125 0.125 L 0.188 0.125" fill="none" stroke="purple" stroke-width="0.002"/><path d="M 0.125 0.312 L 0.000 0.438" fill="none" stroke="purple" stroke-width="0.002"/><path d="M 0.125 0.250 L 0.312 0.250" fill="none" stroke="purple" stroke-width="0.002"/><path d="M 0.125 0.312 L 0.312 0.312" fill="none" stroke="purple" stroke-width="0.002"/><path d="M 0.312 0.312 L 0.188 0.438" fill="none" stroke="purple" stroke-width="0.002"/><path d="M 0.000 0.438 L 0.188 0.438" fill="none" stroke="purple" stroke-width="0.002"/></svg>