<svg xmlns="http://www.w3.org/2000/svg" xmlns:xlink="http://www.w3.org/1999/xlink" width="400px" height="400px" viewBox="0.000 0.000 0.312 0.438"><path d="M0.000 0.000L0.125 0.000L0.125 0.125L0.188 0.125L0.312 0.250L0.312 0.312L0.188 0.438L0.000 0.438Z" fill="silver" stroke="gray" stroke-width="0.005"/><path d="M0.125 0.250L0.125 0.312L0.188 0.312L0.188 0.250Z" fill="white" stroke="black" stroke-width="0.005"/><g fill="none" stroke="purple" stroke-width="0.002"><path d="M0.188 0.125L0.312 0.250"/><path d="M0.000 0.000L0.125 0.000"/><path d="M0.000 0.000L0.000 0.438"/><path d="M0.125 0.000L0.125 0.438"/><path d="M0.188 0.125L0.188 0.438"/><path d="M0.312 0.250L0.312 0.312"/><path d="M0.125 0.125L0.188 0.125"/><path d="M0.125 0.312L0.000 0.438"/><path d="M0.125 0.250L0.312 0.250"/><path d="M0.125 0.312L0.312 0.312"/><path d="M0.312 0.312L0.188 0.438"/><path d="M0.000 0.438L0.188 0.438"/></g></svg>