<svg xmlns="http://www.w3.org/2000/svg" xmlns:xlink="http://www.w3.org/1999/xlink" width="300px" height="300px" viewBox="-0.057 0.000 1.257 1.000"><rect x="0" y="0" width="1" height="1" fill="none" stroke="blue" stroke-width="0.005"/><path d="M 0.000 0.095 L 1.087 0.458 L 1.200 0.644 L 1.000 0.766 L 0.822 0.666 L 0.743 0.771 L 0.590 0.657 L 0.361 0.749 L 0.210 0.372 L -0.057 0.171 Z" fill="silver" stroke="gray" stroke-width="0.005"/><path d="M 1.087 0.458 L 1.200 0.644" fill="none" stroke="purple" stroke-width="0.002"/><path d="M 0.115 0.133 L 0.361 0.749" fill="none" stroke="purple" stroke-width="0.002"/><path d="M 0.000 0.095 L 0.000 0.203" fill="none" stroke="purple" stroke-width="0.002"/><path d="M 1.000 0.429 L 1.000 0.766" fill="none" stroke="purple" stroke-width="0.002"/><path d="M 0.000 0.095 L -0.057 0.171" fill="none" stroke="purple" stroke-width="0.002"/><path d="M 0.000 0.095 L 1.087 0.458" fill="none" stroke="purple" stroke-width="0.002"/><path d="M -0.057 0.171 L 0.743 0.771" fill="none" stroke="purple" stroke-width="0.002"/><path d="M 0.115 0.133 L 0.000 0.203" fill="none" stroke="purple" stroke-width="0.002"/><path d="M 0.000 0.203 L 1.000 0.766" fill="none" stroke="purple" stroke-width="0.002"/><path d="M 1.000 0.429 L 0.743 0.771" fill="none" stroke="purple" stroke-width="0.002"/><path d="M 1.087 0.458 L 0.361 0.749" fill="none" stroke="purple" stroke-width="0.002"/><path d="M 1.200 0.644 L 1.000 0.766" fill="none" stroke="purple" stroke-width="0.002"/></svg>