<svg xmlns="http://www.w3.org/2000/svg" xmlns:xlink="http://www.w3.org/1999/xlink" width="400px" height="400px" viewBox="0.000 0.000 1.257 0.676"><path d="M0.057 0.000L1.144 0.362L1.257 0.549L1.057 0.670L0.879 0.570L0.800 0.676L0.647 0.562L0.418 0.653L0.267 0.277L0.000 0.076Z" fill="silver" stroke="gray" stroke-width="0.005"/><g fill="none" stroke="purple" stroke-width="0.002"><path d="M1.144 0.362L1.257 0.549"/><path d="M0.172 0.038L0.418 0.653"/><path d="M0.057 0.000L0.057 0.108"/><path d="M1.057 0.333L1.057 0.670"/><path d="M0.057 0.000L0.000 0.076"/><path d="M0.057 0.000L1.144 0.362"/><path d="M0.000 0.076L0.800 0.676"/><path d="M0.172 0.038L0.057 0.108"/><path d="M0.057 0.108L1.057 0.670"/><path d="M1.057 0.333L0.800 0.676"/><path d="M1.144 0.362L0.418 0.653"/><path d="M1.257 0.549L1.057 0.670"/></g></svg>