<svg xmlns="http://www.w3.org/2000/svg" xmlns:xlink="http://www.w3.org/1999/xlink" width="400px" height="400px" viewBox="0.000 0.000 1.327 0.579"><path d="M0.000 0.000L1.000 0.000L1.000 0.039L1.102 0.036L1.327 0.315L1.000 0.579L0.000 0.102Z" fill="silver" stroke="gray" stroke-width="0.005"/><g fill="none" stroke="purple" stroke-width="0.002"><path d="M1.102 0.036L1.327 0.315"/><path d="M0.000 0.000L1.000 0.000"/><path d="M0.000 0.000L0.000 0.102"/><path d="M1.000 0.000L1.000 0.579"/><path d="M0.039 0.071L0.256 0.224"/><path d="M0.039 0.071L0.000 0.102"/><path d="M1.102 0.036L0.039 0.071"/><path d="M0.000 0.102L1.000 0.579"/><path d="M0.256 0.224L0.816 0.383"/><path d="M0.816 0.383L0.789 0.479"/><path d="M1.102 0.036L0.789 0.479"/><path d="M1.327 0.315L1.000 0.579"/></g></svg>