<svg xmlns="http://www.w3.org/2000/svg" xmlns:xlink="http://www.w3.org/1999/xlink" width="300px" height="300px" viewBox="0.000 0.000 1.327 1.000"><rect x="0" y="0" width="1" height="1" fill="none" stroke="blue" stroke-width="0.005"/><path d="M 0.000 0.000 L 1.000 0.000 L 1.000 0.039 L 1.102 0.036 L 1.327 0.315 L 1.000 0.579 L 0.000 0.102 Z" fill="silver" stroke="gray" stroke-width="0.005"/><path d="M 1.102 0.036 L 1.327 0.315" fill="none" stroke="purple" stroke-width="0.002"/><path d="M 0.000 0.000 L 1.000 0.000" fill="none" stroke="purple" stroke-width="0.002"/><path d="M 0.000 0.000 L 0.000 0.102" fill="none" stroke="purple" stroke-width="0.002"/><path d="M 1.000 0.000 L 1.000 0.579" fill="none" stroke="purple" stroke-width="0.002"/><path d="M 0.039 0.071 L 0.256 0.224" fill="none" stroke="purple" stroke-width="0.002"/><path d="M 0.039 0.071 L 0.000 0.102" fill="none" stroke="purple" stroke-width="0.002"/><path d="M 1.102 0.036 L 0.039 0.071" fill="none" stroke="purple" stroke-width="0.002"/><path d="M 0.000 0.102 L 1.000 0.579" fill="none" stroke="purple" stroke-width="0.002"/><path d="M 0.256 0.224 L 0.816 0.383" fill="none" stroke="purple" stroke-width="0.002"/><path d="M 0.816 0.383 L 0.789 0.479" fill="none" stroke="purple" stroke-width="0.002"/><path d="M 1.102 0.036 L 0.789 0.479" fill="none" stroke="purple" stroke-width="0.002"/><path d="M 1.327 0.315 L 1.000 0.579" fill="none" stroke="purple" stroke-width="0.002"/></svg>