<svg xmlns="http://www.w3.org/2000/svg" xmlns:xlink="http://www.w3.org/1999/xlink" width="300px" height="300px" viewBox="-0.476 -0.022 1.476 1.022"><rect x="0" y="0" width="1" height="1" fill="none" stroke="blue" stroke-width="0.005"/><path d="M -0.073 -0.022 L 0.281 0.692 L 0.174 1.000 L 0.000 1.000 L 0.000 0.977 L -0.407 0.983 L -0.414 0.538 L -0.476 0.489 L -0.416 0.413 L -0.422 -0.017 Z" fill="silver" stroke="gray" stroke-width="0.005"/><path d="M -0.073 -0.022 L -0.476 0.489" fill="none" stroke="purple" stroke-width="0.002"/><path d="M -0.073 -0.022 L -0.422 -0.017" fill="none" stroke="purple" stroke-width="0.002"/><path d="M 0.000 0.825 L 0.000 1.000" fill="none" stroke="purple" stroke-width="0.002"/><path d="M -0.422 -0.017 L -0.407 0.983" fill="none" stroke="purple" stroke-width="0.002"/><path d="M -0.073 -0.022 L 0.281 0.692" fill="none" stroke="purple" stroke-width="0.002"/><path d="M 0.281 0.692 L 0.174 1.000" fill="none" stroke="purple" stroke-width="0.002"/><path d="M 0.000 0.825 L 0.183 0.974" fill="none" stroke="purple" stroke-width="0.002"/><path d="M -0.476 0.489 L 0.174 1.000" fill="none" stroke="purple" stroke-width="0.002"/><path d="M 0.281 0.692 L 0.000 0.825" fill="none" stroke="purple" stroke-width="0.002"/><path d="M 0.183 0.974 L -0.407 0.983" fill="none" stroke="purple" stroke-width="0.002"/><path d="M 0.000 1.000 L 0.174 1.000" fill="none" stroke="purple" stroke-width="0.002"/></svg>