<svg xmlns="http://www.w3.org/2000/svg" xmlns:xlink="http://www.w3.org/1999/xlink" width="400px" height="400px" viewBox="0.000 0.000 0.756 1.022"><path d="M0.402 0.000L0.756 0.714L0.649 1.022L0.476 1.022L0.476 0.999L0.069 1.005L0.062 0.560L0.000 0.512L0.060 0.435L0.053 0.005Z" fill="silver" stroke="gray" stroke-width="0.005"/><g fill="none" stroke="purple" stroke-width="0.002"><path d="M0.402 0.000L0.000 0.512"/><path d="M0.402 0.000L0.053 0.005"/><path d="M0.476 0.848L0.476 1.022"/><path d="M0.053 0.005L0.069 1.005"/><path d="M0.402 0.000L0.756 0.714"/><path d="M0.756 0.714L0.649 1.022"/><path d="M0.476 0.848L0.658 0.996"/><path d="M0.000 0.512L0.649 1.022"/><path d="M0.756 0.714L0.476 0.848"/><path d="M0.658 0.996L0.069 1.005"/><path d="M0.476 1.022L0.649 1.022"/></g></svg>