<svg xmlns="http://www.w3.org/2000/svg" xmlns:xlink="http://www.w3.org/1999/xlink" width="300px" height="300px" viewBox="0.000 0.000 1.979 1.776"><rect x="0" y="0" width="1" height="1" fill="none" stroke="blue" stroke-width="0.005"/><path d="M 1.652 0.507 L 1.979 1.452 L 1.125 1.776 L 0.830 1.000 L 1.000 0.754 L 1.599 0.527 L 1.598 0.524 Z" fill="silver" stroke="gray" stroke-width="0.005"/><path d="M 1.652 0.507 L 1.979 1.452" fill="none" stroke="purple" stroke-width="0.002"/><path d="M 1.598 0.524 L 1.897 1.478" fill="none" stroke="purple" stroke-width="0.002"/><path d="M 0.830 1.000 L 1.125 1.776" fill="none" stroke="purple" stroke-width="0.002"/><path d="M 1.000 0.754 L 1.000 1.000" fill="none" stroke="purple" stroke-width="0.002"/><path d="M 1.000 0.754 L 0.830 1.000" fill="none" stroke="purple" stroke-width="0.002"/><path d="M 1.652 0.507 L 1.598 0.524" fill="none" stroke="purple" stroke-width="0.002"/><path d="M 1.652 0.507 L 1.000 0.754" fill="none" stroke="purple" stroke-width="0.002"/><path d="M 0.830 1.000 L 1.000 1.000" fill="none" stroke="purple" stroke-width="0.002"/><path d="M 1.979 1.452 L 1.897 1.478" fill="none" stroke="purple" stroke-width="0.002"/><path d="M 1.979 1.452 L 1.125 1.776" fill="none" stroke="purple" stroke-width="0.002"/></svg>