<svg xmlns="http://www.w3.org/2000/svg" xmlns:xlink="http://www.w3.org/1999/xlink" width="400px" height="400px" viewBox="0.000 0.000 1.145 0.634"><path d="M0.968 0.000L1.012 0.168L1.099 0.151L1.145 0.262L1.099 0.281L1.099 0.507L0.099 0.634L0.000 0.250Z" fill="silver" stroke="gray" stroke-width="0.005"/><g fill="none" stroke="purple" stroke-width="0.002"><path d="M1.099 0.151L1.145 0.262"/><path d="M0.968 0.000L1.099 0.507"/><path d="M0.099 0.351L0.099 0.634"/><path d="M1.099 0.151L1.099 0.507"/><path d="M0.215 0.592L0.211 0.620"/><path d="M0.000 0.250L0.099 0.634"/><path d="M0.099 0.351L0.211 0.620"/><path d="M0.968 0.000L0.000 0.250"/><path d="M1.099 0.151L0.099 0.351"/><path d="M0.215 0.592L0.318 0.606"/><path d="M1.145 0.262L0.318 0.606"/><path d="M1.099 0.507L0.099 0.634"/></g></svg>