<svg xmlns="http://www.w3.org/2000/svg" xmlns:xlink="http://www.w3.org/1999/xlink" width="300px" height="300px" viewBox="-0.099 -0.031 1.145 1.031"><rect x="0" y="0" width="1" height="1" fill="none" stroke="blue" stroke-width="0.005"/><path d="M 0.869 -0.031 L 0.913 0.137 L 1.000 0.120 L 1.046 0.231 L 1.000 0.250 L 1.000 0.476 L 0.000 0.603 L -0.099 0.219 Z" fill="silver" stroke="gray" stroke-width="0.005"/><path d="M 1.000 0.120 L 1.046 0.231" fill="none" stroke="purple" stroke-width="0.002"/><path d="M 0.869 -0.031 L 1.000 0.476" fill="none" stroke="purple" stroke-width="0.002"/><path d="M 0.000 0.320 L 0.000 0.603" fill="none" stroke="purple" stroke-width="0.002"/><path d="M 1.000 0.120 L 1.000 0.476" fill="none" stroke="purple" stroke-width="0.002"/><path d="M 0.116 0.561 L 0.112 0.589" fill="none" stroke="purple" stroke-width="0.002"/><path d="M -0.099 0.219 L 0.000 0.603" fill="none" stroke="purple" stroke-width="0.002"/><path d="M 0.000 0.320 L 0.112 0.589" fill="none" stroke="purple" stroke-width="0.002"/><path d="M 0.869 -0.031 L -0.099 0.219" fill="none" stroke="purple" stroke-width="0.002"/><path d="M 1.000 0.120 L 0.000 0.320" fill="none" stroke="purple" stroke-width="0.002"/><path d="M 0.116 0.561 L 0.219 0.575" fill="none" stroke="purple" stroke-width="0.002"/><path d="M 1.046 0.231 L 0.219 0.575" fill="none" stroke="purple" stroke-width="0.002"/><path d="M 1.000 0.476 L 0.000 0.603" fill="none" stroke="purple" stroke-width="0.002"/></svg>