<svg xmlns="http://www.w3.org/2000/svg" xmlns:xlink="http://www.w3.org/1999/xlink" width="400px" height="400px" viewBox="0.000 0.000 0.895 1.068"><path d="M0.692 0.000L0.857 0.000L0.857 0.658L0.895 0.810L0.857 0.819L0.857 1.000L0.137 1.000L0.090 1.012L0.093 1.018L0.069 1.068L0.000 1.034L0.017 0.865Z" fill="silver" stroke="gray" stroke-width="0.005"/><g fill="none" stroke="purple" stroke-width="0.002"><path d="M0.692 0.000L0.895 0.810"/><path d="M0.692 0.000L0.857 0.000"/><path d="M0.857 0.000L0.857 1.000"/><path d="M0.017 0.865L0.000 1.034"/><path d="M0.017 0.865L0.093 1.018"/><path d="M0.093 1.018L0.069 1.068"/><path d="M0.692 0.000L0.017 0.865"/><path d="M0.000 1.034L0.069 1.068"/><path d="M0.004 1.000L0.093 1.018"/><path d="M0.004 1.000L0.857 1.000"/><path d="M0.895 0.810L0.000 1.034"/></g></svg>