<svg xmlns="http://www.w3.org/2000/svg" xmlns:xlink="http://www.w3.org/1999/xlink" width="300px" height="300px" viewBox="0.000 0.000 1.038 1.068"><rect x="0" y="0" width="1" height="1" fill="none" stroke="blue" stroke-width="0.005"/><path d="M 0.835 0.000 L 1.000 0.000 L 1.000 0.658 L 1.038 0.810 L 1.000 0.819 L 1.000 1.000 L 0.280 1.000 L 0.232 1.012 L 0.236 1.018 L 0.212 1.068 L 0.143 1.034 L 0.160 0.865 Z" fill="silver" stroke="gray" stroke-width="0.005"/><path d="M 0.835 0.000 L 1.038 0.810" fill="none" stroke="purple" stroke-width="0.002"/><path d="M 0.835 0.000 L 1.000 0.000" fill="none" stroke="purple" stroke-width="0.002"/><path d="M 1.000 0.000 L 1.000 1.000" fill="none" stroke="purple" stroke-width="0.002"/><path d="M 0.160 0.865 L 0.143 1.034" fill="none" stroke="purple" stroke-width="0.002"/><path d="M 0.160 0.865 L 0.236 1.018" fill="none" stroke="purple" stroke-width="0.002"/><path d="M 0.236 1.018 L 0.212 1.068" fill="none" stroke="purple" stroke-width="0.002"/><path d="M 0.835 0.000 L 0.160 0.865" fill="none" stroke="purple" stroke-width="0.002"/><path d="M 0.143 1.034 L 0.212 1.068" fill="none" stroke="purple" stroke-width="0.002"/><path d="M 0.146 1.000 L 0.236 1.018" fill="none" stroke="purple" stroke-width="0.002"/><path d="M 0.146 1.000 L 1.000 1.000" fill="none" stroke="purple" stroke-width="0.002"/><path d="M 1.038 0.810 L 0.143 1.034" fill="none" stroke="purple" stroke-width="0.002"/></svg>