<svg xmlns="http://www.w3.org/2000/svg" xmlns:xlink="http://www.w3.org/1999/xlink" width="300px" height="300px" viewBox="0.000 0.000 1.000 1.201"><rect x="0" y="0" width="1" height="1" fill="none" stroke="blue" stroke-width="0.005"/><path d="M 0.237 0.000 L 0.272 0.000 L 0.362 0.125 L 0.591 1.000 L 0.257 1.188 L 0.245 1.201 L 0.241 1.197 L 0.263 1.000 L 0.000 1.000 L 0.000 0.264 Z" fill="silver" stroke="gray" stroke-width="0.005"/><path d="M 0.272 0.000 L 0.362 0.125" fill="none" stroke="purple" stroke-width="0.002"/><path d="M 0.362 0.125 L 0.591 1.000" fill="none" stroke="purple" stroke-width="0.002"/><path d="M 0.237 0.000 L 0.262 0.236" fill="none" stroke="purple" stroke-width="0.002"/><path d="M 0.237 0.000 L 0.272 0.000" fill="none" stroke="purple" stroke-width="0.002"/><path d="M 0.000 0.264 L 0.000 1.000" fill="none" stroke="purple" stroke-width="0.002"/><path d="M 0.362 0.125 L 0.241 1.197" fill="none" stroke="purple" stroke-width="0.002"/><path d="M 0.272 0.000 L 0.043 0.691" fill="none" stroke="purple" stroke-width="0.002"/><path d="M 0.237 0.000 L 0.000 0.264" fill="none" stroke="purple" stroke-width="0.002"/><path d="M 0.262 0.236 L 0.000 0.264" fill="none" stroke="purple" stroke-width="0.002"/><path d="M 0.241 1.197 L 0.245 1.201" fill="none" stroke="purple" stroke-width="0.002"/><path d="M 0.043 0.691 L 0.555 0.861" fill="none" stroke="purple" stroke-width="0.002"/><path d="M 0.555 0.861 L 0.245 1.201" fill="none" stroke="purple" stroke-width="0.002"/><path d="M 0.000 1.000 L 0.591 1.000" fill="none" stroke="purple" stroke-width="0.002"/><path d="M 0.591 1.000 L 0.241 1.197" fill="none" stroke="purple" stroke-width="0.002"/></svg>