<svg xmlns="http://www.w3.org/2000/svg" xmlns:xlink="http://www.w3.org/1999/xlink" width="300px" height="300px" viewBox="-1.156 -0.305 2.156 1.305"><rect x="0" y="0" width="1" height="1" fill="none" stroke="blue" stroke-width="0.005"/><path d="M -0.289 -0.305 L -0.179 -0.114 L 0.092 0.000 L 0.030 0.309 L -1.051 0.376 L -1.156 0.193 L -0.916 0.055 L -0.831 -0.147 L -0.472 -0.200 Z" fill="silver" stroke="gray" stroke-width="0.005"/><path d="M -0.289 -0.305 L -1.156 0.193" fill="none" stroke="purple" stroke-width="0.002"/><path d="M -0.406 -0.210 L -0.688 0.025" fill="none" stroke="purple" stroke-width="0.002"/><path d="M -0.831 -0.147 L -1.051 0.376" fill="none" stroke="purple" stroke-width="0.002"/><path d="M -0.406 -0.210 L -0.831 -0.147" fill="none" stroke="purple" stroke-width="0.002"/><path d="M -0.406 -0.210 L 0.092 0.000" fill="none" stroke="purple" stroke-width="0.002"/><path d="M 0.000 0.000 L 0.092 0.000" fill="none" stroke="purple" stroke-width="0.002"/><path d="M 0.000 0.000 L 0.000 0.311" fill="none" stroke="purple" stroke-width="0.002"/><path d="M -0.018 0.165 L 0.000 0.311" fill="none" stroke="purple" stroke-width="0.002"/><path d="M 0.092 0.000 L 0.030 0.309" fill="none" stroke="purple" stroke-width="0.002"/><path d="M -0.018 0.165 L 0.030 0.309" fill="none" stroke="purple" stroke-width="0.002"/><path d="M -0.289 -0.305 L -0.018 0.165" fill="none" stroke="purple" stroke-width="0.002"/><path d="M 0.030 0.309 L -1.051 0.376" fill="none" stroke="purple" stroke-width="0.002"/><path d="M -0.831 -0.147 L -0.688 0.025" fill="none" stroke="purple" stroke-width="0.002"/><path d="M -1.156 0.193 L -1.051 0.376" fill="none" stroke="purple" stroke-width="0.002"/></svg>