<svg xmlns="http://www.w3.org/2000/svg" xmlns:xlink="http://www.w3.org/1999/xlink" width="400px" height="400px" viewBox="0.000 0.000 1.248 0.681"><path d="M0.867 0.000L0.977 0.191L1.248 0.305L1.186 0.614L0.105 0.681L0.000 0.499L0.240 0.361L0.325 0.159L0.683 0.106Z" fill="silver" stroke="gray" stroke-width="0.005"/><g fill="none" stroke="purple" stroke-width="0.002"><path d="M0.867 0.000L0.000 0.499"/><path d="M0.750 0.096L0.467 0.330"/><path d="M0.325 0.159L0.105 0.681"/><path d="M0.750 0.096L0.325 0.159"/><path d="M0.750 0.096L1.248 0.305"/><path d="M1.156 0.305L1.248 0.305"/><path d="M1.156 0.305L1.156 0.616"/><path d="M1.138 0.471L1.156 0.616"/><path d="M1.248 0.305L1.186 0.614"/><path d="M1.138 0.471L1.186 0.614"/><path d="M0.867 0.000L1.138 0.471"/><path d="M1.186 0.614L0.105 0.681"/><path d="M0.325 0.159L0.467 0.330"/><path d="M0.000 0.499L0.105 0.681"/></g></svg>