<svg xmlns="http://www.w3.org/2000/svg" xmlns:xlink="http://www.w3.org/1999/xlink" width="400px" height="400px" viewBox="0.000 0.000 0.993 0.658"><path d="M0.045 0.000L0.353 0.103L0.408 0.098L0.429 0.066L0.944 0.290L0.949 0.302L0.993 0.317L0.977 0.366L0.762 0.376L0.458 0.658L0.320 0.508L0.348 0.395L0.210 0.401L0.000 0.135Z" fill="silver" stroke="gray" stroke-width="0.005"/><g fill="none" stroke="purple" stroke-width="0.002"><path d="M0.944 0.290L0.977 0.366"/><path d="M0.486 0.091L0.712 0.383"/><path d="M0.873 0.259L0.883 0.371"/><path d="M0.883 0.264L0.883 0.371"/><path d="M0.045 0.000L0.000 0.135"/><path d="M0.000 0.135L0.210 0.401"/><path d="M0.429 0.066L0.944 0.290"/><path d="M0.429 0.066L0.320 0.508"/><path d="M0.320 0.508L0.458 0.658"/><path d="M0.045 0.000L0.993 0.317"/><path d="M0.429 0.066L0.210 0.401"/><path d="M0.993 0.317L0.977 0.366"/><path d="M0.486 0.091L0.000 0.135"/><path d="M0.977 0.366L0.210 0.401"/><path d="M0.883 0.264L0.458 0.658"/><path d="M0.873 0.259L0.712 0.383"/><path d="M0.944 0.290L0.320 0.508"/></g></svg>