<svg xmlns="http://www.w3.org/2000/svg" xmlns:xlink="http://www.w3.org/1999/xlink" width="300px" height="300px" viewBox="0.000 -0.114 1.000 1.114"><rect x="0" y="0" width="1" height="1" fill="none" stroke="blue" stroke-width="0.005"/><path d="M 0.290 -0.114 L 0.620 -0.026 L 0.585 0.952 L 0.169 0.939 L 0.169 0.909 L 0.171 0.909 L 0.173 0.890 L 0.033 0.852 L 0.228 0.118 L 0.239 -0.027 L 0.266 -0.025 Z" fill="silver" stroke="gray" stroke-width="0.005"/><path d="M 0.290 -0.114 L 0.620 -0.026" fill="none" stroke="purple" stroke-width="0.002"/><path d="M 0.482 0.000 L 0.572 0.952" fill="none" stroke="purple" stroke-width="0.002"/><path d="M 0.239 -0.027 L 0.619 0.000" fill="none" stroke="purple" stroke-width="0.002"/><path d="M 0.169 0.909 L 0.169 0.939" fill="none" stroke="purple" stroke-width="0.002"/><path d="M 0.482 0.000 L 0.619 0.000" fill="none" stroke="purple" stroke-width="0.002"/><path d="M 0.239 -0.027 L 0.169 0.939" fill="none" stroke="purple" stroke-width="0.002"/><path d="M 0.620 -0.026 L 0.585 0.952" fill="none" stroke="purple" stroke-width="0.002"/><path d="M 0.290 -0.114 L 0.033 0.852" fill="none" stroke="purple" stroke-width="0.002"/><path d="M 0.620 -0.026 L 0.482 0.000" fill="none" stroke="purple" stroke-width="0.002"/><path d="M 0.580 0.904 L 0.572 0.952" fill="none" stroke="purple" stroke-width="0.002"/><path d="M 0.580 0.904 L 0.586 0.906" fill="none" stroke="purple" stroke-width="0.002"/><path d="M 0.033 0.852 L 0.386 0.946" fill="none" stroke="purple" stroke-width="0.002"/><path d="M 0.580 0.904 L 0.586 0.905" fill="none" stroke="purple" stroke-width="0.002"/><path d="M 0.586 0.905 L 0.169 0.909" fill="none" stroke="purple" stroke-width="0.002"/><path d="M 0.572 0.952 L 0.585 0.952" fill="none" stroke="purple" stroke-width="0.002"/><path d="M 0.169 0.939 L 0.585 0.952" fill="none" stroke="purple" stroke-width="0.002"/><path d="M 0.586 0.906 L 0.386 0.946" fill="none" stroke="purple" stroke-width="0.002"/></svg>