<svg xmlns="http://www.w3.org/2000/svg" xmlns:xlink="http://www.w3.org/1999/xlink" width="400px" height="400px" viewBox="0.000 0.000 0.483 1.093"><path d="M0.052 0.000L0.058 0.011L0.122 0.011L0.138 0.103L0.227 0.146L0.173 0.260L0.483 0.931L0.417 0.982L0.392 0.950L0.285 0.973L0.291 1.011L0.274 1.017L0.265 1.093L0.112 1.073L0.000 0.011Z" fill="silver" stroke="gray" stroke-width="0.005"/><g fill="none" stroke="purple" stroke-width="0.002"><path d="M0.052 0.000L0.483 0.931"/><path d="M0.003 0.038L0.227 0.146"/><path d="M0.016 0.161L0.152 0.296"/><path d="M0.122 0.011L0.291 1.011"/><path d="M0.000 0.011L0.112 1.073"/><path d="M0.053 0.511L0.417 0.982"/><path d="M0.004 0.052L0.081 0.062"/><path d="M0.000 0.011L0.122 0.011"/><path d="M0.052 0.000L0.000 0.011"/><path d="M0.042 0.407L0.327 0.594"/><path d="M0.327 0.594L0.265 1.093"/><path d="M0.122 0.011L0.004 0.052"/><path d="M0.052 0.000L0.003 0.038"/><path d="M0.081 0.062L0.016 0.161"/><path d="M0.227 0.146L0.053 0.511"/><path d="M0.152 0.296L0.042 0.407"/><path d="M0.483 0.931L0.417 0.982"/><path d="M0.112 1.073L0.265 1.093"/><path d="M0.105 1.011L0.291 1.011"/><path d="M0.483 0.931L0.105 1.011"/><path d="M0.291 1.011L0.112 1.073"/></g></svg>