<svg xmlns="http://www.w3.org/2000/svg" xmlns:xlink="http://www.w3.org/1999/xlink" width="300px" height="300px" viewBox="0.000 -0.011 1.000 1.093"><rect x="0" y="0" width="1" height="1" fill="none" stroke="blue" stroke-width="0.005"/><path d="M 0.418 -0.011 L 0.423 0.000 L 0.487 0.000 L 0.503 0.092 L 0.593 0.135 L 0.538 0.249 L 0.849 0.919 L 0.782 0.971 L 0.757 0.939 L 0.650 0.962 L 0.656 1.000 L 0.640 1.006 L 0.630 1.081 L 0.477 1.062 L 0.365 0.000 Z" fill="silver" stroke="gray" stroke-width="0.005"/><path d="M 0.418 -0.011 L 0.849 0.919" fill="none" stroke="purple" stroke-width="0.002"/><path d="M 0.368 0.027 L 0.593 0.135" fill="none" stroke="purple" stroke-width="0.002"/><path d="M 0.381 0.150 L 0.517 0.285" fill="none" stroke="purple" stroke-width="0.002"/><path d="M 0.487 0.000 L 0.656 1.000" fill="none" stroke="purple" stroke-width="0.002"/><path d="M 0.365 0.000 L 0.477 1.062" fill="none" stroke="purple" stroke-width="0.002"/><path d="M 0.418 0.499 L 0.782 0.971" fill="none" stroke="purple" stroke-width="0.002"/><path d="M 0.370 0.041 L 0.446 0.051" fill="none" stroke="purple" stroke-width="0.002"/><path d="M 0.365 0.000 L 0.487 0.000" fill="none" stroke="purple" stroke-width="0.002"/><path d="M 0.418 -0.011 L 0.365 0.000" fill="none" stroke="purple" stroke-width="0.002"/><path d="M 0.407 0.396 L 0.693 0.583" fill="none" stroke="purple" stroke-width="0.002"/><path d="M 0.693 0.583 L 0.630 1.081" fill="none" stroke="purple" stroke-width="0.002"/><path d="M 0.487 0.000 L 0.370 0.041" fill="none" stroke="purple" stroke-width="0.002"/><path d="M 0.418 -0.011 L 0.368 0.027" fill="none" stroke="purple" stroke-width="0.002"/><path d="M 0.446 0.051 L 0.381 0.150" fill="none" stroke="purple" stroke-width="0.002"/><path d="M 0.593 0.135 L 0.418 0.499" fill="none" stroke="purple" stroke-width="0.002"/><path d="M 0.517 0.285 L 0.407 0.396" fill="none" stroke="purple" stroke-width="0.002"/><path d="M 0.849 0.919 L 0.782 0.971" fill="none" stroke="purple" stroke-width="0.002"/><path d="M 0.477 1.062 L 0.630 1.081" fill="none" stroke="purple" stroke-width="0.002"/><path d="M 0.471 1.000 L 0.656 1.000" fill="none" stroke="purple" stroke-width="0.002"/><path d="M 0.849 0.919 L 0.471 1.000" fill="none" stroke="purple" stroke-width="0.002"/><path d="M 0.656 1.000 L 0.477 1.062" fill="none" stroke="purple" stroke-width="0.002"/></svg>