<svg xmlns="http://www.w3.org/2000/svg" xmlns:xlink="http://www.w3.org/1999/xlink" width="300px" height="300px" viewBox="-0.082 0.000 1.082 1.291"><rect x="0" y="0" width="1" height="1" fill="none" stroke="blue" stroke-width="0.005"/><path d="M -0.020 0.623 L 1.000 0.976 L 1.000 1.000 L 0.981 1.000 L 0.922 1.076 L 0.911 1.143 L 0.873 1.138 L 0.753 1.291 L 0.415 1.066 L 0.152 1.024 L -0.047 0.797 L -0.041 0.762 L -0.082 0.735 Z" fill="silver" stroke="gray" stroke-width="0.005"/><path d="M 0.147 0.793 L 0.152 1.024" fill="none" stroke="purple" stroke-width="0.002"/><path d="M 0.000 0.630 L 0.000 0.851" fill="none" stroke="purple" stroke-width="0.002"/><path d="M 1.000 0.976 L 1.000 1.000" fill="none" stroke="purple" stroke-width="0.002"/><path d="M -0.020 0.623 L -0.047 0.797" fill="none" stroke="purple" stroke-width="0.002"/><path d="M 0.148 0.871 L 0.130 1.000" fill="none" stroke="purple" stroke-width="0.002"/><path d="M -0.020 0.623 L -0.082 0.735" fill="none" stroke="purple" stroke-width="0.002"/><path d="M 0.940 0.955 L 0.911 1.143" fill="none" stroke="purple" stroke-width="0.002"/><path d="M 0.000 0.630 L -0.082 0.735" fill="none" stroke="purple" stroke-width="0.002"/><path d="M -0.047 0.797 L 0.152 1.024" fill="none" stroke="purple" stroke-width="0.002"/><path d="M -0.082 0.735 L 0.753 1.291" fill="none" stroke="purple" stroke-width="0.002"/><path d="M -0.020 0.623 L 1.000 0.976" fill="none" stroke="purple" stroke-width="0.002"/><path d="M 0.940 0.955 L 0.753 1.291" fill="none" stroke="purple" stroke-width="0.002"/><path d="M 0.147 0.793 L -0.047 0.797" fill="none" stroke="purple" stroke-width="0.002"/><path d="M 0.000 0.851 L 0.148 0.871" fill="none" stroke="purple" stroke-width="0.002"/><path d="M 1.000 0.976 L 0.753 1.291" fill="none" stroke="purple" stroke-width="0.002"/><path d="M 0.152 1.024 L 0.911 1.143" fill="none" stroke="purple" stroke-width="0.002"/><path d="M 0.130 1.000 L 1.000 1.000" fill="none" stroke="purple" stroke-width="0.002"/></svg>