<svg xmlns="http://www.w3.org/2000/svg" xmlns:xlink="http://www.w3.org/1999/xlink" width="400px" height="400px" viewBox="0.000 0.000 1.082 0.668"><path d="M0.062 0.000L1.082 0.353L1.082 0.377L1.063 0.377L1.004 0.452L0.993 0.520L0.955 0.514L0.835 0.668L0.497 0.442L0.234 0.401L0.035 0.174L0.041 0.138L0.000 0.111Z" fill="silver" stroke="gray" stroke-width="0.005"/><g fill="none" stroke="purple" stroke-width="0.002"><path d="M0.229 0.170L0.234 0.401"/><path d="M0.082 0.007L0.082 0.228"/><path d="M1.082 0.353L1.082 0.377"/><path d="M0.062 0.000L0.035 0.174"/><path d="M0.230 0.247L0.212 0.377"/><path d="M0.062 0.000L0.000 0.111"/><path d="M1.022 0.332L0.993 0.520"/><path d="M0.082 0.007L0.000 0.111"/><path d="M0.035 0.174L0.234 0.401"/><path d="M0.000 0.111L0.835 0.668"/><path d="M0.062 0.000L1.082 0.353"/><path d="M1.022 0.332L0.835 0.668"/><path d="M0.229 0.170L0.035 0.174"/><path d="M0.082 0.228L0.230 0.247"/><path d="M1.082 0.353L0.835 0.668"/><path d="M0.234 0.401L0.993 0.520"/><path d="M0.212 0.377L1.082 0.377"/></g></svg>