<svg xmlns="http://www.w3.org/2000/svg" xmlns:xlink="http://www.w3.org/1999/xlink" width="300px" height="300px" viewBox="0.000 0.000 1.095 1.419"><rect x="0" y="0" width="1" height="1" fill="none" stroke="blue" stroke-width="0.005"/><path d="M 1.000 0.365 L 1.095 0.390 L 1.041 1.410 L 0.984 1.419 L 0.980 1.394 L 0.878 1.367 L 0.446 0.791 L 0.840 0.488 L 0.831 0.431 L 0.935 0.415 Z" fill="silver" stroke="gray" stroke-width="0.005"/><path d="M 0.831 0.431 L 0.984 1.419" fill="none" stroke="purple" stroke-width="0.002"/><path d="M 1.000 0.365 L 1.000 1.000" fill="none" stroke="purple" stroke-width="0.002"/><path d="M 0.898 0.593 L 0.878 1.367" fill="none" stroke="purple" stroke-width="0.002"/><path d="M 1.095 0.390 L 1.041 1.410" fill="none" stroke="purple" stroke-width="0.002"/><path d="M 0.446 0.791 L 0.878 1.367" fill="none" stroke="purple" stroke-width="0.002"/><path d="M 1.000 0.365 L 1.095 0.390" fill="none" stroke="purple" stroke-width="0.002"/><path d="M 0.723 0.589 L 0.603 1.000" fill="none" stroke="purple" stroke-width="0.002"/><path d="M 1.095 0.390 L 0.831 0.431" fill="none" stroke="purple" stroke-width="0.002"/><path d="M 0.723 0.589 L 0.898 0.593" fill="none" stroke="purple" stroke-width="0.002"/><path d="M 1.000 0.365 L 0.446 0.791" fill="none" stroke="purple" stroke-width="0.002"/><path d="M 0.723 0.589 L 0.446 0.791" fill="none" stroke="purple" stroke-width="0.002"/><path d="M 0.603 1.000 L 1.000 1.000" fill="none" stroke="purple" stroke-width="0.002"/><path d="M 0.878 1.367 L 1.041 1.410" fill="none" stroke="purple" stroke-width="0.002"/><path d="M 1.041 1.410 L 0.984 1.419" fill="none" stroke="purple" stroke-width="0.002"/></svg>