<svg xmlns="http://www.w3.org/2000/svg" xmlns:xlink="http://www.w3.org/1999/xlink" width="400px" height="400px" viewBox="0.000 0.000 0.648 1.054"><path d="M0.554 0.000L0.648 0.025L0.595 1.045L0.538 1.054L0.534 1.029L0.432 1.002L0.000 0.426L0.393 0.123L0.385 0.066L0.489 0.050Z" fill="silver" stroke="gray" stroke-width="0.005"/><g fill="none" stroke="purple" stroke-width="0.002"><path d="M0.385 0.066L0.538 1.054"/><path d="M0.554 0.000L0.554 0.635"/><path d="M0.451 0.228L0.432 1.002"/><path d="M0.648 0.025L0.595 1.045"/><path d="M0.000 0.426L0.432 1.002"/><path d="M0.554 0.000L0.648 0.025"/><path d="M0.277 0.224L0.157 0.635"/><path d="M0.648 0.025L0.385 0.066"/><path d="M0.277 0.224L0.451 0.228"/><path d="M0.554 0.000L0.000 0.426"/><path d="M0.277 0.224L0.000 0.426"/><path d="M0.157 0.635L0.554 0.635"/><path d="M0.432 1.002L0.595 1.045"/><path d="M0.595 1.045L0.538 1.054"/></g></svg>