<svg xmlns="http://www.w3.org/2000/svg" xmlns:xlink="http://www.w3.org/1999/xlink" width="300px" height="300px" viewBox="-0.054 0.000 1.274 1.000"><rect x="0" y="0" width="1" height="1" fill="none" stroke="blue" stroke-width="0.005"/><path d="M 1.047 0.468 L 1.220 0.730 L 0.971 0.896 L 0.971 0.899 L -0.041 0.879 L -0.054 0.788 L -0.025 0.784 L -0.010 0.703 L 0.143 0.657 L 0.308 0.623 L 0.403 0.492 L 0.522 0.578 Z" fill="silver" stroke="gray" stroke-width="0.005"/><path d="M 1.047 0.468 L 1.220 0.730" fill="none" stroke="purple" stroke-width="0.002"/><path d="M 0.937 0.652 L 0.971 0.899" fill="none" stroke="purple" stroke-width="0.002"/><path d="M 0.000 0.700 L 0.000 0.714" fill="none" stroke="purple" stroke-width="0.002"/><path d="M -0.010 0.703 L -0.041 0.879" fill="none" stroke="purple" stroke-width="0.002"/><path d="M -0.054 0.788 L -0.041 0.879" fill="none" stroke="purple" stroke-width="0.002"/><path d="M 0.403 0.492 L 0.967 0.899" fill="none" stroke="purple" stroke-width="0.002"/><path d="M 1.047 0.468 L 0.971 0.899" fill="none" stroke="purple" stroke-width="0.002"/><path d="M 0.000 0.700 L 0.121 0.882" fill="none" stroke="purple" stroke-width="0.002"/><path d="M -0.010 0.703 L 0.000 0.714" fill="none" stroke="purple" stroke-width="0.002"/><path d="M 0.403 0.492 L 0.121 0.882" fill="none" stroke="purple" stroke-width="0.002"/><path d="M 0.143 0.657 L 0.000 0.714" fill="none" stroke="purple" stroke-width="0.002"/><path d="M 0.143 0.657 L -0.010 0.703" fill="none" stroke="purple" stroke-width="0.002"/><path d="M 1.047 0.468 L 0.143 0.657" fill="none" stroke="purple" stroke-width="0.002"/><path d="M 0.937 0.652 L -0.054 0.788" fill="none" stroke="purple" stroke-width="0.002"/><path d="M -0.041 0.879 L 0.971 0.899" fill="none" stroke="purple" stroke-width="0.002"/><path d="M 1.220 0.730 L 0.967 0.899" fill="none" stroke="purple" stroke-width="0.002"/></svg>