<svg xmlns="http://www.w3.org/2000/svg" xmlns:xlink="http://www.w3.org/1999/xlink" width="400px" height="400px" viewBox="0.000 0.000 1.274 0.430"><path d="M1.100 0.000L1.274 0.262L1.025 0.427L1.024 0.430L0.012 0.410L0.000 0.319L0.029 0.315L0.044 0.235L0.197 0.188L0.362 0.154L0.457 0.023L0.576 0.109Z" fill="silver" stroke="gray" stroke-width="0.005"/><g fill="none" stroke="purple" stroke-width="0.002"><path d="M1.100 0.000L1.274 0.262"/><path d="M0.991 0.184L1.024 0.430"/><path d="M0.054 0.232L0.054 0.246"/><path d="M0.044 0.235L0.012 0.410"/><path d="M0.000 0.319L0.012 0.410"/><path d="M0.457 0.023L1.021 0.430"/><path d="M1.100 0.000L1.024 0.430"/><path d="M0.054 0.232L0.175 0.414"/><path d="M0.044 0.235L0.054 0.246"/><path d="M0.457 0.023L0.175 0.414"/><path d="M0.197 0.188L0.054 0.246"/><path d="M0.197 0.188L0.044 0.235"/><path d="M1.100 0.000L0.197 0.188"/><path d="M0.991 0.184L0.000 0.319"/><path d="M0.012 0.410L1.024 0.430"/><path d="M1.274 0.262L1.021 0.430"/></g></svg>