<svg xmlns="http://www.w3.org/2000/svg" xmlns:xlink="http://www.w3.org/1999/xlink" width="300px" height="300px" viewBox="-0.070 -0.239 1.070 1.239"><rect x="0" y="0" width="1" height="1" fill="none" stroke="blue" stroke-width="0.005"/><path d="M 0.522 -0.239 L 0.701 0.000 L 0.409 0.584 L 0.158 0.666 L -0.070 0.206 L 0.000 0.153 L 0.000 0.000 L 0.204 0.000 Z" fill="silver" stroke="gray" stroke-width="0.005"/><path d="M 0.522 -0.239 L 0.701 0.000" fill="none" stroke="purple" stroke-width="0.002"/><path d="M 0.179 0.135 L 0.302 0.567" fill="none" stroke="purple" stroke-width="0.002"/><path d="M 0.215 0.302 L 0.295 0.572" fill="none" stroke="purple" stroke-width="0.002"/><path d="M 0.000 0.000 L 0.701 0.000" fill="none" stroke="purple" stroke-width="0.002"/><path d="M 0.000 0.000 L 0.000 0.348" fill="none" stroke="purple" stroke-width="0.002"/><path d="M 0.022 0.359 L 0.018 0.383" fill="none" stroke="purple" stroke-width="0.002"/><path d="M -0.070 0.206 L 0.158 0.666" fill="none" stroke="purple" stroke-width="0.002"/><path d="M 0.522 -0.239 L -0.070 0.206" fill="none" stroke="purple" stroke-width="0.002"/><path d="M 0.179 0.135 L -0.070 0.206" fill="none" stroke="purple" stroke-width="0.002"/><path d="M 0.022 0.359 L 0.302 0.567" fill="none" stroke="purple" stroke-width="0.002"/><path d="M 0.000 0.348 L 0.295 0.572" fill="none" stroke="purple" stroke-width="0.002"/><path d="M 0.701 0.000 L 0.409 0.584" fill="none" stroke="purple" stroke-width="0.002"/><path d="M 0.018 0.383 L 0.409 0.584" fill="none" stroke="purple" stroke-width="0.002"/><path d="M 0.215 0.302 L 0.022 0.359" fill="none" stroke="purple" stroke-width="0.002"/><path d="M 0.302 0.567 L 0.158 0.666" fill="none" stroke="purple" stroke-width="0.002"/><path d="M 0.409 0.584 L 0.158 0.666" fill="none" stroke="purple" stroke-width="0.002"/></svg>