<svg xmlns="http://www.w3.org/2000/svg" xmlns:xlink="http://www.w3.org/1999/xlink" width="400px" height="400px" viewBox="0.000 0.000 0.772 0.905"><path d="M0.593 0.000L0.772 0.239L0.480 0.823L0.228 0.905L0.000 0.445L0.070 0.392L0.070 0.239L0.274 0.239Z" fill="silver" stroke="gray" stroke-width="0.005"/><g fill="none" stroke="purple" stroke-width="0.002"><path d="M0.593 0.000L0.772 0.239"/><path d="M0.249 0.374L0.372 0.806"/><path d="M0.286 0.541L0.365 0.811"/><path d="M0.070 0.239L0.772 0.239"/><path d="M0.070 0.239L0.070 0.587"/><path d="M0.092 0.597L0.088 0.622"/><path d="M0.000 0.445L0.228 0.905"/><path d="M0.593 0.000L0.000 0.445"/><path d="M0.249 0.374L0.000 0.445"/><path d="M0.092 0.597L0.372 0.806"/><path d="M0.070 0.587L0.365 0.811"/><path d="M0.772 0.239L0.480 0.823"/><path d="M0.088 0.622L0.480 0.823"/><path d="M0.286 0.541L0.092 0.597"/><path d="M0.372 0.806L0.228 0.905"/><path d="M0.480 0.823L0.228 0.905"/></g></svg>