<svg xmlns="http://www.w3.org/2000/svg" xmlns:xlink="http://www.w3.org/1999/xlink" width="400px" height="400px" viewBox="0.000 0.000 0.962 1.120"><path d="M0.859 0.000L0.866 0.003L0.862 0.014L0.862 0.014L0.862 0.014L0.835 0.086L0.822 0.202L0.752 0.238L0.962 0.719L0.046 1.120L0.000 1.014L0.386 0.423Z" fill="silver" stroke="gray" stroke-width="0.005"/><g fill="none" stroke="purple" stroke-width="0.002"><path d="M0.859 0.000L0.866 0.003"/><path d="M0.707 0.136L0.962 0.719"/><path d="M0.707 0.136L0.822 0.202"/><path d="M0.859 0.000L0.862 0.014"/><path d="M0.653 0.184L0.756 0.806"/><path d="M0.653 0.184L0.785 0.221"/><path d="M0.843 0.014L0.862 0.014"/><path d="M0.061 0.921L0.084 1.014"/><path d="M0.843 0.014L0.822 0.202"/><path d="M0.000 1.014L0.046 1.120"/><path d="M0.866 0.003L0.785 0.221"/><path d="M0.386 0.423L0.000 1.014"/><path d="M0.862 0.014L0.084 1.014"/><path d="M0.859 0.000L0.386 0.423"/><path d="M0.822 0.202L0.386 0.423"/><path d="M0.756 0.806L0.061 0.921"/><path d="M0.962 0.719L0.046 1.120"/><path d="M0.000 1.014L0.084 1.014"/></g></svg>