<svg xmlns="http://www.w3.org/2000/svg" xmlns:xlink="http://www.w3.org/1999/xlink" width="300px" height="300px" viewBox="0.000 -0.014 1.078 1.120"><rect x="0" y="0" width="1" height="1" fill="none" stroke="blue" stroke-width="0.005"/><path d="M 0.974 -0.014 L 0.982 -0.011 L 0.978 -0.000 L 0.978 0.000 L 0.977 0.000 L 0.951 0.072 L 0.938 0.188 L 0.867 0.224 L 1.078 0.705 L 0.162 1.106 L 0.115 1.000 L 0.502 0.409 Z" fill="silver" stroke="gray" stroke-width="0.005"/><path d="M 0.974 -0.014 L 0.982 -0.011" fill="none" stroke="purple" stroke-width="0.002"/><path d="M 0.823 0.122 L 1.078 0.705" fill="none" stroke="purple" stroke-width="0.002"/><path d="M 0.823 0.122 L 0.938 0.188" fill="none" stroke="purple" stroke-width="0.002"/><path d="M 0.974 -0.014 L 0.978 0.000" fill="none" stroke="purple" stroke-width="0.002"/><path d="M 0.768 0.170 L 0.871 0.792" fill="none" stroke="purple" stroke-width="0.002"/><path d="M 0.768 0.170 L 0.900 0.207" fill="none" stroke="purple" stroke-width="0.002"/><path d="M 0.959 0.000 L 0.978 0.000" fill="none" stroke="purple" stroke-width="0.002"/><path d="M 0.176 0.907 L 0.200 1.000" fill="none" stroke="purple" stroke-width="0.002"/><path d="M 0.959 0.000 L 0.938 0.188" fill="none" stroke="purple" stroke-width="0.002"/><path d="M 0.115 1.000 L 0.162 1.106" fill="none" stroke="purple" stroke-width="0.002"/><path d="M 0.982 -0.011 L 0.900 0.207" fill="none" stroke="purple" stroke-width="0.002"/><path d="M 0.502 0.409 L 0.115 1.000" fill="none" stroke="purple" stroke-width="0.002"/><path d="M 0.978 0.000 L 0.200 1.000" fill="none" stroke="purple" stroke-width="0.002"/><path d="M 0.974 -0.014 L 0.502 0.409" fill="none" stroke="purple" stroke-width="0.002"/><path d="M 0.938 0.188 L 0.502 0.409" fill="none" stroke="purple" stroke-width="0.002"/><path d="M 0.871 0.792 L 0.176 0.907" fill="none" stroke="purple" stroke-width="0.002"/><path d="M 1.078 0.705 L 0.162 1.106" fill="none" stroke="purple" stroke-width="0.002"/><path d="M 0.115 1.000 L 0.200 1.000" fill="none" stroke="purple" stroke-width="0.002"/></svg>