<svg xmlns="http://www.w3.org/2000/svg" xmlns:xlink="http://www.w3.org/1999/xlink" width="400px" height="400px" viewBox="0.000 0.000 0.779 0.884"><path d="M0.208 0.000L0.314 0.087L0.514 0.095L0.508 0.245L0.779 0.466L0.495 0.814L0.481 0.884L0.166 0.847L0.147 0.806L0.000 0.165Z" fill="silver" stroke="gray" stroke-width="0.005"/><g fill="none" stroke="purple" stroke-width="0.002"><path d="M0.125 0.066L0.194 0.084"/><path d="M0.208 0.000L0.779 0.466"/><path d="M0.110 0.078L0.514 0.095"/><path d="M0.000 0.165L0.235 0.280"/><path d="M0.208 0.000L0.324 0.236"/><path d="M0.208 0.000L0.000 0.165"/><path d="M0.325 0.639L0.441 0.879"/><path d="M0.324 0.236L0.235 0.280"/><path d="M0.194 0.084L0.235 0.280"/><path d="M0.194 0.084L0.086 0.207"/><path d="M0.147 0.806L0.166 0.847"/><path d="M0.000 0.165L0.147 0.806"/><path d="M0.125 0.066L0.147 0.806"/><path d="M0.110 0.078L0.086 0.207"/><path d="M0.514 0.095L0.481 0.884"/><path d="M0.325 0.639L0.521 0.677"/><path d="M0.521 0.677L0.481 0.884"/><path d="M0.325 0.639L0.166 0.847"/><path d="M0.166 0.847L0.481 0.884"/><path d="M0.779 0.466L0.441 0.879"/></g></svg>