<svg xmlns="http://www.w3.org/2000/svg" xmlns:xlink="http://www.w3.org/1999/xlink" width="300px" height="300px" viewBox="0.000 -0.534 1.000 1.534"><rect x="0" y="0" width="1" height="1" fill="none" stroke="blue" stroke-width="0.005"/><path d="M 0.294 -0.534 L 0.400 -0.447 L 0.600 -0.439 L 0.593 -0.289 L 0.864 -0.067 L 0.580 0.280 L 0.567 0.350 L 0.251 0.313 L 0.233 0.273 L 0.085 -0.368 Z" fill="silver" stroke="gray" stroke-width="0.005"/><path d="M 0.211 -0.468 L 0.279 -0.449" fill="none" stroke="purple" stroke-width="0.002"/><path d="M 0.294 -0.534 L 0.864 -0.067" fill="none" stroke="purple" stroke-width="0.002"/><path d="M 0.195 -0.456 L 0.600 -0.439" fill="none" stroke="purple" stroke-width="0.002"/><path d="M 0.085 -0.368 L 0.320 -0.253" fill="none" stroke="purple" stroke-width="0.002"/><path d="M 0.294 -0.534 L 0.410 -0.297" fill="none" stroke="purple" stroke-width="0.002"/><path d="M 0.294 -0.534 L 0.085 -0.368" fill="none" stroke="purple" stroke-width="0.002"/><path d="M 0.410 0.106 L 0.527 0.346" fill="none" stroke="purple" stroke-width="0.002"/><path d="M 0.410 -0.297 L 0.320 -0.253" fill="none" stroke="purple" stroke-width="0.002"/><path d="M 0.279 -0.449 L 0.320 -0.253" fill="none" stroke="purple" stroke-width="0.002"/><path d="M 0.279 -0.449 L 0.171 -0.326" fill="none" stroke="purple" stroke-width="0.002"/><path d="M 0.233 0.273 L 0.251 0.313" fill="none" stroke="purple" stroke-width="0.002"/><path d="M 0.085 -0.368 L 0.233 0.273" fill="none" stroke="purple" stroke-width="0.002"/><path d="M 0.211 -0.468 L 0.233 0.273" fill="none" stroke="purple" stroke-width="0.002"/><path d="M 0.195 -0.456 L 0.171 -0.326" fill="none" stroke="purple" stroke-width="0.002"/><path d="M 0.600 -0.439 L 0.567 0.350" fill="none" stroke="purple" stroke-width="0.002"/><path d="M 0.410 0.106 L 0.607 0.144" fill="none" stroke="purple" stroke-width="0.002"/><path d="M 0.607 0.144 L 0.567 0.350" fill="none" stroke="purple" stroke-width="0.002"/><path d="M 0.410 0.106 L 0.251 0.313" fill="none" stroke="purple" stroke-width="0.002"/><path d="M 0.251 0.313 L 0.567 0.350" fill="none" stroke="purple" stroke-width="0.002"/><path d="M 0.864 -0.067 L 0.527 0.346" fill="none" stroke="purple" stroke-width="0.002"/></svg>