<svg xmlns="http://www.w3.org/2000/svg" xmlns:xlink="http://www.w3.org/1999/xlink" width="300px" height="300px" viewBox="0.000 0.000 1.327 1.000"><rect x="0" y="0" width="1" height="1" fill="none" stroke="blue" stroke-width="0.005"/><path d="M 1.190 0.145 L 1.327 0.315 L 1.000 0.579 L 0.527 0.354 L 0.027 0.412 L 0.020 0.367 L 0.023 0.365 L 0.022 0.357 L 0.037 0.355 L 0.241 0.217 Z" fill="silver" stroke="gray" stroke-width="0.005"/><path d="M 1.190 0.145 L 1.327 0.315" fill="none" stroke="purple" stroke-width="0.002"/><path d="M 1.078 0.154 L 1.153 0.209" fill="none" stroke="purple" stroke-width="0.002"/><path d="M 1.000 0.160 L 1.021 0.296" fill="none" stroke="purple" stroke-width="0.002"/><path d="M 1.019 0.274 L 1.021 0.296" fill="none" stroke="purple" stroke-width="0.002"/><path d="M 0.265 0.215 L 0.291 0.241" fill="none" stroke="purple" stroke-width="0.002"/><path d="M 1.000 0.160 L 1.000 0.579" fill="none" stroke="purple" stroke-width="0.002"/><path d="M 0.022 0.357 L 0.027 0.412" fill="none" stroke="purple" stroke-width="0.002"/><path d="M 0.020 0.367 L 0.027 0.412" fill="none" stroke="purple" stroke-width="0.002"/><path d="M 0.241 0.217 L 1.000 0.579" fill="none" stroke="purple" stroke-width="0.002"/><path d="M 0.787 0.296 L 0.767 0.468" fill="none" stroke="purple" stroke-width="0.002"/><path d="M 0.108 0.385 L 0.127 0.401" fill="none" stroke="purple" stroke-width="0.002"/><path d="M 0.265 0.215 L 0.127 0.401" fill="none" stroke="purple" stroke-width="0.002"/><path d="M 0.291 0.241 L 0.787 0.296" fill="none" stroke="purple" stroke-width="0.002"/><path d="M 1.190 0.145 L 0.241 0.217" fill="none" stroke="purple" stroke-width="0.002"/><path d="M 0.108 0.385 L 0.086 0.405" fill="none" stroke="purple" stroke-width="0.002"/><path d="M 0.241 0.217 L 0.020 0.367" fill="none" stroke="purple" stroke-width="0.002"/><path d="M 0.020 0.367 L 0.086 0.405" fill="none" stroke="purple" stroke-width="0.002"/><path d="M 1.019 0.274 L 0.022 0.357" fill="none" stroke="purple" stroke-width="0.002"/><path d="M 0.324 0.378 L 0.108 0.385" fill="none" stroke="purple" stroke-width="0.002"/><path d="M 1.021 0.296 L 0.027 0.412" fill="none" stroke="purple" stroke-width="0.002"/><path d="M 1.153 0.209 L 0.324 0.378" fill="none" stroke="purple" stroke-width="0.002"/><path d="M 1.190 0.145 L 1.153 0.209" fill="none" stroke="purple" stroke-width="0.002"/><path d="M 1.078 0.154 L 0.767 0.468" fill="none" stroke="purple" stroke-width="0.002"/><path d="M 1.327 0.315 L 1.000 0.579" fill="none" stroke="purple" stroke-width="0.002"/></svg>