<svg xmlns="http://www.w3.org/2000/svg" xmlns:xlink="http://www.w3.org/1999/xlink" width="400px" height="400px" viewBox="0.000 0.000 1.307 0.434"><path d="M1.170 0.000L1.307 0.169L0.980 0.434L0.507 0.208L0.007 0.267L0.000 0.221L0.003 0.219L0.002 0.211L0.017 0.210L0.221 0.072Z" fill="silver" stroke="gray" stroke-width="0.005"/><g fill="none" stroke="purple" stroke-width="0.002"><path d="M1.170 0.000L1.307 0.169"/><path d="M1.058 0.008L1.133 0.064"/><path d="M0.980 0.014L1.001 0.150"/><path d="M0.999 0.128L1.001 0.150"/><path d="M0.245 0.070L0.271 0.095"/><path d="M0.980 0.014L0.980 0.434"/><path d="M0.002 0.211L0.007 0.267"/><path d="M0.000 0.221L0.007 0.267"/><path d="M0.221 0.072L0.980 0.434"/><path d="M0.767 0.151L0.748 0.323"/><path d="M0.088 0.239L0.107 0.255"/><path d="M0.245 0.070L0.107 0.255"/><path d="M0.271 0.095L0.767 0.151"/><path d="M1.170 0.000L0.221 0.072"/><path d="M0.088 0.239L0.066 0.260"/><path d="M0.221 0.072L0.000 0.221"/><path d="M0.000 0.221L0.066 0.260"/><path d="M0.999 0.128L0.002 0.211"/><path d="M0.304 0.232L0.088 0.239"/><path d="M1.001 0.150L0.007 0.267"/><path d="M1.133 0.064L0.304 0.232"/><path d="M1.170 0.000L1.133 0.064"/><path d="M1.058 0.008L0.748 0.323"/><path d="M1.307 0.169L0.980 0.434"/></g></svg>