<svg xmlns="http://www.w3.org/2000/svg" xmlns:xlink="http://www.w3.org/1999/xlink" width="400px" height="400px" viewBox="0.000 0.000 0.868 0.694"><path d="M0.151 0.000L0.173 0.057L0.381 0.057L0.412 0.110L0.470 0.087L0.719 0.441L0.868 0.456L0.848 0.655L0.821 0.694L0.037 0.261L0.000 0.057Z" fill="silver" stroke="gray" stroke-width="0.005"/><g fill="none" stroke="purple" stroke-width="0.002"><path d="M0.470 0.087L0.849 0.626"/><path d="M0.381 0.057L0.710 0.632"/><path d="M0.775 0.521L0.796 0.680"/><path d="M0.151 0.000L0.305 0.409"/><path d="M0.242 0.342L0.286 0.398"/><path d="M0.000 0.057L0.037 0.261"/><path d="M0.258 0.254L0.775 0.521"/><path d="M0.000 0.057L0.381 0.057"/><path d="M0.242 0.342L0.535 0.521"/><path d="M0.151 0.000L0.000 0.057"/><path d="M0.037 0.261L0.821 0.694"/><path d="M0.868 0.456L0.848 0.655"/><path d="M0.258 0.254L0.206 0.354"/><path d="M0.381 0.057L0.206 0.354"/><path d="M0.470 0.087L0.037 0.261"/><path d="M0.286 0.398L0.868 0.456"/><path d="M0.470 0.087L0.242 0.342"/><path d="M0.647 0.338L0.305 0.409"/><path d="M0.647 0.338L0.535 0.521"/><path d="M0.849 0.626L0.821 0.694"/><path d="M0.849 0.626L0.710 0.632"/><path d="M0.848 0.655L0.821 0.694"/><path d="M0.848 0.655L0.796 0.680"/></g></svg>