<svg xmlns="http://www.w3.org/2000/svg" xmlns:xlink="http://www.w3.org/1999/xlink" width="300px" height="300px" viewBox="0.000 -0.057 1.030 1.057"><rect x="0" y="0" width="1" height="1" fill="none" stroke="blue" stroke-width="0.005"/><path d="M 0.313 -0.057 L 0.334 0.000 L 0.543 0.000 L 0.573 0.053 L 0.632 0.030 L 0.881 0.385 L 1.030 0.399 L 1.010 0.598 L 0.983 0.637 L 0.199 0.204 L 0.162 0.000 Z" fill="silver" stroke="gray" stroke-width="0.005"/><path d="M 0.632 0.030 L 1.011 0.569" fill="none" stroke="purple" stroke-width="0.002"/><path d="M 0.543 0.000 L 0.872 0.575" fill="none" stroke="purple" stroke-width="0.002"/><path d="M 0.937 0.465 L 0.958 0.623" fill="none" stroke="purple" stroke-width="0.002"/><path d="M 0.313 -0.057 L 0.467 0.352" fill="none" stroke="purple" stroke-width="0.002"/><path d="M 0.404 0.285 L 0.448 0.341" fill="none" stroke="purple" stroke-width="0.002"/><path d="M 0.162 0.000 L 0.199 0.204" fill="none" stroke="purple" stroke-width="0.002"/><path d="M 0.419 0.197 L 0.937 0.465" fill="none" stroke="purple" stroke-width="0.002"/><path d="M 0.162 0.000 L 0.543 0.000" fill="none" stroke="purple" stroke-width="0.002"/><path d="M 0.404 0.285 L 0.697 0.464" fill="none" stroke="purple" stroke-width="0.002"/><path d="M 0.313 -0.057 L 0.162 0.000" fill="none" stroke="purple" stroke-width="0.002"/><path d="M 0.199 0.204 L 0.983 0.637" fill="none" stroke="purple" stroke-width="0.002"/><path d="M 1.030 0.399 L 1.010 0.598" fill="none" stroke="purple" stroke-width="0.002"/><path d="M 0.419 0.197 L 0.368 0.297" fill="none" stroke="purple" stroke-width="0.002"/><path d="M 0.543 0.000 L 0.368 0.297" fill="none" stroke="purple" stroke-width="0.002"/><path d="M 0.632 0.030 L 0.199 0.204" fill="none" stroke="purple" stroke-width="0.002"/><path d="M 0.448 0.341 L 1.030 0.399" fill="none" stroke="purple" stroke-width="0.002"/><path d="M 0.632 0.030 L 0.404 0.285" fill="none" stroke="purple" stroke-width="0.002"/><path d="M 0.809 0.282 L 0.467 0.352" fill="none" stroke="purple" stroke-width="0.002"/><path d="M 0.809 0.282 L 0.697 0.464" fill="none" stroke="purple" stroke-width="0.002"/><path d="M 1.011 0.569 L 0.983 0.637" fill="none" stroke="purple" stroke-width="0.002"/><path d="M 1.011 0.569 L 0.872 0.575" fill="none" stroke="purple" stroke-width="0.002"/><path d="M 1.010 0.598 L 0.983 0.637" fill="none" stroke="purple" stroke-width="0.002"/><path d="M 1.010 0.598 L 0.958 0.623" fill="none" stroke="purple" stroke-width="0.002"/></svg>