<svg xmlns="http://www.w3.org/2000/svg" xmlns:xlink="http://www.w3.org/1999/xlink" width="300px" height="300px" viewBox="0.000 0.000 1.000 1.104"><rect x="0" y="0" width="1" height="1" fill="none" stroke="blue" stroke-width="0.005"/><path d="M 0.251 0.060 L 0.440 0.296 L 0.572 1.000 L 0.337 1.091 L 0.186 1.104 L 0.164 1.061 L 0.165 1.057 L 0.199 1.064 L 0.219 1.000 L 0.000 1.000 L 0.000 0.303 L 0.173 0.135 L 0.179 0.106 Z" fill="silver" stroke="gray" stroke-width="0.005"/><path d="M 0.251 0.060 L 0.440 0.296" fill="none" stroke="purple" stroke-width="0.002"/><path d="M 0.440 0.296 L 0.572 1.000" fill="none" stroke="purple" stroke-width="0.002"/><path d="M 0.000 0.303 L 0.000 1.000" fill="none" stroke="purple" stroke-width="0.002"/><path d="M 0.308 0.131 L 0.303 0.312" fill="none" stroke="purple" stroke-width="0.002"/><path d="M 0.179 0.106 L 0.028 0.777" fill="none" stroke="purple" stroke-width="0.002"/><path d="M 0.179 0.106 L 0.308 0.131" fill="none" stroke="purple" stroke-width="0.002"/><path d="M 0.165 1.057 L 0.164 1.061" fill="none" stroke="purple" stroke-width="0.002"/><path d="M 0.440 0.296 L 0.186 1.104" fill="none" stroke="purple" stroke-width="0.002"/><path d="M 0.251 0.060 L 0.000 0.303" fill="none" stroke="purple" stroke-width="0.002"/><path d="M 0.164 1.061 L 0.186 1.104" fill="none" stroke="purple" stroke-width="0.002"/><path d="M 0.251 0.060 L 0.179 0.106" fill="none" stroke="purple" stroke-width="0.002"/><path d="M 0.000 0.303 L 0.303 0.312" fill="none" stroke="purple" stroke-width="0.002"/><path d="M 0.028 0.777 L 0.552 0.895" fill="none" stroke="purple" stroke-width="0.002"/><path d="M 0.164 1.061 L 0.249 1.099" fill="none" stroke="purple" stroke-width="0.002"/><path d="M 0.552 0.895 L 0.249 1.099" fill="none" stroke="purple" stroke-width="0.002"/><path d="M 0.165 1.057 L 0.337 1.091" fill="none" stroke="purple" stroke-width="0.002"/><path d="M 0.000 1.000 L 0.572 1.000" fill="none" stroke="purple" stroke-width="0.002"/><path d="M 0.572 1.000 L 0.337 1.091" fill="none" stroke="purple" stroke-width="0.002"/><path d="M 0.337 1.091 L 0.186 1.104" fill="none" stroke="purple" stroke-width="0.002"/></svg>