<svg xmlns="http://www.w3.org/2000/svg" xmlns:xlink="http://www.w3.org/1999/xlink" width="400px" height="400px" viewBox="0.000 0.000 0.572 1.045"><path d="M0.251 0.000L0.440 0.236L0.572 0.940L0.337 1.032L0.186 1.045L0.164 1.001L0.165 0.997L0.199 1.004L0.219 0.940L0.000 0.940L0.000 0.243L0.173 0.076L0.179 0.047Z" fill="silver" stroke="gray" stroke-width="0.005"/><g fill="none" stroke="purple" stroke-width="0.002"><path d="M0.251 0.000L0.440 0.236"/><path d="M0.440 0.236L0.572 0.940"/><path d="M0.000 0.243L0.000 0.940"/><path d="M0.308 0.072L0.303 0.253"/><path d="M0.179 0.047L0.028 0.718"/><path d="M0.179 0.047L0.308 0.072"/><path d="M0.165 0.997L0.164 1.001"/><path d="M0.440 0.236L0.186 1.045"/><path d="M0.251 0.000L0.000 0.243"/><path d="M0.164 1.001L0.186 1.045"/><path d="M0.251 0.000L0.179 0.047"/><path d="M0.000 0.243L0.303 0.253"/><path d="M0.028 0.718L0.552 0.835"/><path d="M0.164 1.001L0.249 1.039"/><path d="M0.552 0.835L0.249 1.039"/><path d="M0.165 0.997L0.337 1.032"/><path d="M0.000 0.940L0.572 0.940"/><path d="M0.572 0.940L0.337 1.032"/><path d="M0.337 1.032L0.186 1.045"/></g></svg>