<svg xmlns="http://www.w3.org/2000/svg" xmlns:xlink="http://www.w3.org/1999/xlink" width="300px" height="300px" viewBox="-1.156 -0.155 2.156 1.155"><rect x="0" y="0" width="1" height="1" fill="none" stroke="blue" stroke-width="0.005"/><path d="M -0.654 -0.155 L -0.124 0.318 L -0.116 0.470 L -0.416 0.562 L -0.530 0.343 L -1.040 0.375 L -1.156 0.156 L -0.905 0.022 L -0.851 -0.119 Z" fill="silver" stroke="gray" stroke-width="0.005"/><path d="M -0.624 -0.127 L -1.156 0.156" fill="none" stroke="purple" stroke-width="0.002"/><path d="M -0.565 -0.075 L -0.703 0.048" fill="none" stroke="purple" stroke-width="0.002"/><path d="M -0.851 -0.119 L -1.040 0.375" fill="none" stroke="purple" stroke-width="0.002"/><path d="M -0.565 -0.075 L -0.670 0.075" fill="none" stroke="purple" stroke-width="0.002"/><path d="M -0.654 -0.155 L -0.851 -0.119" fill="none" stroke="purple" stroke-width="0.002"/><path d="M -0.624 -0.127 L -0.769 0.242" fill="none" stroke="purple" stroke-width="0.002"/><path d="M -0.654 -0.155 L -0.670 0.075" fill="none" stroke="purple" stroke-width="0.002"/><path d="M -0.124 0.318 L -0.116 0.470" fill="none" stroke="purple" stroke-width="0.002"/><path d="M -0.426 0.478 L -0.416 0.562" fill="none" stroke="purple" stroke-width="0.002"/><path d="M -0.654 -0.155 L -0.124 0.318" fill="none" stroke="purple" stroke-width="0.002"/><path d="M -0.670 0.075 L -0.416 0.562" fill="none" stroke="purple" stroke-width="0.002"/><path d="M -0.124 0.318 L -1.040 0.375" fill="none" stroke="purple" stroke-width="0.002"/><path d="M -0.851 -0.119 L -0.703 0.048" fill="none" stroke="purple" stroke-width="0.002"/><path d="M -0.116 0.470 L -0.416 0.562" fill="none" stroke="purple" stroke-width="0.002"/><path d="M -0.117 0.442 L -0.426 0.478" fill="none" stroke="purple" stroke-width="0.002"/><path d="M -0.263 0.441 L -0.117 0.442" fill="none" stroke="purple" stroke-width="0.002"/><path d="M -0.769 0.242 L -0.263 0.441" fill="none" stroke="purple" stroke-width="0.002"/><path d="M -0.263 0.441 L -0.116 0.470" fill="none" stroke="purple" stroke-width="0.002"/><path d="M -1.156 0.156 L -1.040 0.375" fill="none" stroke="purple" stroke-width="0.002"/></svg>