<svg xmlns="http://www.w3.org/2000/svg" xmlns:xlink="http://www.w3.org/1999/xlink" width="400px" height="400px" viewBox="0.000 0.000 1.040 0.716"><path d="M0.502 0.000L1.032 0.473L1.040 0.624L0.740 0.716L0.626 0.498L0.117 0.530L0.000 0.311L0.252 0.177L0.306 0.036Z" fill="silver" stroke="gray" stroke-width="0.005"/><g fill="none" stroke="purple" stroke-width="0.002"><path d="M0.532 0.027L0.000 0.311"/><path d="M0.592 0.080L0.454 0.203"/><path d="M0.306 0.036L0.117 0.530"/><path d="M0.592 0.080L0.487 0.230"/><path d="M0.502 0.000L0.306 0.036"/><path d="M0.532 0.027L0.387 0.397"/><path d="M0.502 0.000L0.487 0.230"/><path d="M1.032 0.473L1.040 0.624"/><path d="M0.730 0.632L0.740 0.716"/><path d="M0.502 0.000L1.032 0.473"/><path d="M0.487 0.230L0.740 0.716"/><path d="M1.032 0.473L0.117 0.530"/><path d="M0.306 0.036L0.454 0.203"/><path d="M1.040 0.624L0.740 0.716"/><path d="M1.039 0.597L0.730 0.632"/><path d="M0.893 0.596L1.039 0.597"/><path d="M0.387 0.397L0.893 0.596"/><path d="M0.893 0.596L1.040 0.624"/><path d="M0.000 0.311L0.117 0.530"/></g></svg>