<svg xmlns="http://www.w3.org/2000/svg" xmlns:xlink="http://www.w3.org/1999/xlink" width="400px" height="400px" viewBox="0.000 0.000 0.676 0.387"><path d="M0.129 0.000L0.647 0.039L0.676 0.199L0.506 0.251L0.199 0.387L0.000 0.276L0.118 0.065L0.081 0.066L0.080 0.037Z" fill="silver" stroke="gray" stroke-width="0.005"/><g fill="none" stroke="purple" stroke-width="0.002"><path d="M0.647 0.039L0.676 0.199"/><path d="M0.487 0.027L0.586 0.215"/><path d="M0.283 0.012L0.303 0.312"/><path d="M0.080 0.037L0.081 0.066"/><path d="M0.200 0.005L0.274 0.321"/><path d="M0.154 0.002L0.274 0.321"/><path d="M0.283 0.012L0.199 0.387"/><path d="M0.610 0.037L0.640 0.060"/><path d="M0.200 0.005L0.192 0.025"/><path d="M0.260 0.238L0.303 0.312"/><path d="M0.154 0.002L0.000 0.276"/><path d="M0.129 0.000L0.343 0.221"/><path d="M0.647 0.039L0.586 0.215"/><path d="M0.129 0.000L0.080 0.037"/><path d="M0.487 0.027L0.343 0.221"/><path d="M0.192 0.025L0.596 0.187"/><path d="M0.129 0.000L0.647 0.039"/><path d="M0.080 0.037L0.596 0.187"/><path d="M0.640 0.060L0.081 0.066"/><path d="M0.610 0.037L0.260 0.238"/><path d="M0.000 0.276L0.199 0.387"/><path d="M0.676 0.199L0.343 0.221"/><path d="M0.586 0.215L0.199 0.387"/><path d="M0.676 0.199L0.274 0.321"/></g></svg>