<svg xmlns="http://www.w3.org/2000/svg" xmlns:xlink="http://www.w3.org/1999/xlink" width="300px" height="300px" viewBox="-0.095 0.000 1.095 1.000"><rect x="0" y="0" width="1" height="1" fill="none" stroke="blue" stroke-width="0.005"/><path d="M 0.034 0.483 L 0.552 0.522 L 0.581 0.682 L 0.411 0.734 L 0.105 0.871 L -0.095 0.759 L 0.023 0.548 L -0.014 0.549 L -0.014 0.520 Z" fill="silver" stroke="gray" stroke-width="0.005"/><path d="M 0.552 0.522 L 0.581 0.682" fill="none" stroke="purple" stroke-width="0.002"/><path d="M 0.392 0.510 L 0.492 0.698" fill="none" stroke="purple" stroke-width="0.002"/><path d="M 0.188 0.495 L 0.208 0.795" fill="none" stroke="purple" stroke-width="0.002"/><path d="M -0.014 0.520 L -0.014 0.549" fill="none" stroke="purple" stroke-width="0.002"/><path d="M 0.105 0.489 L 0.179 0.804" fill="none" stroke="purple" stroke-width="0.002"/><path d="M 0.059 0.485 L 0.179 0.804" fill="none" stroke="purple" stroke-width="0.002"/><path d="M 0.188 0.495 L 0.105 0.871" fill="none" stroke="purple" stroke-width="0.002"/><path d="M 0.516 0.520 L 0.545 0.543" fill="none" stroke="purple" stroke-width="0.002"/><path d="M 0.105 0.489 L 0.098 0.508" fill="none" stroke="purple" stroke-width="0.002"/><path d="M 0.166 0.721 L 0.208 0.795" fill="none" stroke="purple" stroke-width="0.002"/><path d="M 0.059 0.485 L -0.095 0.759" fill="none" stroke="purple" stroke-width="0.002"/><path d="M 0.034 0.483 L 0.248 0.704" fill="none" stroke="purple" stroke-width="0.002"/><path d="M 0.552 0.522 L 0.492 0.698" fill="none" stroke="purple" stroke-width="0.002"/><path d="M 0.034 0.483 L -0.014 0.520" fill="none" stroke="purple" stroke-width="0.002"/><path d="M 0.392 0.510 L 0.248 0.704" fill="none" stroke="purple" stroke-width="0.002"/><path d="M 0.098 0.508 L 0.501 0.670" fill="none" stroke="purple" stroke-width="0.002"/><path d="M 0.034 0.483 L 0.552 0.522" fill="none" stroke="purple" stroke-width="0.002"/><path d="M -0.014 0.520 L 0.501 0.670" fill="none" stroke="purple" stroke-width="0.002"/><path d="M 0.545 0.543 L -0.014 0.549" fill="none" stroke="purple" stroke-width="0.002"/><path d="M 0.516 0.520 L 0.166 0.721" fill="none" stroke="purple" stroke-width="0.002"/><path d="M -0.095 0.759 L 0.105 0.871" fill="none" stroke="purple" stroke-width="0.002"/><path d="M 0.581 0.682 L 0.248 0.704" fill="none" stroke="purple" stroke-width="0.002"/><path d="M 0.492 0.698 L 0.105 0.871" fill="none" stroke="purple" stroke-width="0.002"/><path d="M 0.581 0.682 L 0.179 0.804" fill="none" stroke="purple" stroke-width="0.002"/></svg>