<svg xmlns="http://www.w3.org/2000/svg" xmlns:xlink="http://www.w3.org/1999/xlink" width="300px" height="300px" viewBox="-0.085 0.000 1.113 1.000"><rect x="0" y="0" width="1" height="1" fill="none" stroke="blue" stroke-width="0.005"/><path d="M 0.310 0.323 L 0.951 0.437 L 1.028 0.495 L 0.941 0.753 L 0.708 0.673 L 0.687 0.689 L 0.689 0.692 L 0.605 0.748 L 0.487 0.579 L 0.000 0.728 L -0.085 0.601 Z" fill="silver" stroke="gray" stroke-width="0.005"/><path d="M 0.951 0.437 L 1.028 0.495" fill="none" stroke="purple" stroke-width="0.002"/><path d="M 0.801 0.410 L 0.966 0.538" fill="none" stroke="purple" stroke-width="0.002"/><path d="M 0.461 0.350 L 0.689 0.692" fill="none" stroke="purple" stroke-width="0.002"/><path d="M 0.310 0.323 L 0.605 0.748" fill="none" stroke="purple" stroke-width="0.002"/><path d="M 0.000 0.665 L 0.000 0.728" fill="none" stroke="purple" stroke-width="0.002"/><path d="M 0.041 0.513 L 0.036 0.716" fill="none" stroke="purple" stroke-width="0.002"/><path d="M 0.512 0.359 L 0.505 0.604" fill="none" stroke="purple" stroke-width="0.002"/><path d="M 0.397 0.567 L 0.434 0.595" fill="none" stroke="purple" stroke-width="0.002"/><path d="M 0.512 0.359 L 0.434 0.595" fill="none" stroke="purple" stroke-width="0.002"/><path d="M 0.000 0.665 L 0.036 0.716" fill="none" stroke="purple" stroke-width="0.002"/><path d="M -0.085 0.601 L 0.000 0.728" fill="none" stroke="purple" stroke-width="0.002"/><path d="M -0.085 0.601 L -0.014 0.698" fill="none" stroke="purple" stroke-width="0.002"/><path d="M 0.310 0.323 L 0.951 0.437" fill="none" stroke="purple" stroke-width="0.002"/><path d="M 0.310 0.323 L -0.085 0.601" fill="none" stroke="purple" stroke-width="0.002"/><path d="M 1.028 0.495 L 0.941 0.753" fill="none" stroke="purple" stroke-width="0.002"/><path d="M 0.992 0.468 L 0.966 0.538" fill="none" stroke="purple" stroke-width="0.002"/><path d="M 0.505 0.604 L 0.941 0.753" fill="none" stroke="purple" stroke-width="0.002"/><path d="M 0.397 0.567 L 0.357 0.618" fill="none" stroke="purple" stroke-width="0.002"/><path d="M 0.461 0.350 L -0.014 0.698" fill="none" stroke="purple" stroke-width="0.002"/><path d="M 0.041 0.513 L 0.357 0.618" fill="none" stroke="purple" stroke-width="0.002"/><path d="M 0.801 0.410 L 0.000 0.665" fill="none" stroke="purple" stroke-width="0.002"/><path d="M 0.951 0.437 L 0.000 0.728" fill="none" stroke="purple" stroke-width="0.002"/><path d="M 0.992 0.468 L 0.605 0.748" fill="none" stroke="purple" stroke-width="0.002"/><path d="M 0.689 0.692 L 0.605 0.748" fill="none" stroke="purple" stroke-width="0.002"/><path d="M 1.028 0.495 L 0.966 0.538" fill="none" stroke="purple" stroke-width="0.002"/></svg>