<svg xmlns="http://www.w3.org/2000/svg" xmlns:xlink="http://www.w3.org/1999/xlink" width="400px" height="400px" viewBox="0.000 0.000 1.113 0.429"><path d="M0.395 0.000L1.036 0.114L1.113 0.172L1.026 0.429L0.793 0.350L0.772 0.366L0.774 0.369L0.690 0.425L0.572 0.255L0.085 0.404L0.000 0.278Z" fill="silver" stroke="gray" stroke-width="0.005"/><g fill="none" stroke="purple" stroke-width="0.002"><path d="M1.036 0.114L1.113 0.172"/><path d="M0.886 0.087L1.051 0.215"/><path d="M0.546 0.027L0.774 0.369"/><path d="M0.395 0.000L0.690 0.425"/><path d="M0.085 0.342L0.085 0.404"/><path d="M0.126 0.189L0.121 0.393"/><path d="M0.597 0.036L0.590 0.281"/><path d="M0.482 0.244L0.519 0.272"/><path d="M0.597 0.036L0.519 0.272"/><path d="M0.085 0.342L0.121 0.393"/><path d="M0.000 0.278L0.085 0.404"/><path d="M0.000 0.278L0.071 0.375"/><path d="M0.395 0.000L1.036 0.114"/><path d="M0.395 0.000L0.000 0.278"/><path d="M1.113 0.172L1.026 0.429"/><path d="M1.077 0.145L1.051 0.215"/><path d="M0.590 0.281L1.026 0.429"/><path d="M0.482 0.244L0.443 0.295"/><path d="M0.546 0.027L0.071 0.375"/><path d="M0.126 0.189L0.443 0.295"/><path d="M0.886 0.087L0.085 0.342"/><path d="M1.036 0.114L0.085 0.404"/><path d="M1.077 0.145L0.690 0.425"/><path d="M0.774 0.369L0.690 0.425"/><path d="M1.113 0.172L1.051 0.215"/></g></svg>