<svg xmlns="http://www.w3.org/2000/svg" xmlns:xlink="http://www.w3.org/1999/xlink" width="400px" height="400px" viewBox="0.000 0.000 0.943 0.935"><path d="M0.097 0.000L0.572 0.024L0.943 0.233L0.665 0.727L0.722 0.766L0.720 0.822L0.785 0.925L0.781 0.935L0.741 0.921L0.717 0.918L0.366 0.518L0.195 0.189L0.046 0.254L0.000 0.148Z" fill="silver" stroke="gray" stroke-width="0.005"/><g fill="none" stroke="purple" stroke-width="0.002"><path d="M0.667 0.728L0.709 0.909"/><path d="M0.073 0.036L0.103 0.148"/><path d="M0.722 0.766L0.717 0.918"/><path d="M0.213 0.006L0.785 0.925"/><path d="M0.097 0.000L0.366 0.518"/><path d="M0.000 0.148L0.046 0.254"/><path d="M0.721 0.129L0.562 0.741"/><path d="M0.097 0.000L0.000 0.148"/><path d="M0.366 0.518L0.717 0.918"/><path d="M0.572 0.024L0.943 0.233"/><path d="M0.213 0.006L0.103 0.148"/><path d="M0.785 0.925L0.781 0.935"/><path d="M0.366 0.518L0.722 0.766"/><path d="M0.943 0.233L0.620 0.807"/><path d="M0.254 0.008L0.721 0.129"/><path d="M0.097 0.000L0.572 0.024"/><path d="M0.254 0.008L0.073 0.036"/><path d="M0.572 0.024L0.046 0.254"/><path d="M0.000 0.148L0.103 0.148"/><path d="M0.709 0.909L0.781 0.935"/><path d="M0.667 0.728L0.562 0.741"/><path d="M0.717 0.918L0.785 0.925"/><path d="M0.722 0.766L0.620 0.807"/></g></svg>