<svg xmlns="http://www.w3.org/2000/svg" xmlns:xlink="http://www.w3.org/1999/xlink" width="300px" height="300px" viewBox="0.000 0.000 1.059 1.787"><rect x="0" y="0" width="1" height="1" fill="none" stroke="blue" stroke-width="0.005"/><path d="M 0.212 0.852 L 0.688 0.876 L 1.059 1.084 L 0.781 1.579 L 0.837 1.618 L 0.836 1.673 L 0.900 1.777 L 0.896 1.787 L 0.856 1.772 L 0.833 1.770 L 0.481 1.370 L 0.310 1.041 L 0.162 1.106 L 0.115 1.000 Z" fill="silver" stroke="gray" stroke-width="0.005"/><path d="M 0.782 1.580 L 0.824 1.760" fill="none" stroke="purple" stroke-width="0.002"/><path d="M 0.189 0.888 L 0.218 1.000" fill="none" stroke="purple" stroke-width="0.002"/><path d="M 0.837 1.618 L 0.833 1.770" fill="none" stroke="purple" stroke-width="0.002"/><path d="M 0.328 0.858 L 0.900 1.777" fill="none" stroke="purple" stroke-width="0.002"/><path d="M 0.212 0.852 L 0.481 1.370" fill="none" stroke="purple" stroke-width="0.002"/><path d="M 0.115 1.000 L 0.162 1.106" fill="none" stroke="purple" stroke-width="0.002"/><path d="M 0.837 0.981 L 0.677 1.593" fill="none" stroke="purple" stroke-width="0.002"/><path d="M 0.212 0.852 L 0.115 1.000" fill="none" stroke="purple" stroke-width="0.002"/><path d="M 0.481 1.370 L 0.833 1.770" fill="none" stroke="purple" stroke-width="0.002"/><path d="M 0.688 0.876 L 1.059 1.084" fill="none" stroke="purple" stroke-width="0.002"/><path d="M 0.328 0.858 L 0.218 1.000" fill="none" stroke="purple" stroke-width="0.002"/><path d="M 0.900 1.777 L 0.896 1.787" fill="none" stroke="purple" stroke-width="0.002"/><path d="M 0.481 1.370 L 0.837 1.618" fill="none" stroke="purple" stroke-width="0.002"/><path d="M 1.059 1.084 L 0.735 1.659" fill="none" stroke="purple" stroke-width="0.002"/><path d="M 0.369 0.860 L 0.837 0.981" fill="none" stroke="purple" stroke-width="0.002"/><path d="M 0.212 0.852 L 0.688 0.876" fill="none" stroke="purple" stroke-width="0.002"/><path d="M 0.369 0.860 L 0.189 0.888" fill="none" stroke="purple" stroke-width="0.002"/><path d="M 0.688 0.876 L 0.162 1.106" fill="none" stroke="purple" stroke-width="0.002"/><path d="M 0.115 1.000 L 0.218 1.000" fill="none" stroke="purple" stroke-width="0.002"/><path d="M 0.824 1.760 L 0.896 1.787" fill="none" stroke="purple" stroke-width="0.002"/><path d="M 0.782 1.580 L 0.677 1.593" fill="none" stroke="purple" stroke-width="0.002"/><path d="M 0.833 1.770 L 0.900 1.777" fill="none" stroke="purple" stroke-width="0.002"/><path d="M 0.837 1.618 L 0.735 1.659" fill="none" stroke="purple" stroke-width="0.002"/></svg>