<svg xmlns="http://www.w3.org/2000/svg" xmlns:xlink="http://www.w3.org/1999/xlink" width="400px" height="400px" viewBox="0.000 0.000 0.585 0.635"><path d="M0.058 0.000L0.150 0.009L0.323 0.298L0.438 0.227L0.473 0.240L0.560 0.581L0.585 0.589L0.569 0.635L0.149 0.603L0.000 0.373L0.027 0.308Z" fill="silver" stroke="gray" stroke-width="0.005"/><g fill="none" stroke="purple" stroke-width="0.002"><path d="M0.150 0.009L0.000 0.373"/><path d="M0.058 0.000L0.150 0.009"/><path d="M0.438 0.227L0.133 0.415"/><path d="M0.473 0.240L0.149 0.603"/><path d="M0.201 0.381L0.136 0.416"/><path d="M0.058 0.000L0.018 0.400"/><path d="M0.480 0.266L0.122 0.373"/><path d="M0.330 0.377L0.310 0.615"/><path d="M0.442 0.275L0.408 0.623"/><path d="M0.325 0.406L0.310 0.615"/><path d="M0.480 0.266L0.442 0.275"/><path d="M0.585 0.589L0.569 0.635"/><path d="M0.421 0.385L0.408 0.623"/><path d="M0.561 0.586L0.523 0.632"/><path d="M0.507 0.372L0.243 0.459"/><path d="M0.561 0.584L0.569 0.635"/><path d="M0.473 0.240L0.561 0.586"/><path d="M0.507 0.372L0.325 0.406"/><path d="M0.438 0.227L0.473 0.240"/><path d="M0.438 0.227L0.561 0.584"/><path d="M0.000 0.373L0.421 0.385"/><path d="M0.122 0.373L0.133 0.415"/><path d="M0.330 0.377L0.421 0.385"/><path d="M0.122 0.373L0.136 0.416"/><path d="M0.150 0.009L0.523 0.632"/><path d="M0.201 0.381L0.243 0.459"/><path d="M0.018 0.400L0.585 0.589"/><path d="M0.133 0.415L0.561 0.586"/><path d="M0.000 0.373L0.149 0.603"/><path d="M0.149 0.603L0.569 0.635"/></g></svg>