<svg xmlns="http://www.w3.org/2000/svg" xmlns:xlink="http://www.w3.org/1999/xlink" width="300px" height="300px" viewBox="-0.781 -0.234 1.781 1.234"><rect x="0" y="0" width="1" height="1" fill="none" stroke="blue" stroke-width="0.005"/><path d="M -0.723 -0.234 L -0.630 -0.225 L -0.458 0.064 L -0.343 -0.007 L -0.307 0.006 L -0.221 0.347 L -0.196 0.355 L -0.211 0.401 L -0.632 0.368 L -0.781 0.139 L -0.754 0.074 Z" fill="silver" stroke="gray" stroke-width="0.005"/><path d="M -0.630 -0.225 L -0.781 0.139" fill="none" stroke="purple" stroke-width="0.002"/><path d="M -0.723 -0.234 L -0.630 -0.225" fill="none" stroke="purple" stroke-width="0.002"/><path d="M -0.343 -0.007 L -0.648 0.181" fill="none" stroke="purple" stroke-width="0.002"/><path d="M -0.307 0.006 L -0.632 0.368" fill="none" stroke="purple" stroke-width="0.002"/><path d="M -0.580 0.147 L -0.645 0.182" fill="none" stroke="purple" stroke-width="0.002"/><path d="M -0.723 -0.234 L -0.763 0.166" fill="none" stroke="purple" stroke-width="0.002"/><path d="M -0.301 0.032 L -0.659 0.139" fill="none" stroke="purple" stroke-width="0.002"/><path d="M -0.451 0.143 L -0.471 0.381" fill="none" stroke="purple" stroke-width="0.002"/><path d="M -0.339 0.040 L -0.373 0.389" fill="none" stroke="purple" stroke-width="0.002"/><path d="M -0.456 0.172 L -0.471 0.381" fill="none" stroke="purple" stroke-width="0.002"/><path d="M -0.301 0.032 L -0.339 0.040" fill="none" stroke="purple" stroke-width="0.002"/><path d="M -0.196 0.355 L -0.211 0.401" fill="none" stroke="purple" stroke-width="0.002"/><path d="M -0.360 0.151 L -0.373 0.389" fill="none" stroke="purple" stroke-width="0.002"/><path d="M -0.220 0.352 L -0.258 0.398" fill="none" stroke="purple" stroke-width="0.002"/><path d="M -0.274 0.138 L -0.538 0.225" fill="none" stroke="purple" stroke-width="0.002"/><path d="M -0.220 0.350 L -0.211 0.401" fill="none" stroke="purple" stroke-width="0.002"/><path d="M -0.307 0.006 L -0.220 0.352" fill="none" stroke="purple" stroke-width="0.002"/><path d="M -0.274 0.138 L -0.456 0.172" fill="none" stroke="purple" stroke-width="0.002"/><path d="M -0.343 -0.007 L -0.307 0.006" fill="none" stroke="purple" stroke-width="0.002"/><path d="M -0.343 -0.007 L -0.220 0.350" fill="none" stroke="purple" stroke-width="0.002"/><path d="M -0.781 0.139 L -0.360 0.151" fill="none" stroke="purple" stroke-width="0.002"/><path d="M -0.659 0.139 L -0.648 0.181" fill="none" stroke="purple" stroke-width="0.002"/><path d="M -0.451 0.143 L -0.360 0.151" fill="none" stroke="purple" stroke-width="0.002"/><path d="M -0.659 0.139 L -0.645 0.182" fill="none" stroke="purple" stroke-width="0.002"/><path d="M -0.630 -0.225 L -0.258 0.398" fill="none" stroke="purple" stroke-width="0.002"/><path d="M -0.580 0.147 L -0.538 0.225" fill="none" stroke="purple" stroke-width="0.002"/><path d="M -0.763 0.166 L -0.196 0.355" fill="none" stroke="purple" stroke-width="0.002"/><path d="M -0.648 0.181 L -0.220 0.352" fill="none" stroke="purple" stroke-width="0.002"/><path d="M -0.781 0.139 L -0.632 0.368" fill="none" stroke="purple" stroke-width="0.002"/><path d="M -0.632 0.368 L -0.211 0.401" fill="none" stroke="purple" stroke-width="0.002"/></svg>