<svg xmlns="http://www.w3.org/2000/svg" xmlns:xlink="http://www.w3.org/1999/xlink" width="300px" height="300px" viewBox="0.000 -0.128 1.347 1.128"><rect x="0" y="0" width="1" height="1" fill="none" stroke="blue" stroke-width="0.005"/><path d="M 0.796 -0.128 L 0.842 -0.001 L 0.932 0.051 L 0.937 0.047 L 1.347 0.121 L 1.319 0.274 L 1.227 0.316 L 0.648 0.339 L 0.638 0.279 L 0.658 0.228 L 0.687 -0.089 Z" fill="silver" stroke="gray" stroke-width="0.005"/><path d="M 0.687 -0.089 L 1.319 0.274" fill="none" stroke="purple" stroke-width="0.002"/><path d="M 0.804 0.159 L 0.932 0.328" fill="none" stroke="purple" stroke-width="0.002"/><path d="M 1.019 0.194 L 1.240 0.311" fill="none" stroke="purple" stroke-width="0.002"/><path d="M 0.796 -0.128 L 0.864 0.063" fill="none" stroke="purple" stroke-width="0.002"/><path d="M 0.678 0.186 L 0.764 0.291" fill="none" stroke="purple" stroke-width="0.002"/><path d="M 0.655 0.261 L 0.705 0.315" fill="none" stroke="purple" stroke-width="0.002"/><path d="M 0.640 0.292 L 0.677 0.338" fill="none" stroke="purple" stroke-width="0.002"/><path d="M 0.638 0.279 L 0.689 0.338" fill="none" stroke="purple" stroke-width="0.002"/><path d="M 0.887 0.190 L 0.911 0.329" fill="none" stroke="purple" stroke-width="0.002"/><path d="M 0.701 0.121 L 1.227 0.316" fill="none" stroke="purple" stroke-width="0.002"/><path d="M 0.937 0.047 L 1.347 0.121" fill="none" stroke="purple" stroke-width="0.002"/><path d="M 0.638 0.279 L 0.648 0.339" fill="none" stroke="purple" stroke-width="0.002"/><path d="M 0.673 0.070 L 1.264 0.199" fill="none" stroke="purple" stroke-width="0.002"/><path d="M 0.653 0.290 L 0.705 0.315" fill="none" stroke="purple" stroke-width="0.002"/><path d="M 0.687 -0.089 L 0.648 0.339" fill="none" stroke="purple" stroke-width="0.002"/><path d="M 0.937 0.047 L 0.911 0.329" fill="none" stroke="purple" stroke-width="0.002"/><path d="M 0.864 0.063 L 0.673 0.070" fill="none" stroke="purple" stroke-width="0.002"/><path d="M 0.796 -0.128 L 0.687 -0.089" fill="none" stroke="purple" stroke-width="0.002"/><path d="M 0.701 0.121 L 0.640 0.292" fill="none" stroke="purple" stroke-width="0.002"/><path d="M 1.347 0.121 L 1.319 0.274" fill="none" stroke="purple" stroke-width="0.002"/><path d="M 0.701 0.121 L 0.638 0.279" fill="none" stroke="purple" stroke-width="0.002"/><path d="M 1.264 0.199 L 1.240 0.311" fill="none" stroke="purple" stroke-width="0.002"/><path d="M 0.804 0.159 L 0.678 0.186" fill="none" stroke="purple" stroke-width="0.002"/><path d="M 1.227 0.316 L 0.648 0.339" fill="none" stroke="purple" stroke-width="0.002"/><path d="M 0.864 0.063 L 0.677 0.338" fill="none" stroke="purple" stroke-width="0.002"/><path d="M 1.019 0.194 L 0.653 0.290" fill="none" stroke="purple" stroke-width="0.002"/><path d="M 0.705 0.315 L 0.689 0.338" fill="none" stroke="purple" stroke-width="0.002"/><path d="M 0.937 0.047 L 0.655 0.261" fill="none" stroke="purple" stroke-width="0.002"/><path d="M 1.019 0.194 L 0.932 0.328" fill="none" stroke="purple" stroke-width="0.002"/><path d="M 0.887 0.190 L 0.764 0.291" fill="none" stroke="purple" stroke-width="0.002"/><path d="M 1.319 0.274 L 1.227 0.316" fill="none" stroke="purple" stroke-width="0.002"/></svg>