<svg xmlns="http://www.w3.org/2000/svg" xmlns:xlink="http://www.w3.org/1999/xlink" width="400px" height="400px" viewBox="0.000 0.000 0.709 0.468"><path d="M0.158 0.000L0.204 0.128L0.293 0.179L0.299 0.175L0.709 0.249L0.681 0.402L0.589 0.445L0.010 0.468L0.000 0.408L0.020 0.356L0.049 0.039Z" fill="silver" stroke="gray" stroke-width="0.005"/><g fill="none" stroke="purple" stroke-width="0.002"><path d="M0.049 0.039L0.681 0.402"/><path d="M0.165 0.287L0.294 0.456"/><path d="M0.380 0.322L0.601 0.439"/><path d="M0.158 0.000L0.226 0.191"/><path d="M0.040 0.314L0.126 0.419"/><path d="M0.017 0.389L0.067 0.443"/><path d="M0.002 0.420L0.039 0.466"/><path d="M0.000 0.408L0.050 0.466"/><path d="M0.249 0.318L0.273 0.457"/><path d="M0.062 0.249L0.589 0.445"/><path d="M0.299 0.175L0.709 0.249"/><path d="M0.000 0.408L0.010 0.468"/><path d="M0.034 0.198L0.626 0.328"/><path d="M0.015 0.419L0.067 0.443"/><path d="M0.049 0.039L0.010 0.468"/><path d="M0.299 0.175L0.273 0.457"/><path d="M0.226 0.191L0.034 0.198"/><path d="M0.158 0.000L0.049 0.039"/><path d="M0.062 0.249L0.002 0.420"/><path d="M0.709 0.249L0.681 0.402"/><path d="M0.062 0.249L0.000 0.408"/><path d="M0.626 0.328L0.601 0.439"/><path d="M0.165 0.287L0.040 0.314"/><path d="M0.589 0.445L0.010 0.468"/><path d="M0.226 0.191L0.039 0.466"/><path d="M0.380 0.322L0.015 0.419"/><path d="M0.067 0.443L0.050 0.466"/><path d="M0.299 0.175L0.017 0.389"/><path d="M0.380 0.322L0.294 0.456"/><path d="M0.249 0.318L0.126 0.419"/><path d="M0.681 0.402L0.589 0.445"/></g></svg>