<svg xmlns="http://www.w3.org/2000/svg" xmlns:xlink="http://www.w3.org/1999/xlink" width="300px" height="300px" viewBox="0.000 0.000 1.082 1.127"><rect x="0" y="0" width="1" height="1" fill="none" stroke="blue" stroke-width="0.005"/><path d="M 1.047 0.559 L 1.059 0.569 L 1.053 0.596 L 1.068 0.710 L 1.023 0.716 L 0.964 0.958 L 1.082 1.073 L 1.051 1.105 L 0.670 1.127 L 0.643 0.771 Z" fill="silver" stroke="gray" stroke-width="0.005"/><path d="M 1.047 0.559 L 1.059 0.569" fill="none" stroke="purple" stroke-width="0.002"/><path d="M 1.047 0.559 L 1.068 0.710" fill="none" stroke="purple" stroke-width="0.002"/><path d="M 0.779 0.818 L 0.808 0.978" fill="none" stroke="purple" stroke-width="0.002"/><path d="M 0.662 1.023 L 0.663 1.029" fill="none" stroke="purple" stroke-width="0.002"/><path d="M 0.643 0.771 L 0.670 1.127" fill="none" stroke="purple" stroke-width="0.002"/><path d="M 0.879 0.649 L 1.015 0.749" fill="none" stroke="purple" stroke-width="0.002"/><path d="M 0.956 0.951 L 1.082 1.073" fill="none" stroke="purple" stroke-width="0.002"/><path d="M 0.672 0.756 L 0.662 1.023" fill="none" stroke="purple" stroke-width="0.002"/><path d="M 0.748 0.808 L 0.782 0.834" fill="none" stroke="purple" stroke-width="0.002"/><path d="M 0.657 0.951 L 0.824 1.118" fill="none" stroke="purple" stroke-width="0.002"/><path d="M 0.644 0.774 L 1.051 1.105" fill="none" stroke="purple" stroke-width="0.002"/><path d="M 0.672 0.756 L 0.968 0.943" fill="none" stroke="purple" stroke-width="0.002"/><path d="M 1.059 0.569 L 0.929 1.103" fill="none" stroke="purple" stroke-width="0.002"/><path d="M 0.663 1.029 L 0.730 1.080" fill="none" stroke="purple" stroke-width="0.002"/><path d="M 0.652 0.880 L 0.808 0.978" fill="none" stroke="purple" stroke-width="0.002"/><path d="M 0.655 0.927 L 0.929 1.103" fill="none" stroke="purple" stroke-width="0.002"/><path d="M 0.643 0.771 L 0.779 0.818" fill="none" stroke="purple" stroke-width="0.002"/><path d="M 0.782 0.834 L 0.663 1.029" fill="none" stroke="purple" stroke-width="0.002"/><path d="M 0.879 0.649 L 0.657 0.951" fill="none" stroke="purple" stroke-width="0.002"/><path d="M 0.649 0.768 L 0.644 0.774" fill="none" stroke="purple" stroke-width="0.002"/><path d="M 0.808 0.978 L 0.730 1.080" fill="none" stroke="purple" stroke-width="0.002"/><path d="M 1.059 0.569 L 0.994 0.586" fill="none" stroke="purple" stroke-width="0.002"/><path d="M 0.646 0.807 L 0.748 0.808" fill="none" stroke="purple" stroke-width="0.002"/><path d="M 0.994 0.586 L 0.652 0.880" fill="none" stroke="purple" stroke-width="0.002"/><path d="M 0.956 0.951 L 0.824 1.118" fill="none" stroke="purple" stroke-width="0.002"/><path d="M 1.068 0.710 L 0.649 0.768" fill="none" stroke="purple" stroke-width="0.002"/><path d="M 0.779 0.818 L 0.655 0.927" fill="none" stroke="purple" stroke-width="0.002"/><path d="M 1.047 0.559 L 0.643 0.771" fill="none" stroke="purple" stroke-width="0.002"/><path d="M 1.015 0.749 L 0.646 0.807" fill="none" stroke="purple" stroke-width="0.002"/><path d="M 0.956 0.951 L 0.658 0.970" fill="none" stroke="purple" stroke-width="0.002"/><path d="M 0.968 0.943 L 0.658 0.970" fill="none" stroke="purple" stroke-width="0.002"/><path d="M 1.082 1.073 L 1.051 1.105" fill="none" stroke="purple" stroke-width="0.002"/><path d="M 1.051 1.105 L 0.670 1.127" fill="none" stroke="purple" stroke-width="0.002"/><path d="M 0.929 1.103 L 0.670 1.127" fill="none" stroke="purple" stroke-width="0.002"/></svg>