<svg xmlns="http://www.w3.org/2000/svg" xmlns:xlink="http://www.w3.org/1999/xlink" width="400px" height="400px" viewBox="0.000 0.000 0.439 0.568"><path d="M0.404 0.000L0.416 0.011L0.409 0.037L0.425 0.151L0.380 0.158L0.321 0.400L0.439 0.515L0.408 0.546L0.027 0.568L0.000 0.213Z" fill="silver" stroke="gray" stroke-width="0.005"/><g fill="none" stroke="purple" stroke-width="0.002"><path d="M0.404 0.000L0.416 0.011"/><path d="M0.404 0.000L0.425 0.151"/><path d="M0.136 0.260L0.165 0.419"/><path d="M0.019 0.464L0.020 0.470"/><path d="M0.000 0.213L0.027 0.568"/><path d="M0.236 0.090L0.372 0.191"/><path d="M0.313 0.392L0.439 0.515"/><path d="M0.029 0.197L0.019 0.464"/><path d="M0.105 0.249L0.139 0.275"/><path d="M0.013 0.392L0.181 0.559"/><path d="M0.000 0.216L0.408 0.546"/><path d="M0.029 0.197L0.324 0.385"/><path d="M0.416 0.011L0.285 0.544"/><path d="M0.020 0.470L0.087 0.521"/><path d="M0.008 0.321L0.165 0.419"/><path d="M0.012 0.369L0.285 0.544"/><path d="M0.000 0.213L0.136 0.260"/><path d="M0.139 0.275L0.020 0.470"/><path d="M0.236 0.090L0.013 0.392"/><path d="M0.006 0.209L0.000 0.216"/><path d="M0.165 0.419L0.087 0.521"/><path d="M0.416 0.011L0.351 0.028"/><path d="M0.003 0.249L0.105 0.249"/><path d="M0.351 0.028L0.008 0.321"/><path d="M0.313 0.392L0.181 0.559"/><path d="M0.425 0.151L0.006 0.209"/><path d="M0.136 0.260L0.012 0.369"/><path d="M0.404 0.000L0.000 0.213"/><path d="M0.372 0.191L0.003 0.249"/><path d="M0.313 0.392L0.015 0.411"/><path d="M0.324 0.385L0.015 0.411"/><path d="M0.439 0.515L0.408 0.546"/><path d="M0.408 0.546L0.027 0.568"/><path d="M0.285 0.544L0.027 0.568"/></g></svg>