<svg xmlns="http://www.w3.org/2000/svg" xmlns:xlink="http://www.w3.org/1999/xlink" width="400px" height="400px" viewBox="0.000 0.000 0.741 0.881"><path d="M0.379 0.000L0.495 0.013L0.741 0.776L0.684 0.881L0.182 0.856L0.000 0.758L0.202 0.276L0.280 0.206Z" fill="silver" stroke="gray" stroke-width="0.005"/><g fill="none" stroke="purple" stroke-width="0.002"><path d="M0.379 0.000L0.495 0.013"/><path d="M0.144 0.487L0.741 0.776"/><path d="M0.082 0.563L0.145 0.593"/><path d="M0.082 0.563L0.217 0.613"/><path d="M0.030 0.685L0.071 0.719"/><path d="M0.600 0.680L0.684 0.881"/><path d="M0.000 0.758L0.182 0.856"/><path d="M0.495 0.013L0.741 0.776"/><path d="M0.000 0.758L0.013 0.762"/><path d="M0.030 0.685L0.135 0.695"/><path d="M0.044 0.652L0.071 0.719"/><path d="M0.379 0.000L0.485 0.446"/><path d="M0.624 0.413L0.485 0.446"/><path d="M0.182 0.856L0.684 0.881"/><path d="M0.202 0.276L0.217 0.613"/><path d="M0.013 0.726L0.013 0.762"/><path d="M0.624 0.413L0.044 0.652"/><path d="M0.145 0.593L0.135 0.695"/><path d="M0.495 0.013L0.202 0.276"/><path d="M0.600 0.680L0.182 0.856"/><path d="M0.217 0.613L0.013 0.762"/><path d="M0.202 0.276L0.000 0.758"/><path d="M0.379 0.000L0.144 0.487"/><path d="M0.145 0.593L0.013 0.726"/><path d="M0.741 0.776L0.684 0.881"/></g></svg>