<svg xmlns="http://www.w3.org/2000/svg" xmlns:xlink="http://www.w3.org/1999/xlink" width="300px" height="300px" viewBox="0.000 -1.011 1.621 2.011"><rect x="0" y="0" width="1" height="1" fill="none" stroke="blue" stroke-width="0.005"/><path d="M 1.260 -1.011 L 1.375 -0.998 L 1.621 -0.235 L 1.565 -0.130 L 1.062 -0.155 L 0.881 -0.254 L 1.082 -0.735 L 1.160 -0.805 Z" fill="silver" stroke="gray" stroke-width="0.005"/><path d="M 1.260 -1.011 L 1.375 -0.998" fill="none" stroke="purple" stroke-width="0.002"/><path d="M 1.024 -0.524 L 1.621 -0.235" fill="none" stroke="purple" stroke-width="0.002"/><path d="M 0.962 -0.448 L 1.026 -0.418" fill="none" stroke="purple" stroke-width="0.002"/><path d="M 0.962 -0.448 L 1.097 -0.399" fill="none" stroke="purple" stroke-width="0.002"/><path d="M 0.911 -0.326 L 0.952 -0.292" fill="none" stroke="purple" stroke-width="0.002"/><path d="M 1.481 -0.331 L 1.565 -0.130" fill="none" stroke="purple" stroke-width="0.002"/><path d="M 0.881 -0.254 L 1.062 -0.155" fill="none" stroke="purple" stroke-width="0.002"/><path d="M 1.375 -0.998 L 1.621 -0.235" fill="none" stroke="purple" stroke-width="0.002"/><path d="M 0.881 -0.254 L 0.894 -0.250" fill="none" stroke="purple" stroke-width="0.002"/><path d="M 0.911 -0.326 L 1.016 -0.316" fill="none" stroke="purple" stroke-width="0.002"/><path d="M 0.925 -0.359 L 0.952 -0.292" fill="none" stroke="purple" stroke-width="0.002"/><path d="M 1.260 -1.011 L 1.366 -0.565" fill="none" stroke="purple" stroke-width="0.002"/><path d="M 1.504 -0.598 L 1.366 -0.565" fill="none" stroke="purple" stroke-width="0.002"/><path d="M 1.062 -0.155 L 1.565 -0.130" fill="none" stroke="purple" stroke-width="0.002"/><path d="M 1.082 -0.735 L 1.097 -0.399" fill="none" stroke="purple" stroke-width="0.002"/><path d="M 0.894 -0.285 L 0.894 -0.250" fill="none" stroke="purple" stroke-width="0.002"/><path d="M 1.504 -0.598 L 0.925 -0.359" fill="none" stroke="purple" stroke-width="0.002"/><path d="M 1.026 -0.418 L 1.016 -0.316" fill="none" stroke="purple" stroke-width="0.002"/><path d="M 1.375 -0.998 L 1.082 -0.735" fill="none" stroke="purple" stroke-width="0.002"/><path d="M 1.481 -0.331 L 1.062 -0.155" fill="none" stroke="purple" stroke-width="0.002"/><path d="M 1.097 -0.399 L 0.894 -0.250" fill="none" stroke="purple" stroke-width="0.002"/><path d="M 1.082 -0.735 L 0.881 -0.254" fill="none" stroke="purple" stroke-width="0.002"/><path d="M 1.260 -1.011 L 1.024 -0.524" fill="none" stroke="purple" stroke-width="0.002"/><path d="M 1.026 -0.418 L 0.894 -0.285" fill="none" stroke="purple" stroke-width="0.002"/><path d="M 1.621 -0.235 L 1.565 -0.130" fill="none" stroke="purple" stroke-width="0.002"/></svg>