<svg xmlns="http://www.w3.org/2000/svg" xmlns:xlink="http://www.w3.org/1999/xlink" width="400px" height="400px" viewBox="0.000 0.000 0.720 0.757"><path d="M0.011 0.000L0.720 0.167L0.713 0.227L0.690 0.248L0.514 0.723L0.384 0.757L0.195 0.403L0.265 0.365L0.231 0.315L0.093 0.352L0.000 0.006Z" fill="silver" stroke="gray" stroke-width="0.005"/><g fill="none" stroke="purple" stroke-width="0.002"><path d="M0.661 0.154L0.713 0.227"/><path d="M0.469 0.169L0.591 0.497"/><path d="M0.514 0.119L0.544 0.231"/><path d="M0.414 0.557L0.433 0.606"/><path d="M0.011 0.000L0.514 0.723"/><path d="M0.195 0.403L0.384 0.757"/><path d="M0.000 0.006L0.430 0.483"/><path d="M0.000 0.006L0.093 0.352"/><path d="M0.597 0.138L0.615 0.451"/><path d="M0.383 0.693L0.384 0.757"/><path d="M0.433 0.606L0.527 0.690"/><path d="M0.011 0.000L0.720 0.167"/><path d="M0.720 0.167L0.713 0.227"/><path d="M0.469 0.169L0.397 0.554"/><path d="M0.011 0.000L0.000 0.006"/><path d="M0.720 0.167L0.514 0.723"/><path d="M0.597 0.138L0.544 0.231"/><path d="M0.514 0.119L0.469 0.169"/><path d="M0.544 0.231L0.093 0.352"/><path d="M0.397 0.554L0.414 0.557"/><path d="M0.661 0.154L0.195 0.403"/><path d="M0.414 0.557L0.405 0.566"/><path d="M0.713 0.227L0.430 0.483"/><path d="M0.615 0.451L0.383 0.693"/><path d="M0.591 0.497L0.405 0.566"/><path d="M0.527 0.690L0.383 0.693"/><path d="M0.514 0.723L0.384 0.757"/></g></svg>