<svg xmlns="http://www.w3.org/2000/svg" xmlns:xlink="http://www.w3.org/1999/xlink" width="300px" height="300px" viewBox="0.000 0.000 1.005 1.000"><rect x="0" y="0" width="1" height="1" fill="none" stroke="blue" stroke-width="0.005"/><path d="M 0.296 0.167 L 1.005 0.335 L 0.998 0.394 L 0.975 0.415 L 0.800 0.890 L 0.669 0.924 L 0.480 0.570 L 0.550 0.533 L 0.516 0.483 L 0.378 0.520 L 0.285 0.174 Z" fill="silver" stroke="gray" stroke-width="0.005"/><path d="M 0.946 0.321 L 0.998 0.394" fill="none" stroke="purple" stroke-width="0.002"/><path d="M 0.754 0.336 L 0.876 0.664" fill="none" stroke="purple" stroke-width="0.002"/><path d="M 0.799 0.286 L 0.829 0.398" fill="none" stroke="purple" stroke-width="0.002"/><path d="M 0.699 0.724 L 0.718 0.773" fill="none" stroke="purple" stroke-width="0.002"/><path d="M 0.296 0.167 L 0.800 0.890" fill="none" stroke="purple" stroke-width="0.002"/><path d="M 0.480 0.570 L 0.669 0.924" fill="none" stroke="purple" stroke-width="0.002"/><path d="M 0.285 0.174 L 0.715 0.650" fill="none" stroke="purple" stroke-width="0.002"/><path d="M 0.285 0.174 L 0.378 0.520" fill="none" stroke="purple" stroke-width="0.002"/><path d="M 0.882 0.306 L 0.900 0.618" fill="none" stroke="purple" stroke-width="0.002"/><path d="M 0.668 0.860 L 0.669 0.924" fill="none" stroke="purple" stroke-width="0.002"/><path d="M 0.718 0.773 L 0.812 0.857" fill="none" stroke="purple" stroke-width="0.002"/><path d="M 0.296 0.167 L 1.005 0.335" fill="none" stroke="purple" stroke-width="0.002"/><path d="M 1.005 0.335 L 0.998 0.394" fill="none" stroke="purple" stroke-width="0.002"/><path d="M 0.754 0.336 L 0.682 0.721" fill="none" stroke="purple" stroke-width="0.002"/><path d="M 0.296 0.167 L 0.285 0.174" fill="none" stroke="purple" stroke-width="0.002"/><path d="M 1.005 0.335 L 0.800 0.890" fill="none" stroke="purple" stroke-width="0.002"/><path d="M 0.882 0.306 L 0.829 0.398" fill="none" stroke="purple" stroke-width="0.002"/><path d="M 0.799 0.286 L 0.754 0.336" fill="none" stroke="purple" stroke-width="0.002"/><path d="M 0.829 0.398 L 0.378 0.520" fill="none" stroke="purple" stroke-width="0.002"/><path d="M 0.682 0.721 L 0.699 0.724" fill="none" stroke="purple" stroke-width="0.002"/><path d="M 0.946 0.321 L 0.480 0.570" fill="none" stroke="purple" stroke-width="0.002"/><path d="M 0.699 0.724 L 0.690 0.734" fill="none" stroke="purple" stroke-width="0.002"/><path d="M 0.998 0.394 L 0.715 0.650" fill="none" stroke="purple" stroke-width="0.002"/><path d="M 0.900 0.618 L 0.668 0.860" fill="none" stroke="purple" stroke-width="0.002"/><path d="M 0.876 0.664 L 0.690 0.734" fill="none" stroke="purple" stroke-width="0.002"/><path d="M 0.812 0.857 L 0.668 0.860" fill="none" stroke="purple" stroke-width="0.002"/><path d="M 0.800 0.890 L 0.669 0.924" fill="none" stroke="purple" stroke-width="0.002"/></svg>