<svg xmlns="http://www.w3.org/2000/svg" xmlns:xlink="http://www.w3.org/1999/xlink" width="300px" height="300px" viewBox="-0.898 -0.411 1.898 1.411"><rect x="0" y="0" width="1" height="1" fill="none" stroke="blue" stroke-width="0.005"/><path d="M -0.427 -0.411 L -0.302 -0.359 L -0.318 -0.260 L -0.260 -0.179 L -0.284 -0.126 L -0.340 -0.129 L -0.388 0.161 L -0.811 0.369 L -0.898 0.330 L -0.780 0.069 L -0.792 0.051 L -0.744 -0.010 L -0.743 -0.012 L -0.742 -0.012 L -0.730 -0.027 L -0.717 -0.036 L -0.715 -0.047 Z" fill="silver" stroke="gray" stroke-width="0.005"/><path d="M -0.382 -0.392 L -0.448 -0.384" fill="none" stroke="purple" stroke-width="0.002"/><path d="M -0.427 -0.411 L -0.715 -0.047" fill="none" stroke="purple" stroke-width="0.002"/><path d="M -0.730 -0.027 L -0.792 0.051" fill="none" stroke="purple" stroke-width="0.002"/><path d="M -0.311 -0.301 L -0.730 -0.027" fill="none" stroke="purple" stroke-width="0.002"/><path d="M -0.309 -0.248 L -0.715 -0.047" fill="none" stroke="purple" stroke-width="0.002"/><path d="M -0.743 -0.012 L -0.898 0.330" fill="none" stroke="purple" stroke-width="0.002"/><path d="M -0.309 -0.248 L -0.327 -0.230" fill="none" stroke="purple" stroke-width="0.002"/><path d="M -0.302 -0.359 L -0.349 -0.293" fill="none" stroke="purple" stroke-width="0.002"/><path d="M -0.730 -0.027 L -0.762 0.061" fill="none" stroke="purple" stroke-width="0.002"/><path d="M -0.260 -0.179 L -0.424 -0.161" fill="none" stroke="purple" stroke-width="0.002"/><path d="M -0.427 -0.411 L -0.302 -0.359" fill="none" stroke="purple" stroke-width="0.002"/><path d="M -0.715 -0.047 L -0.811 0.369" fill="none" stroke="purple" stroke-width="0.002"/><path d="M -0.260 -0.179 L -0.284 -0.126" fill="none" stroke="purple" stroke-width="0.002"/><path d="M -0.639 -0.143 L -0.284 -0.126" fill="none" stroke="purple" stroke-width="0.002"/><path d="M -0.302 -0.359 L -0.388 0.161" fill="none" stroke="purple" stroke-width="0.002"/><path d="M -0.463 -0.365 L -0.349 -0.293" fill="none" stroke="purple" stroke-width="0.002"/><path d="M -0.388 0.161 L -0.811 0.369" fill="none" stroke="purple" stroke-width="0.002"/><path d="M -0.453 -0.378 L -0.342 -0.293" fill="none" stroke="purple" stroke-width="0.002"/><path d="M -0.453 -0.378 L -0.349 -0.293" fill="none" stroke="purple" stroke-width="0.002"/><path d="M -0.743 -0.012 L -0.710 -0.010" fill="none" stroke="purple" stroke-width="0.002"/><path d="M -0.382 -0.392 L -0.311 -0.301" fill="none" stroke="purple" stroke-width="0.002"/><path d="M -0.448 -0.384 L -0.424 -0.161" fill="none" stroke="purple" stroke-width="0.002"/><path d="M -0.463 -0.365 L -0.327 -0.230" fill="none" stroke="purple" stroke-width="0.002"/><path d="M -0.427 -0.411 L -0.260 -0.179" fill="none" stroke="purple" stroke-width="0.002"/><path d="M -0.342 -0.293 L -0.284 -0.126" fill="none" stroke="purple" stroke-width="0.002"/><path d="M -0.639 -0.143 L -0.531 0.231" fill="none" stroke="purple" stroke-width="0.002"/><path d="M -0.743 -0.012 L -0.639 0.284" fill="none" stroke="purple" stroke-width="0.002"/><path d="M -0.710 -0.010 L -0.388 0.161" fill="none" stroke="purple" stroke-width="0.002"/><path d="M -0.792 0.051 L -0.762 0.061" fill="none" stroke="purple" stroke-width="0.002"/><path d="M -0.710 -0.010 L -0.531 0.231" fill="none" stroke="purple" stroke-width="0.002"/><path d="M -0.792 0.051 L -0.639 0.284" fill="none" stroke="purple" stroke-width="0.002"/><path d="M -0.898 0.330 L -0.811 0.369" fill="none" stroke="purple" stroke-width="0.002"/></svg>