<svg xmlns="http://www.w3.org/2000/svg" xmlns:xlink="http://www.w3.org/1999/xlink" width="400px" height="400px" viewBox="0.000 0.000 0.638 0.780"><path d="M0.471 0.000L0.596 0.052L0.580 0.150L0.638 0.231L0.614 0.284L0.558 0.282L0.510 0.571L0.087 0.780L0.000 0.741L0.118 0.480L0.106 0.461L0.154 0.400L0.155 0.399L0.156 0.399L0.168 0.383L0.181 0.375L0.183 0.364Z" fill="silver" stroke="gray" stroke-width="0.005"/><g fill="none" stroke="purple" stroke-width="0.002"><path d="M0.516 0.019L0.450 0.027"/><path d="M0.471 0.000L0.183 0.364"/><path d="M0.168 0.383L0.106 0.461"/><path d="M0.587 0.109L0.168 0.383"/><path d="M0.589 0.163L0.183 0.364"/><path d="M0.155 0.399L0.000 0.741"/><path d="M0.589 0.163L0.571 0.181"/><path d="M0.596 0.052L0.549 0.117"/><path d="M0.168 0.383L0.136 0.472"/><path d="M0.638 0.231L0.474 0.249"/><path d="M0.471 0.000L0.596 0.052"/><path d="M0.183 0.364L0.087 0.780"/><path d="M0.638 0.231L0.614 0.284"/><path d="M0.260 0.267L0.614 0.284"/><path d="M0.596 0.052L0.510 0.571"/><path d="M0.435 0.046L0.549 0.117"/><path d="M0.510 0.571L0.087 0.780"/><path d="M0.445 0.033L0.556 0.117"/><path d="M0.445 0.033L0.549 0.117"/><path d="M0.155 0.399L0.188 0.400"/><path d="M0.516 0.019L0.587 0.109"/><path d="M0.450 0.027L0.474 0.249"/><path d="M0.435 0.046L0.571 0.181"/><path d="M0.471 0.000L0.638 0.231"/><path d="M0.556 0.117L0.614 0.284"/><path d="M0.260 0.267L0.367 0.642"/><path d="M0.155 0.399L0.259 0.695"/><path d="M0.188 0.400L0.510 0.571"/><path d="M0.106 0.461L0.136 0.472"/><path d="M0.188 0.400L0.367 0.642"/><path d="M0.106 0.461L0.259 0.695"/><path d="M0.000 0.741L0.087 0.780"/></g></svg>