<svg xmlns="http://www.w3.org/2000/svg" xmlns:xlink="http://www.w3.org/1999/xlink" width="400px" height="400px" viewBox="0.000 0.000 0.806 0.930"><path d="M0.806 0.000L0.431 0.930L0.000 0.209Z" fill="silver" stroke="gray" stroke-width="0.005"/><g fill="none" stroke="purple" stroke-width="0.002"><path d="M0.735 0.018L0.757 0.033"/><path d="M0.716 0.057L0.772 0.086"/><path d="M0.753 0.014L0.774 0.081"/><path d="M0.753 0.014L0.757 0.033"/><path d="M0.635 0.044L0.772 0.086"/><path d="M0.319 0.475L0.441 0.906"/><path d="M0.428 0.913L0.431 0.930"/><path d="M0.177 0.297L0.228 0.376"/><path d="M0.000 0.209L0.431 0.930"/><path d="M0.145 0.172L0.632 0.433"/><path d="M0.000 0.209L0.177 0.297"/><path d="M0.145 0.172L0.058 0.306"/><path d="M0.560 0.413L0.420 0.911"/><path d="M0.560 0.413L0.632 0.433"/><path d="M0.806 0.000L0.000 0.209"/><path d="M0.806 0.000L0.431 0.930"/><path d="M0.735 0.018L0.716 0.057"/><path d="M0.177 0.297L0.058 0.306"/><path d="M0.635 0.044L0.182 0.514"/><path d="M0.228 0.376L0.136 0.436"/><path d="M0.806 0.000L0.757 0.033"/><path d="M0.774 0.081L0.136 0.436"/><path d="M0.319 0.475L0.182 0.514"/><path d="M0.420 0.911L0.428 0.913"/><path d="M0.428 0.913L0.423 0.916"/><path d="M0.441 0.906L0.423 0.916"/></g></svg>