<svg xmlns="http://www.w3.org/2000/svg" xmlns:xlink="http://www.w3.org/1999/xlink" width="300px" height="300px" viewBox="0.000 0.000 1.000 1.000"><rect x="0" y="0" width="1" height="1" fill="none" stroke="blue" stroke-width="0.005"/><path d="M 0.908 0.055 L 0.532 0.984 L 0.101 0.264 Z" fill="silver" stroke="gray" stroke-width="0.005"/><path d="M 0.837 0.073 L 0.859 0.088" fill="none" stroke="purple" stroke-width="0.002"/><path d="M 0.817 0.112 L 0.873 0.141" fill="none" stroke="purple" stroke-width="0.002"/><path d="M 0.855 0.069 L 0.875 0.136" fill="none" stroke="purple" stroke-width="0.002"/><path d="M 0.855 0.069 L 0.859 0.088" fill="none" stroke="purple" stroke-width="0.002"/><path d="M 0.737 0.099 L 0.873 0.141" fill="none" stroke="purple" stroke-width="0.002"/><path d="M 0.421 0.530 L 0.542 0.961" fill="none" stroke="purple" stroke-width="0.002"/><path d="M 0.530 0.968 L 0.532 0.984" fill="none" stroke="purple" stroke-width="0.002"/><path d="M 0.278 0.352 L 0.329 0.431" fill="none" stroke="purple" stroke-width="0.002"/><path d="M 0.101 0.264 L 0.532 0.984" fill="none" stroke="purple" stroke-width="0.002"/><path d="M 0.246 0.226 L 0.733 0.488" fill="none" stroke="purple" stroke-width="0.002"/><path d="M 0.101 0.264 L 0.278 0.352" fill="none" stroke="purple" stroke-width="0.002"/><path d="M 0.246 0.226 L 0.160 0.361" fill="none" stroke="purple" stroke-width="0.002"/><path d="M 0.662 0.468 L 0.521 0.966" fill="none" stroke="purple" stroke-width="0.002"/><path d="M 0.662 0.468 L 0.733 0.488" fill="none" stroke="purple" stroke-width="0.002"/><path d="M 0.908 0.055 L 0.101 0.264" fill="none" stroke="purple" stroke-width="0.002"/><path d="M 0.908 0.055 L 0.532 0.984" fill="none" stroke="purple" stroke-width="0.002"/><path d="M 0.837 0.073 L 0.817 0.112" fill="none" stroke="purple" stroke-width="0.002"/><path d="M 0.278 0.352 L 0.160 0.361" fill="none" stroke="purple" stroke-width="0.002"/><path d="M 0.737 0.099 L 0.284 0.569" fill="none" stroke="purple" stroke-width="0.002"/><path d="M 0.329 0.431 L 0.237 0.490" fill="none" stroke="purple" stroke-width="0.002"/><path d="M 0.908 0.055 L 0.859 0.088" fill="none" stroke="purple" stroke-width="0.002"/><path d="M 0.875 0.136 L 0.237 0.490" fill="none" stroke="purple" stroke-width="0.002"/><path d="M 0.421 0.530 L 0.284 0.569" fill="none" stroke="purple" stroke-width="0.002"/><path d="M 0.521 0.966 L 0.530 0.968" fill="none" stroke="purple" stroke-width="0.002"/><path d="M 0.530 0.968 L 0.524 0.971" fill="none" stroke="purple" stroke-width="0.002"/><path d="M 0.542 0.961 L 0.524 0.971" fill="none" stroke="purple" stroke-width="0.002"/></svg>