<svg xmlns="http://www.w3.org/2000/svg" xmlns:xlink="http://www.w3.org/1999/xlink" width="300px" height="300px" viewBox="0.000 0.000 1.000 1.000"><rect x="0" y="0" width="1" height="1" fill="none" stroke="blue" stroke-width="0.005"/><path d="M 0.016 0.049 L 0.984 0.178 L 0.630 0.841 Z" fill="silver" stroke="gray" stroke-width="0.005"/><path d="M 0.961 0.175 L 0.976 0.193" fill="none" stroke="purple" stroke-width="0.002"/><path d="M 0.932 0.266 L 0.936 0.269" fill="none" stroke="purple" stroke-width="0.002"/><path d="M 0.856 0.302 L 0.898 0.339" fill="none" stroke="purple" stroke-width="0.002"/><path d="M 0.568 0.673 L 0.630 0.841" fill="none" stroke="purple" stroke-width="0.002"/><path d="M 0.502 0.460 L 0.710 0.693" fill="none" stroke="purple" stroke-width="0.002"/><path d="M 0.065 0.056 L 0.066 0.113" fill="none" stroke="purple" stroke-width="0.002"/><path d="M 0.031 0.051 L 0.032 0.070" fill="none" stroke="purple" stroke-width="0.002"/><path d="M 0.031 0.051 L 0.031 0.052" fill="none" stroke="purple" stroke-width="0.002"/><path d="M 0.031 0.051 L 0.028 0.065" fill="none" stroke="purple" stroke-width="0.002"/><path d="M 0.016 0.049 L 0.630 0.841" fill="none" stroke="purple" stroke-width="0.002"/><path d="M 0.031 0.051 L 0.031 0.052" fill="none" stroke="purple" stroke-width="0.002"/><path d="M 0.065 0.056 L 0.058 0.078" fill="none" stroke="purple" stroke-width="0.002"/><path d="M 0.146 0.066 L 0.936 0.269" fill="none" stroke="purple" stroke-width="0.002"/><path d="M 0.016 0.049 L 0.031 0.052" fill="none" stroke="purple" stroke-width="0.002"/><path d="M 0.016 0.049 L 0.984 0.178" fill="none" stroke="purple" stroke-width="0.002"/><path d="M 0.032 0.070 L 0.058 0.078" fill="none" stroke="purple" stroke-width="0.002"/><path d="M 0.028 0.065 L 0.146 0.066" fill="none" stroke="purple" stroke-width="0.002"/><path d="M 0.953 0.190 L 0.976 0.193" fill="none" stroke="purple" stroke-width="0.002"/><path d="M 0.066 0.113 L 0.898 0.339" fill="none" stroke="purple" stroke-width="0.002"/><path d="M 0.984 0.178 L 0.630 0.841" fill="none" stroke="purple" stroke-width="0.002"/><path d="M 0.984 0.178 L 0.953 0.190" fill="none" stroke="purple" stroke-width="0.002"/><path d="M 0.502 0.460 L 0.403 0.548" fill="none" stroke="purple" stroke-width="0.002"/><path d="M 0.953 0.190 L 0.856 0.302" fill="none" stroke="purple" stroke-width="0.002"/><path d="M 0.961 0.175 L 0.403 0.548" fill="none" stroke="purple" stroke-width="0.002"/><path d="M 0.932 0.266 L 0.568 0.673" fill="none" stroke="purple" stroke-width="0.002"/><path d="M 0.568 0.673 L 0.710 0.693" fill="none" stroke="purple" stroke-width="0.002"/></svg>