<svg xmlns="http://www.w3.org/2000/svg" xmlns:xlink="http://www.w3.org/1999/xlink" width="400px" height="400px" viewBox="0.000 0.000 0.969 0.792"><path d="M0.000 0.000L0.969 0.129L0.615 0.792Z" fill="silver" stroke="gray" stroke-width="0.005"/><g fill="none" stroke="purple" stroke-width="0.002"><path d="M0.945 0.126L0.961 0.144"/><path d="M0.916 0.217L0.920 0.220"/><path d="M0.840 0.253L0.883 0.290"/><path d="M0.553 0.624L0.615 0.792"/><path d="M0.486 0.411L0.694 0.644"/><path d="M0.049 0.007L0.050 0.064"/><path d="M0.016 0.002L0.016 0.021"/><path d="M0.016 0.002L0.016 0.002"/><path d="M0.016 0.002L0.012 0.016"/><path d="M0.000 0.000L0.615 0.792"/><path d="M0.016 0.002L0.016 0.002"/><path d="M0.049 0.007L0.043 0.028"/><path d="M0.130 0.017L0.920 0.220"/><path d="M0.000 0.000L0.016 0.002"/><path d="M0.000 0.000L0.969 0.129"/><path d="M0.016 0.021L0.043 0.028"/><path d="M0.012 0.016L0.130 0.017"/><path d="M0.938 0.141L0.961 0.144"/><path d="M0.050 0.064L0.883 0.290"/><path d="M0.969 0.129L0.615 0.792"/><path d="M0.969 0.129L0.938 0.141"/><path d="M0.486 0.411L0.387 0.499"/><path d="M0.938 0.141L0.840 0.253"/><path d="M0.945 0.126L0.387 0.499"/><path d="M0.916 0.217L0.553 0.624"/><path d="M0.553 0.624L0.694 0.644"/></g></svg>