<svg xmlns="http://www.w3.org/2000/svg" xmlns:xlink="http://www.w3.org/1999/xlink" width="400px" height="400px" viewBox="0.000 0.000 0.569 0.705"><path d="M0.542 0.000L0.569 0.705L0.000 0.111L0.000 0.008Z" fill="silver" stroke="gray" stroke-width="0.005"/><g fill="none" stroke="purple" stroke-width="0.002"><path d="M0.565 0.690L0.569 0.705"/><path d="M0.472 0.301L0.549 0.684"/><path d="M0.485 0.142L0.551 0.686"/><path d="M0.542 0.000L0.569 0.705"/><path d="M0.098 0.007L0.115 0.232"/><path d="M0.143 0.204L0.144 0.261"/><path d="M0.000 0.008L0.000 0.111"/><path d="M0.016 0.009L0.016 0.128"/><path d="M0.016 0.009L0.012 0.124"/><path d="M0.185 0.119L0.185 0.126"/><path d="M0.542 0.000L0.539 0.280"/><path d="M0.098 0.007L0.089 0.204"/><path d="M0.185 0.119L0.172 0.291"/><path d="M0.000 0.111L0.569 0.705"/><path d="M0.000 0.008L0.016 0.009"/><path d="M0.542 0.000L0.000 0.008"/><path d="M0.000 0.111L0.547 0.135"/><path d="M0.012 0.124L0.185 0.126"/><path d="M0.016 0.128L0.547 0.150"/><path d="M0.547 0.135L0.485 0.142"/><path d="M0.143 0.204L0.089 0.204"/><path d="M0.115 0.232L0.553 0.285"/><path d="M0.547 0.150L0.487 0.157"/><path d="M0.144 0.261L0.539 0.280"/><path d="M0.539 0.280L0.172 0.291"/><path d="M0.553 0.285L0.472 0.301"/><path d="M0.549 0.684L0.568 0.689"/><path d="M0.551 0.686L0.568 0.689"/><path d="M0.568 0.689L0.565 0.690"/><path d="M0.568 0.689L0.565 0.690"/></g></svg>