<svg xmlns="http://www.w3.org/2000/svg" xmlns:xlink="http://www.w3.org/1999/xlink" width="300px" height="300px" viewBox="0.000 0.000 1.000 1.000"><rect x="0" y="0" width="1" height="1" fill="none" stroke="blue" stroke-width="0.005"/><path d="M 0.557 0.279 L 0.585 0.984 L 0.016 0.391 L 0.016 0.288 Z" fill="silver" stroke="gray" stroke-width="0.005"/><path d="M 0.580 0.969 L 0.585 0.984" fill="none" stroke="purple" stroke-width="0.002"/><path d="M 0.487 0.580 L 0.564 0.963" fill="none" stroke="purple" stroke-width="0.002"/><path d="M 0.501 0.421 L 0.567 0.966" fill="none" stroke="purple" stroke-width="0.002"/><path d="M 0.557 0.279 L 0.585 0.984" fill="none" stroke="purple" stroke-width="0.002"/><path d="M 0.113 0.286 L 0.131 0.511" fill="none" stroke="purple" stroke-width="0.002"/><path d="M 0.159 0.483 L 0.159 0.541" fill="none" stroke="purple" stroke-width="0.002"/><path d="M 0.016 0.288 L 0.016 0.391" fill="none" stroke="purple" stroke-width="0.002"/><path d="M 0.031 0.288 L 0.031 0.407" fill="none" stroke="purple" stroke-width="0.002"/><path d="M 0.031 0.288 L 0.028 0.403" fill="none" stroke="purple" stroke-width="0.002"/><path d="M 0.201 0.399 L 0.201 0.405" fill="none" stroke="purple" stroke-width="0.002"/><path d="M 0.557 0.279 L 0.555 0.559" fill="none" stroke="purple" stroke-width="0.002"/><path d="M 0.113 0.286 L 0.104 0.483" fill="none" stroke="purple" stroke-width="0.002"/><path d="M 0.201 0.399 L 0.188 0.571" fill="none" stroke="purple" stroke-width="0.002"/><path d="M 0.016 0.391 L 0.585 0.984" fill="none" stroke="purple" stroke-width="0.002"/><path d="M 0.016 0.288 L 0.031 0.288" fill="none" stroke="purple" stroke-width="0.002"/><path d="M 0.557 0.279 L 0.016 0.288" fill="none" stroke="purple" stroke-width="0.002"/><path d="M 0.016 0.391 L 0.562 0.414" fill="none" stroke="purple" stroke-width="0.002"/><path d="M 0.028 0.403 L 0.201 0.405" fill="none" stroke="purple" stroke-width="0.002"/><path d="M 0.031 0.407 L 0.563 0.430" fill="none" stroke="purple" stroke-width="0.002"/><path d="M 0.562 0.414 L 0.501 0.421" fill="none" stroke="purple" stroke-width="0.002"/><path d="M 0.159 0.483 L 0.104 0.483" fill="none" stroke="purple" stroke-width="0.002"/><path d="M 0.131 0.511 L 0.568 0.564" fill="none" stroke="purple" stroke-width="0.002"/><path d="M 0.563 0.430 L 0.503 0.437" fill="none" stroke="purple" stroke-width="0.002"/><path d="M 0.159 0.541 L 0.555 0.559" fill="none" stroke="purple" stroke-width="0.002"/><path d="M 0.555 0.559 L 0.188 0.571" fill="none" stroke="purple" stroke-width="0.002"/><path d="M 0.568 0.564 L 0.487 0.580" fill="none" stroke="purple" stroke-width="0.002"/><path d="M 0.564 0.963 L 0.584 0.968" fill="none" stroke="purple" stroke-width="0.002"/><path d="M 0.567 0.966 L 0.584 0.968" fill="none" stroke="purple" stroke-width="0.002"/><path d="M 0.584 0.968 L 0.580 0.969" fill="none" stroke="purple" stroke-width="0.002"/><path d="M 0.584 0.968 L 0.580 0.969" fill="none" stroke="purple" stroke-width="0.002"/></svg>