<svg xmlns="http://www.w3.org/2000/svg" xmlns:xlink="http://www.w3.org/1999/xlink" width="300px" height="300px" viewBox="0.000 0.000 1.000 1.000"><rect x="0" y="0" width="1" height="1" fill="none" stroke="blue" stroke-width="0.005"/><path d="M 0.151 0.016 L 0.803 0.432 L 0.984 0.709 L 0.270 0.984 Z" fill="silver" stroke="gray" stroke-width="0.005"/><path d="M 0.930 0.625 L 0.970 0.714" fill="none" stroke="purple" stroke-width="0.002"/><path d="M 0.803 0.432 L 0.984 0.709" fill="none" stroke="purple" stroke-width="0.002"/><path d="M 0.968 0.708 L 0.970 0.714" fill="none" stroke="purple" stroke-width="0.002"/><path d="M 0.801 0.483 L 0.930 0.625" fill="none" stroke="purple" stroke-width="0.002"/><path d="M 0.803 0.432 L 0.839 0.662" fill="none" stroke="purple" stroke-width="0.002"/><path d="M 0.336 0.134 L 0.523 0.887" fill="none" stroke="purple" stroke-width="0.002"/><path d="M 0.151 0.016 L 0.159 0.029" fill="none" stroke="purple" stroke-width="0.002"/><path d="M 0.151 0.016 L 0.803 0.432" fill="none" stroke="purple" stroke-width="0.002"/><path d="M 0.157 0.066 L 0.495 0.792" fill="none" stroke="purple" stroke-width="0.002"/><path d="M 0.500 0.843 L 0.523 0.887" fill="none" stroke="purple" stroke-width="0.002"/><path d="M 0.151 0.016 L 0.270 0.984" fill="none" stroke="purple" stroke-width="0.002"/><path d="M 0.167 0.026 L 0.175 0.166" fill="none" stroke="purple" stroke-width="0.002"/><path d="M 0.165 0.025 L 0.157 0.066" fill="none" stroke="purple" stroke-width="0.002"/><path d="M 0.167 0.026 L 0.159 0.029" fill="none" stroke="purple" stroke-width="0.002"/><path d="M 0.165 0.025 L 0.159 0.029" fill="none" stroke="purple" stroke-width="0.002"/><path d="M 0.175 0.166 L 0.170 0.166" fill="none" stroke="purple" stroke-width="0.002"/><path d="M 0.336 0.134 L 0.170 0.166" fill="none" stroke="purple" stroke-width="0.002"/><path d="M 0.275 0.970 L 0.270 0.984" fill="none" stroke="purple" stroke-width="0.002"/><path d="M 0.839 0.662 L 0.964 0.717" fill="none" stroke="purple" stroke-width="0.002"/><path d="M 0.968 0.708 L 0.964 0.717" fill="none" stroke="purple" stroke-width="0.002"/><path d="M 0.267 0.965 L 0.275 0.970" fill="none" stroke="purple" stroke-width="0.002"/><path d="M 0.968 0.708 L 0.984 0.709" fill="none" stroke="purple" stroke-width="0.002"/><path d="M 0.801 0.483 L 0.267 0.965" fill="none" stroke="purple" stroke-width="0.002"/><path d="M 0.912 0.598 L 0.839 0.662" fill="none" stroke="purple" stroke-width="0.002"/><path d="M 0.912 0.598 L 0.495 0.792" fill="none" stroke="purple" stroke-width="0.002"/><path d="M 0.268 0.968 L 0.275 0.970" fill="none" stroke="purple" stroke-width="0.002"/><path d="M 0.500 0.843 L 0.268 0.968" fill="none" stroke="purple" stroke-width="0.002"/><path d="M 0.984 0.709 L 0.270 0.984" fill="none" stroke="purple" stroke-width="0.002"/></svg>