<svg xmlns="http://www.w3.org/2000/svg" xmlns:xlink="http://www.w3.org/1999/xlink" width="400px" height="400px" viewBox="0.000 0.000 0.833 0.969"><path d="M0.000 0.000L0.652 0.416L0.833 0.693L0.119 0.969Z" fill="silver" stroke="gray" stroke-width="0.005"/><g fill="none" stroke="purple" stroke-width="0.002"><path d="M0.778 0.609L0.819 0.699"/><path d="M0.652 0.416L0.833 0.693"/><path d="M0.816 0.692L0.819 0.699"/><path d="M0.649 0.467L0.778 0.609"/><path d="M0.652 0.416L0.688 0.647"/><path d="M0.185 0.118L0.372 0.871"/><path d="M0.000 0.000L0.008 0.014"/><path d="M0.000 0.000L0.652 0.416"/><path d="M0.006 0.050L0.343 0.776"/><path d="M0.349 0.827L0.372 0.871"/><path d="M0.000 0.000L0.119 0.969"/><path d="M0.016 0.010L0.023 0.150"/><path d="M0.014 0.009L0.006 0.050"/><path d="M0.016 0.010L0.008 0.014"/><path d="M0.014 0.009L0.008 0.014"/><path d="M0.023 0.150L0.018 0.150"/><path d="M0.185 0.118L0.018 0.150"/><path d="M0.124 0.954L0.119 0.969"/><path d="M0.688 0.647L0.812 0.701"/><path d="M0.816 0.692L0.812 0.701"/><path d="M0.116 0.950L0.124 0.954"/><path d="M0.816 0.692L0.833 0.693"/><path d="M0.649 0.467L0.116 0.950"/><path d="M0.761 0.583L0.688 0.647"/><path d="M0.761 0.583L0.343 0.776"/><path d="M0.116 0.952L0.124 0.954"/><path d="M0.349 0.827L0.116 0.952"/><path d="M0.833 0.693L0.119 0.969"/></g></svg>