<svg xmlns="http://www.w3.org/2000/svg" xmlns:xlink="http://www.w3.org/1999/xlink" width="300px" height="300px" viewBox="0.000 0.000 1.000 1.000"><rect x="0" y="0" width="1" height="1" fill="none" stroke="blue" stroke-width="0.005"/><path d="M 0.603 0.016 L 0.984 0.277 L 0.708 0.558 L 0.377 0.662 L 0.016 0.177 Z" fill="silver" stroke="gray" stroke-width="0.005"/><path d="M 0.962 0.262 L 0.966 0.272" fill="none" stroke="purple" stroke-width="0.002"/><path d="M 0.603 0.016 L 0.984 0.277" fill="none" stroke="purple" stroke-width="0.002"/><path d="M 0.588 0.020 L 0.732 0.392" fill="none" stroke="purple" stroke-width="0.002"/><path d="M 0.461 0.162 L 0.598 0.334" fill="none" stroke="purple" stroke-width="0.002"/><path d="M 0.588 0.020 L 0.591 0.041" fill="none" stroke="purple" stroke-width="0.002"/><path d="M 0.261 0.271 L 0.265 0.511" fill="none" stroke="purple" stroke-width="0.002"/><path d="M 0.248 0.331 L 0.441 0.566" fill="none" stroke="purple" stroke-width="0.002"/><path d="M 0.033 0.173 L 0.030 0.185" fill="none" stroke="purple" stroke-width="0.002"/><path d="M 0.966 0.272 L 0.984 0.277" fill="none" stroke="purple" stroke-width="0.002"/><path d="M 0.248 0.331 L 0.234 0.470" fill="none" stroke="purple" stroke-width="0.002"/><path d="M 0.016 0.177 L 0.377 0.662" fill="none" stroke="purple" stroke-width="0.002"/><path d="M 0.033 0.173 L 0.147 0.297" fill="none" stroke="purple" stroke-width="0.002"/><path d="M 0.044 0.169 L 0.030 0.185" fill="none" stroke="purple" stroke-width="0.002"/><path d="M 0.016 0.177 L 0.030 0.185" fill="none" stroke="purple" stroke-width="0.002"/><path d="M 0.044 0.169 L 0.598 0.334" fill="none" stroke="purple" stroke-width="0.002"/><path d="M 0.603 0.016 L 0.016 0.177" fill="none" stroke="purple" stroke-width="0.002"/><path d="M 0.603 0.016 L 0.591 0.041" fill="none" stroke="purple" stroke-width="0.002"/><path d="M 0.147 0.297 L 0.122 0.320" fill="none" stroke="purple" stroke-width="0.002"/><path d="M 0.962 0.262 L 0.261 0.271" fill="none" stroke="purple" stroke-width="0.002"/><path d="M 0.591 0.041 L 0.122 0.320" fill="none" stroke="purple" stroke-width="0.002"/><path d="M 0.461 0.162 L 0.248 0.331" fill="none" stroke="purple" stroke-width="0.002"/><path d="M 0.971 0.268 L 0.958 0.304" fill="none" stroke="purple" stroke-width="0.002"/><path d="M 0.598 0.334 L 0.377 0.662" fill="none" stroke="purple" stroke-width="0.002"/><path d="M 0.265 0.511 L 0.441 0.566" fill="none" stroke="purple" stroke-width="0.002"/><path d="M 0.234 0.470 L 0.708 0.558" fill="none" stroke="purple" stroke-width="0.002"/><path d="M 0.958 0.304 L 0.732 0.392" fill="none" stroke="purple" stroke-width="0.002"/><path d="M 0.984 0.277 L 0.708 0.558" fill="none" stroke="purple" stroke-width="0.002"/><path d="M 0.971 0.268 L 0.966 0.272" fill="none" stroke="purple" stroke-width="0.002"/><path d="M 0.708 0.558 L 0.377 0.662" fill="none" stroke="purple" stroke-width="0.002"/></svg>