<svg xmlns="http://www.w3.org/2000/svg" xmlns:xlink="http://www.w3.org/1999/xlink" width="400px" height="400px" viewBox="0.000 0.000 0.969 0.646"><path d="M0.587 0.000L0.969 0.261L0.692 0.542L0.361 0.646L0.000 0.162Z" fill="silver" stroke="gray" stroke-width="0.005"/><g fill="none" stroke="purple" stroke-width="0.002"><path d="M0.946 0.246L0.950 0.257"/><path d="M0.587 0.000L0.969 0.261"/><path d="M0.572 0.004L0.716 0.376"/><path d="M0.445 0.146L0.582 0.319"/><path d="M0.572 0.004L0.576 0.025"/><path d="M0.246 0.256L0.249 0.495"/><path d="M0.233 0.315L0.426 0.551"/><path d="M0.017 0.157L0.014 0.169"/><path d="M0.950 0.257L0.969 0.261"/><path d="M0.233 0.315L0.218 0.454"/><path d="M0.000 0.162L0.361 0.646"/><path d="M0.017 0.157L0.132 0.281"/><path d="M0.028 0.154L0.014 0.169"/><path d="M0.000 0.162L0.014 0.169"/><path d="M0.028 0.154L0.582 0.319"/><path d="M0.587 0.000L0.000 0.162"/><path d="M0.587 0.000L0.576 0.025"/><path d="M0.132 0.281L0.107 0.304"/><path d="M0.946 0.246L0.246 0.256"/><path d="M0.576 0.025L0.107 0.304"/><path d="M0.445 0.146L0.233 0.315"/><path d="M0.955 0.252L0.942 0.288"/><path d="M0.582 0.319L0.361 0.646"/><path d="M0.249 0.495L0.426 0.551"/><path d="M0.218 0.454L0.692 0.542"/><path d="M0.942 0.288L0.716 0.376"/><path d="M0.969 0.261L0.692 0.542"/><path d="M0.955 0.252L0.950 0.257"/><path d="M0.692 0.542L0.361 0.646"/></g></svg>