<svg xmlns="http://www.w3.org/2000/svg" xmlns:xlink="http://www.w3.org/1999/xlink" width="300px" height="300px" viewBox="0.000 0.000 1.000 1.000"><rect x="0" y="0" width="1" height="1" fill="none" stroke="blue" stroke-width="0.005"/><path d="M 0.659 0.290 L 0.984 0.646 L 0.884 0.697 L 0.257 0.776 L 0.016 0.652 L 0.232 0.469 Z" fill="silver" stroke="gray" stroke-width="0.005"/><path d="M 0.932 0.589 L 0.962 0.639" fill="none" stroke="purple" stroke-width="0.002"/><path d="M 0.659 0.290 L 0.984 0.646" fill="none" stroke="purple" stroke-width="0.002"/><path d="M 0.442 0.612 L 0.485 0.706" fill="none" stroke="purple" stroke-width="0.002"/><path d="M 0.707 0.426 L 0.932 0.589" fill="none" stroke="purple" stroke-width="0.002"/><path d="M 0.459 0.674 L 0.471 0.749" fill="none" stroke="purple" stroke-width="0.002"/><path d="M 0.456 0.600 L 0.471 0.749" fill="none" stroke="purple" stroke-width="0.002"/><path d="M 0.295 0.443 L 0.296 0.450" fill="none" stroke="purple" stroke-width="0.002"/><path d="M 0.659 0.290 L 0.680 0.682" fill="none" stroke="purple" stroke-width="0.002"/><path d="M 0.295 0.443 L 0.459 0.674" fill="none" stroke="purple" stroke-width="0.002"/><path d="M 0.032 0.646 L 0.030 0.659" fill="none" stroke="purple" stroke-width="0.002"/><path d="M 0.378 0.669 L 0.432 0.754" fill="none" stroke="purple" stroke-width="0.002"/><path d="M 0.356 0.417 L 0.339 0.604" fill="none" stroke="purple" stroke-width="0.002"/><path d="M 0.356 0.417 L 0.680 0.682" fill="none" stroke="purple" stroke-width="0.002"/><path d="M 0.054 0.619 L 0.097 0.681" fill="none" stroke="purple" stroke-width="0.002"/><path d="M 0.459 0.674 L 0.432 0.754" fill="none" stroke="purple" stroke-width="0.002"/><path d="M 0.378 0.669 L 0.473 0.749" fill="none" stroke="purple" stroke-width="0.002"/><path d="M 0.232 0.469 L 0.097 0.681" fill="none" stroke="purple" stroke-width="0.002"/><path d="M 0.442 0.612 L 0.635 0.729" fill="none" stroke="purple" stroke-width="0.002"/><path d="M 0.054 0.619 L 0.165 0.729" fill="none" stroke="purple" stroke-width="0.002"/><path d="M 0.032 0.646 L 0.062 0.675" fill="none" stroke="purple" stroke-width="0.002"/><path d="M 0.962 0.639 L 0.984 0.646" fill="none" stroke="purple" stroke-width="0.002"/><path d="M 0.163 0.527 L 0.030 0.659" fill="none" stroke="purple" stroke-width="0.002"/><path d="M 0.232 0.469 L 0.016 0.652" fill="none" stroke="purple" stroke-width="0.002"/><path d="M 0.262 0.456 L 0.163 0.527" fill="none" stroke="purple" stroke-width="0.002"/><path d="M 0.456 0.600 L 0.884 0.697" fill="none" stroke="purple" stroke-width="0.002"/><path d="M 0.659 0.290 L 0.232 0.469" fill="none" stroke="purple" stroke-width="0.002"/><path d="M 0.707 0.426 L 0.473 0.749" fill="none" stroke="purple" stroke-width="0.002"/><path d="M 0.296 0.450 L 0.262 0.456" fill="none" stroke="purple" stroke-width="0.002"/><path d="M 0.016 0.652 L 0.257 0.776" fill="none" stroke="purple" stroke-width="0.002"/><path d="M 0.456 0.600 L 0.257 0.776" fill="none" stroke="purple" stroke-width="0.002"/><path d="M 0.339 0.604 L 0.958 0.659" fill="none" stroke="purple" stroke-width="0.002"/><path d="M 0.973 0.634 L 0.958 0.659" fill="none" stroke="purple" stroke-width="0.002"/><path d="M 0.032 0.646 L 0.016 0.652" fill="none" stroke="purple" stroke-width="0.002"/><path d="M 0.062 0.675 L 0.097 0.681" fill="none" stroke="purple" stroke-width="0.002"/><path d="M 0.680 0.682 L 0.635 0.729" fill="none" stroke="purple" stroke-width="0.002"/><path d="M 0.165 0.729 L 0.359 0.763" fill="none" stroke="purple" stroke-width="0.002"/><path d="M 0.485 0.706 L 0.359 0.763" fill="none" stroke="purple" stroke-width="0.002"/><path d="M 0.884 0.697 L 0.257 0.776" fill="none" stroke="purple" stroke-width="0.002"/><path d="M 0.973 0.634 L 0.962 0.639" fill="none" stroke="purple" stroke-width="0.002"/><path d="M 0.984 0.646 L 0.884 0.697" fill="none" stroke="purple" stroke-width="0.002"/></svg>