<svg xmlns="http://www.w3.org/2000/svg" xmlns:xlink="http://www.w3.org/1999/xlink" width="400px" height="400px" viewBox="0.000 0.000 0.969 0.486"><path d="M0.643 0.000L0.969 0.356L0.868 0.408L0.241 0.486L0.000 0.362L0.216 0.179Z" fill="silver" stroke="gray" stroke-width="0.005"/><g fill="none" stroke="purple" stroke-width="0.002"><path d="M0.917 0.299L0.947 0.350"/><path d="M0.643 0.000L0.969 0.356"/><path d="M0.427 0.322L0.469 0.416"/><path d="M0.691 0.136L0.917 0.299"/><path d="M0.444 0.384L0.455 0.459"/><path d="M0.440 0.310L0.455 0.459"/><path d="M0.279 0.153L0.280 0.161"/><path d="M0.643 0.000L0.665 0.392"/><path d="M0.279 0.153L0.444 0.384"/><path d="M0.017 0.356L0.015 0.369"/><path d="M0.362 0.379L0.417 0.464"/><path d="M0.341 0.127L0.324 0.314"/><path d="M0.341 0.127L0.665 0.392"/><path d="M0.038 0.329L0.081 0.391"/><path d="M0.444 0.384L0.417 0.464"/><path d="M0.362 0.379L0.458 0.459"/><path d="M0.216 0.179L0.081 0.391"/><path d="M0.427 0.322L0.619 0.439"/><path d="M0.038 0.329L0.150 0.439"/><path d="M0.017 0.356L0.046 0.385"/><path d="M0.947 0.350L0.969 0.356"/><path d="M0.148 0.237L0.015 0.369"/><path d="M0.216 0.179L0.000 0.362"/><path d="M0.247 0.167L0.148 0.237"/><path d="M0.440 0.310L0.868 0.408"/><path d="M0.643 0.000L0.216 0.179"/><path d="M0.691 0.136L0.458 0.459"/><path d="M0.280 0.161L0.247 0.167"/><path d="M0.000 0.362L0.241 0.486"/><path d="M0.440 0.310L0.241 0.486"/><path d="M0.324 0.314L0.943 0.370"/><path d="M0.958 0.344L0.943 0.370"/><path d="M0.017 0.356L0.000 0.362"/><path d="M0.046 0.385L0.081 0.391"/><path d="M0.665 0.392L0.619 0.439"/><path d="M0.150 0.439L0.343 0.473"/><path d="M0.469 0.416L0.343 0.473"/><path d="M0.868 0.408L0.241 0.486"/><path d="M0.958 0.344L0.947 0.350"/><path d="M0.969 0.356L0.868 0.408"/></g></svg>