<svg xmlns="http://www.w3.org/2000/svg" xmlns:xlink="http://www.w3.org/1999/xlink" width="300px" height="300px" viewBox="0.000 0.000 1.000 1.000"><rect x="0" y="0" width="1" height="1" fill="none" stroke="blue" stroke-width="0.005"/><path d="M 0.169 0.122 L 0.685 0.254 L 0.984 0.365 L 0.984 0.959 L 0.844 0.984 L 0.260 0.984 L 0.016 0.721 L 0.016 0.232 Z" fill="silver" stroke="gray" stroke-width="0.005"/><path d="M 0.685 0.254 L 0.961 0.392" fill="none" stroke="purple" stroke-width="0.002"/><path d="M 0.169 0.122 L 0.260 0.311" fill="none" stroke="purple" stroke-width="0.002"/><path d="M 0.275 0.969 L 0.276 0.984" fill="none" stroke="purple" stroke-width="0.002"/><path d="M 0.685 0.254 L 0.984 0.365" fill="none" stroke="purple" stroke-width="0.002"/><path d="M 0.016 0.232 L 0.016 0.721" fill="none" stroke="purple" stroke-width="0.002"/><path d="M 0.031 0.244 L 0.031 0.737" fill="none" stroke="purple" stroke-width="0.002"/><path d="M 0.969 0.359 L 0.969 0.956" fill="none" stroke="purple" stroke-width="0.002"/><path d="M 0.984 0.365 L 0.984 0.959" fill="none" stroke="purple" stroke-width="0.002"/><path d="M 0.294 0.742 L 0.276 0.984" fill="none" stroke="purple" stroke-width="0.002"/><path d="M 0.288 0.153 L 0.260 0.311" fill="none" stroke="purple" stroke-width="0.002"/><path d="M 0.169 0.122 L 0.685 0.254" fill="none" stroke="purple" stroke-width="0.002"/><path d="M 0.288 0.153 L 0.231 0.322" fill="none" stroke="purple" stroke-width="0.002"/><path d="M 0.260 0.311 L 0.826 0.620" fill="none" stroke="purple" stroke-width="0.002"/><path d="M 0.016 0.232 L 0.031 0.244" fill="none" stroke="purple" stroke-width="0.002"/><path d="M 0.169 0.122 L 0.016 0.232" fill="none" stroke="purple" stroke-width="0.002"/><path d="M 0.954 0.354 L 0.947 0.385" fill="none" stroke="purple" stroke-width="0.002"/><path d="M 0.968 0.359 L 0.961 0.392" fill="none" stroke="purple" stroke-width="0.002"/><path d="M 0.016 0.249 L 0.231 0.322" fill="none" stroke="purple" stroke-width="0.002"/><path d="M 0.031 0.244 L 0.016 0.249" fill="none" stroke="purple" stroke-width="0.002"/><path d="M 0.016 0.721 L 0.260 0.984" fill="none" stroke="purple" stroke-width="0.002"/><path d="M 0.984 0.915 L 0.969 0.956" fill="none" stroke="purple" stroke-width="0.002"/><path d="M 0.984 0.915 L 0.984 0.915" fill="none" stroke="purple" stroke-width="0.002"/><path d="M 0.954 0.354 L 0.813 0.612" fill="none" stroke="purple" stroke-width="0.002"/><path d="M 0.968 0.359 L 0.826 0.620" fill="none" stroke="purple" stroke-width="0.002"/><path d="M 0.275 0.969 L 0.260 0.984" fill="none" stroke="purple" stroke-width="0.002"/><path d="M 0.758 0.969 L 0.800 0.984" fill="none" stroke="purple" stroke-width="0.002"/><path d="M 0.969 0.359 L 0.947 0.385" fill="none" stroke="purple" stroke-width="0.002"/><path d="M 0.984 0.365 L 0.961 0.392" fill="none" stroke="purple" stroke-width="0.002"/><path d="M 0.016 0.721 L 0.294 0.742" fill="none" stroke="purple" stroke-width="0.002"/><path d="M 0.031 0.737 L 0.293 0.757" fill="none" stroke="purple" stroke-width="0.002"/><path d="M 0.969 0.956 L 0.984 0.959" fill="none" stroke="purple" stroke-width="0.002"/><path d="M 0.758 0.969 L 0.844 0.984" fill="none" stroke="purple" stroke-width="0.002"/><path d="M 0.275 0.969 L 0.758 0.969" fill="none" stroke="purple" stroke-width="0.002"/><path d="M 0.260 0.984 L 0.844 0.984" fill="none" stroke="purple" stroke-width="0.002"/><path d="M 0.984 0.959 L 0.844 0.984" fill="none" stroke="purple" stroke-width="0.002"/><path d="M 0.984 0.915 L 0.800 0.984" fill="none" stroke="purple" stroke-width="0.002"/></svg>