<svg xmlns="http://www.w3.org/2000/svg" xmlns:xlink="http://www.w3.org/1999/xlink" width="400px" height="400px" viewBox="0.000 0.000 0.969 0.862"><path d="M0.154 0.000L0.669 0.132L0.969 0.243L0.969 0.837L0.829 0.862L0.245 0.862L0.000 0.598L0.000 0.110Z" fill="silver" stroke="gray" stroke-width="0.005"/><g fill="none" stroke="purple" stroke-width="0.002"><path d="M0.669 0.132L0.946 0.270"/><path d="M0.154 0.000L0.245 0.189"/><path d="M0.259 0.847L0.260 0.862"/><path d="M0.669 0.132L0.969 0.243"/><path d="M0.000 0.110L0.000 0.598"/><path d="M0.016 0.121L0.016 0.615"/><path d="M0.953 0.237L0.953 0.834"/><path d="M0.969 0.243L0.969 0.837"/><path d="M0.279 0.619L0.260 0.862"/><path d="M0.272 0.030L0.245 0.189"/><path d="M0.154 0.000L0.669 0.132"/><path d="M0.272 0.030L0.215 0.200"/><path d="M0.245 0.189L0.811 0.498"/><path d="M0.000 0.110L0.016 0.121"/><path d="M0.154 0.000L0.000 0.110"/><path d="M0.938 0.232L0.931 0.262"/><path d="M0.953 0.237L0.946 0.270"/><path d="M0.000 0.127L0.215 0.200"/><path d="M0.016 0.121L0.000 0.127"/><path d="M0.000 0.598L0.245 0.862"/><path d="M0.969 0.793L0.953 0.834"/><path d="M0.969 0.793L0.969 0.793"/><path d="M0.938 0.232L0.797 0.490"/><path d="M0.953 0.237L0.811 0.498"/><path d="M0.259 0.847L0.245 0.862"/><path d="M0.743 0.847L0.784 0.862"/><path d="M0.953 0.237L0.931 0.262"/><path d="M0.969 0.243L0.946 0.270"/><path d="M0.000 0.598L0.279 0.619"/><path d="M0.016 0.615L0.277 0.635"/><path d="M0.953 0.834L0.969 0.837"/><path d="M0.743 0.847L0.829 0.862"/><path d="M0.259 0.847L0.743 0.847"/><path d="M0.245 0.862L0.829 0.862"/><path d="M0.969 0.837L0.829 0.862"/><path d="M0.969 0.793L0.784 0.862"/></g></svg>