<svg xmlns="http://www.w3.org/2000/svg" xmlns:xlink="http://www.w3.org/1999/xlink" width="400px" height="400px" viewBox="0.000 0.000 0.969 0.969"><path d="M0.205 0.000L0.682 0.000L0.969 0.123L0.969 0.444L0.963 0.494L0.815 0.886L0.552 0.969L0.278 0.969L0.000 0.837L0.000 0.113Z" fill="silver" stroke="gray" stroke-width="0.005"/><g fill="none" stroke="purple" stroke-width="0.002"><path d="M0.953 0.130L0.969 0.144"/><path d="M0.660 0.000L0.879 0.230"/><path d="M0.955 0.433L0.967 0.456"/><path d="M0.682 0.000L0.969 0.123"/><path d="M0.953 0.311L0.969 0.376"/><path d="M0.742 0.836L0.746 0.852"/><path d="M0.955 0.433L0.963 0.494"/><path d="M0.953 0.311L0.969 0.444"/><path d="M0.000 0.113L0.000 0.837"/><path d="M0.016 0.104L0.016 0.829"/><path d="M0.953 0.130L0.953 0.311"/><path d="M0.969 0.123L0.969 0.444"/><path d="M0.205 0.000L0.682 0.000"/><path d="M0.177 0.016L0.645 0.016"/><path d="M0.016 0.104L0.104 0.160"/><path d="M0.000 0.113L0.095 0.173"/><path d="M0.177 0.016L0.082 0.165"/><path d="M0.205 0.000L0.095 0.173"/><path d="M0.205 0.000L0.000 0.113"/><path d="M0.969 0.444L0.963 0.494"/><path d="M0.623 0.848L0.705 0.920"/><path d="M0.723 0.849L0.705 0.920"/><path d="M0.742 0.836L0.815 0.886"/><path d="M0.105 0.731L0.298 0.969"/><path d="M0.969 0.376L0.955 0.433"/><path d="M0.682 0.000L0.645 0.016"/><path d="M0.660 0.000L0.645 0.016"/><path d="M0.963 0.494L0.815 0.886"/><path d="M0.969 0.123L0.953 0.130"/><path d="M0.000 0.817L0.016 0.829"/><path d="M0.105 0.731L0.000 0.817"/><path d="M0.311 0.953L0.298 0.969"/><path d="M0.969 0.144L0.879 0.230"/><path d="M0.000 0.837L0.278 0.969"/><path d="M0.967 0.456L0.623 0.848"/><path d="M0.016 0.829L0.000 0.837"/><path d="M0.723 0.849L0.746 0.852"/><path d="M0.311 0.953L0.278 0.969"/><path d="M0.742 0.836L0.552 0.969"/><path d="M0.746 0.852L0.602 0.953"/><path d="M0.311 0.953L0.602 0.953"/><path d="M0.278 0.969L0.552 0.969"/><path d="M0.815 0.886L0.552 0.969"/></g></svg>