<svg xmlns="http://www.w3.org/2000/svg" xmlns:xlink="http://www.w3.org/1999/xlink" width="300px" height="300px" viewBox="0.000 0.000 1.000 1.000"><rect x="0" y="0" width="1" height="1" fill="none" stroke="blue" stroke-width="0.005"/><path d="M 0.221 0.016 L 0.697 0.016 L 0.984 0.138 L 0.984 0.459 L 0.978 0.509 L 0.831 0.901 L 0.568 0.984 L 0.293 0.984 L 0.016 0.852 L 0.016 0.129 Z" fill="silver" stroke="gray" stroke-width="0.005"/><path d="M 0.969 0.145 L 0.984 0.160" fill="none" stroke="purple" stroke-width="0.002"/><path d="M 0.676 0.016 L 0.895 0.245" fill="none" stroke="purple" stroke-width="0.002"/><path d="M 0.971 0.449 L 0.983 0.472" fill="none" stroke="purple" stroke-width="0.002"/><path d="M 0.697 0.016 L 0.984 0.138" fill="none" stroke="purple" stroke-width="0.002"/><path d="M 0.969 0.326 L 0.984 0.392" fill="none" stroke="purple" stroke-width="0.002"/><path d="M 0.758 0.851 L 0.762 0.868" fill="none" stroke="purple" stroke-width="0.002"/><path d="M 0.971 0.449 L 0.978 0.509" fill="none" stroke="purple" stroke-width="0.002"/><path d="M 0.969 0.326 L 0.984 0.459" fill="none" stroke="purple" stroke-width="0.002"/><path d="M 0.016 0.129 L 0.016 0.852" fill="none" stroke="purple" stroke-width="0.002"/><path d="M 0.031 0.120 L 0.031 0.845" fill="none" stroke="purple" stroke-width="0.002"/><path d="M 0.969 0.145 L 0.969 0.326" fill="none" stroke="purple" stroke-width="0.002"/><path d="M 0.984 0.138 L 0.984 0.459" fill="none" stroke="purple" stroke-width="0.002"/><path d="M 0.221 0.016 L 0.697 0.016" fill="none" stroke="purple" stroke-width="0.002"/><path d="M 0.192 0.031 L 0.661 0.031" fill="none" stroke="purple" stroke-width="0.002"/><path d="M 0.031 0.120 L 0.119 0.176" fill="none" stroke="purple" stroke-width="0.002"/><path d="M 0.016 0.129 L 0.111 0.189" fill="none" stroke="purple" stroke-width="0.002"/><path d="M 0.192 0.031 L 0.098 0.181" fill="none" stroke="purple" stroke-width="0.002"/><path d="M 0.221 0.016 L 0.111 0.189" fill="none" stroke="purple" stroke-width="0.002"/><path d="M 0.221 0.016 L 0.016 0.129" fill="none" stroke="purple" stroke-width="0.002"/><path d="M 0.984 0.459 L 0.978 0.509" fill="none" stroke="purple" stroke-width="0.002"/><path d="M 0.639 0.864 L 0.721 0.936" fill="none" stroke="purple" stroke-width="0.002"/><path d="M 0.738 0.865 L 0.721 0.936" fill="none" stroke="purple" stroke-width="0.002"/><path d="M 0.758 0.851 L 0.831 0.901" fill="none" stroke="purple" stroke-width="0.002"/><path d="M 0.120 0.747 L 0.313 0.984" fill="none" stroke="purple" stroke-width="0.002"/><path d="M 0.984 0.392 L 0.971 0.449" fill="none" stroke="purple" stroke-width="0.002"/><path d="M 0.697 0.016 L 0.661 0.031" fill="none" stroke="purple" stroke-width="0.002"/><path d="M 0.676 0.016 L 0.661 0.031" fill="none" stroke="purple" stroke-width="0.002"/><path d="M 0.978 0.509 L 0.831 0.901" fill="none" stroke="purple" stroke-width="0.002"/><path d="M 0.984 0.138 L 0.969 0.145" fill="none" stroke="purple" stroke-width="0.002"/><path d="M 0.016 0.832 L 0.031 0.845" fill="none" stroke="purple" stroke-width="0.002"/><path d="M 0.120 0.747 L 0.016 0.832" fill="none" stroke="purple" stroke-width="0.002"/><path d="M 0.326 0.969 L 0.313 0.984" fill="none" stroke="purple" stroke-width="0.002"/><path d="M 0.984 0.160 L 0.895 0.245" fill="none" stroke="purple" stroke-width="0.002"/><path d="M 0.016 0.852 L 0.293 0.984" fill="none" stroke="purple" stroke-width="0.002"/><path d="M 0.983 0.472 L 0.639 0.864" fill="none" stroke="purple" stroke-width="0.002"/><path d="M 0.031 0.845 L 0.016 0.852" fill="none" stroke="purple" stroke-width="0.002"/><path d="M 0.738 0.865 L 0.762 0.868" fill="none" stroke="purple" stroke-width="0.002"/><path d="M 0.326 0.969 L 0.293 0.984" fill="none" stroke="purple" stroke-width="0.002"/><path d="M 0.758 0.851 L 0.568 0.984" fill="none" stroke="purple" stroke-width="0.002"/><path d="M 0.762 0.868 L 0.617 0.969" fill="none" stroke="purple" stroke-width="0.002"/><path d="M 0.326 0.969 L 0.617 0.969" fill="none" stroke="purple" stroke-width="0.002"/><path d="M 0.293 0.984 L 0.568 0.984" fill="none" stroke="purple" stroke-width="0.002"/><path d="M 0.831 0.901 L 0.568 0.984" fill="none" stroke="purple" stroke-width="0.002"/></svg>