<svg xmlns="http://www.w3.org/2000/svg" xmlns:xlink="http://www.w3.org/1999/xlink" width="400px" height="400px" viewBox="0.000 0.000 0.969 0.969"><path d="M0.402 0.000L0.560 0.000L0.969 0.410L0.932 0.687L0.926 0.709L0.690 0.969L0.537 0.969L0.203 0.829L0.000 0.659L0.000 0.191L0.104 0.100L0.295 0.018Z" fill="silver" stroke="gray" stroke-width="0.005"/><g fill="none" stroke="purple" stroke-width="0.002"><path d="M0.560 0.000L0.969 0.410"/><path d="M0.932 0.488L0.950 0.554"/><path d="M0.365 0.006L0.374 0.016"/><path d="M0.351 0.009L0.361 0.014"/><path d="M0.356 0.008L0.374 0.016"/><path d="M0.689 0.797L0.758 0.893"/><path d="M0.689 0.797L0.704 0.953"/><path d="M0.674 0.803L0.690 0.969"/><path d="M0.674 0.803L0.747 0.905"/><path d="M0.932 0.488L0.932 0.687"/><path d="M0.000 0.191L0.000 0.659"/><path d="M0.016 0.205L0.016 0.646"/><path d="M0.560 0.000L0.559 0.424"/><path d="M0.576 0.016L0.574 0.424"/><path d="M0.295 0.018L0.341 0.021"/><path d="M0.402 0.000L0.560 0.000"/><path d="M0.374 0.016L0.576 0.016"/><path d="M0.013 0.179L0.037 0.212"/><path d="M0.104 0.100L0.037 0.212"/><path d="M0.402 0.000L0.295 0.018"/><path d="M0.013 0.179L0.106 0.267"/><path d="M0.000 0.191L0.016 0.205"/><path d="M0.104 0.100L0.000 0.191"/><path d="M0.969 0.410L0.932 0.687"/><path d="M0.295 0.018L0.104 0.100"/><path d="M0.402 0.000L0.341 0.021"/><path d="M0.075 0.630L0.203 0.829"/><path d="M0.365 0.006L0.361 0.014"/><path d="M0.351 0.009L0.106 0.267"/><path d="M0.356 0.008L0.341 0.021"/><path d="M0.159 0.565L0.559 0.969"/><path d="M0.000 0.207L0.037 0.212"/><path d="M0.016 0.205L0.000 0.207"/><path d="M0.075 0.630L0.035 0.688"/><path d="M0.956 0.397L0.932 0.488"/><path d="M0.932 0.687L0.926 0.709"/><path d="M0.753 0.891L0.758 0.893"/><path d="M0.745 0.904L0.747 0.905"/><path d="M0.159 0.565L0.035 0.688"/><path d="M0.000 0.659L0.203 0.829"/><path d="M0.016 0.646L0.000 0.659"/><path d="M0.559 0.424L0.850 0.425"/><path d="M0.969 0.410L0.850 0.425"/><path d="M0.950 0.554L0.745 0.904"/><path d="M0.956 0.397L0.850 0.425"/><path d="M0.000 0.643L0.016 0.646"/><path d="M0.075 0.630L0.000 0.643"/><path d="M0.203 0.829L0.537 0.969"/><path d="M0.574 0.953L0.559 0.969"/><path d="M0.926 0.709L0.690 0.969"/><path d="M0.926 0.709L0.674 0.803"/><path d="M0.574 0.953L0.704 0.953"/><path d="M0.537 0.969L0.690 0.969"/><path d="M0.574 0.953L0.537 0.969"/></g></svg>