<svg xmlns="http://www.w3.org/2000/svg" xmlns:xlink="http://www.w3.org/1999/xlink" width="300px" height="300px" viewBox="0.000 0.000 1.000 1.000"><rect x="0" y="0" width="1" height="1" fill="none" stroke="blue" stroke-width="0.005"/><path d="M 0.418 0.016 L 0.576 0.016 L 0.984 0.426 L 0.948 0.702 L 0.942 0.725 L 0.705 0.984 L 0.552 0.984 L 0.218 0.845 L 0.016 0.675 L 0.016 0.207 L 0.119 0.116 L 0.311 0.034 Z" fill="silver" stroke="gray" stroke-width="0.005"/><path d="M 0.576 0.016 L 0.984 0.426" fill="none" stroke="purple" stroke-width="0.002"/><path d="M 0.947 0.504 L 0.966 0.569" fill="none" stroke="purple" stroke-width="0.002"/><path d="M 0.380 0.022 L 0.389 0.031" fill="none" stroke="purple" stroke-width="0.002"/><path d="M 0.366 0.024 L 0.377 0.030" fill="none" stroke="purple" stroke-width="0.002"/><path d="M 0.371 0.024 L 0.389 0.031" fill="none" stroke="purple" stroke-width="0.002"/><path d="M 0.705 0.813 L 0.774 0.909" fill="none" stroke="purple" stroke-width="0.002"/><path d="M 0.705 0.813 L 0.719 0.969" fill="none" stroke="purple" stroke-width="0.002"/><path d="M 0.690 0.818 L 0.705 0.984" fill="none" stroke="purple" stroke-width="0.002"/><path d="M 0.690 0.818 L 0.763 0.921" fill="none" stroke="purple" stroke-width="0.002"/><path d="M 0.947 0.504 L 0.948 0.702" fill="none" stroke="purple" stroke-width="0.002"/><path d="M 0.016 0.207 L 0.016 0.675" fill="none" stroke="purple" stroke-width="0.002"/><path d="M 0.031 0.220 L 0.031 0.662" fill="none" stroke="purple" stroke-width="0.002"/><path d="M 0.576 0.016 L 0.574 0.440" fill="none" stroke="purple" stroke-width="0.002"/><path d="M 0.592 0.031 L 0.590 0.440" fill="none" stroke="purple" stroke-width="0.002"/><path d="M 0.311 0.034 L 0.357 0.037" fill="none" stroke="purple" stroke-width="0.002"/><path d="M 0.418 0.016 L 0.576 0.016" fill="none" stroke="purple" stroke-width="0.002"/><path d="M 0.389 0.031 L 0.592 0.031" fill="none" stroke="purple" stroke-width="0.002"/><path d="M 0.029 0.195 L 0.052 0.227" fill="none" stroke="purple" stroke-width="0.002"/><path d="M 0.119 0.116 L 0.052 0.227" fill="none" stroke="purple" stroke-width="0.002"/><path d="M 0.418 0.016 L 0.311 0.034" fill="none" stroke="purple" stroke-width="0.002"/><path d="M 0.029 0.195 L 0.121 0.282" fill="none" stroke="purple" stroke-width="0.002"/><path d="M 0.016 0.207 L 0.031 0.220" fill="none" stroke="purple" stroke-width="0.002"/><path d="M 0.119 0.116 L 0.016 0.207" fill="none" stroke="purple" stroke-width="0.002"/><path d="M 0.984 0.426 L 0.948 0.702" fill="none" stroke="purple" stroke-width="0.002"/><path d="M 0.311 0.034 L 0.119 0.116" fill="none" stroke="purple" stroke-width="0.002"/><path d="M 0.418 0.016 L 0.357 0.037" fill="none" stroke="purple" stroke-width="0.002"/><path d="M 0.091 0.646 L 0.218 0.845" fill="none" stroke="purple" stroke-width="0.002"/><path d="M 0.380 0.022 L 0.377 0.030" fill="none" stroke="purple" stroke-width="0.002"/><path d="M 0.366 0.024 L 0.121 0.282" fill="none" stroke="purple" stroke-width="0.002"/><path d="M 0.371 0.024 L 0.357 0.037" fill="none" stroke="purple" stroke-width="0.002"/><path d="M 0.175 0.581 L 0.574 0.984" fill="none" stroke="purple" stroke-width="0.002"/><path d="M 0.016 0.222 L 0.052 0.227" fill="none" stroke="purple" stroke-width="0.002"/><path d="M 0.031 0.220 L 0.016 0.222" fill="none" stroke="purple" stroke-width="0.002"/><path d="M 0.091 0.646 L 0.050 0.704" fill="none" stroke="purple" stroke-width="0.002"/><path d="M 0.972 0.413 L 0.947 0.504" fill="none" stroke="purple" stroke-width="0.002"/><path d="M 0.948 0.702 L 0.942 0.725" fill="none" stroke="purple" stroke-width="0.002"/><path d="M 0.769 0.906 L 0.774 0.909" fill="none" stroke="purple" stroke-width="0.002"/><path d="M 0.761 0.920 L 0.763 0.921" fill="none" stroke="purple" stroke-width="0.002"/><path d="M 0.175 0.581 L 0.050 0.704" fill="none" stroke="purple" stroke-width="0.002"/><path d="M 0.016 0.675 L 0.218 0.845" fill="none" stroke="purple" stroke-width="0.002"/><path d="M 0.031 0.662 L 0.016 0.675" fill="none" stroke="purple" stroke-width="0.002"/><path d="M 0.574 0.440 L 0.865 0.441" fill="none" stroke="purple" stroke-width="0.002"/><path d="M 0.984 0.426 L 0.865 0.441" fill="none" stroke="purple" stroke-width="0.002"/><path d="M 0.966 0.569 L 0.761 0.920" fill="none" stroke="purple" stroke-width="0.002"/><path d="M 0.972 0.413 L 0.865 0.441" fill="none" stroke="purple" stroke-width="0.002"/><path d="M 0.016 0.659 L 0.031 0.662" fill="none" stroke="purple" stroke-width="0.002"/><path d="M 0.091 0.646 L 0.016 0.659" fill="none" stroke="purple" stroke-width="0.002"/><path d="M 0.218 0.845 L 0.552 0.984" fill="none" stroke="purple" stroke-width="0.002"/><path d="M 0.590 0.969 L 0.574 0.984" fill="none" stroke="purple" stroke-width="0.002"/><path d="M 0.942 0.725 L 0.705 0.984" fill="none" stroke="purple" stroke-width="0.002"/><path d="M 0.942 0.725 L 0.690 0.818" fill="none" stroke="purple" stroke-width="0.002"/><path d="M 0.590 0.969 L 0.719 0.969" fill="none" stroke="purple" stroke-width="0.002"/><path d="M 0.552 0.984 L 0.705 0.984" fill="none" stroke="purple" stroke-width="0.002"/><path d="M 0.590 0.969 L 0.552 0.984" fill="none" stroke="purple" stroke-width="0.002"/></svg>