<svg xmlns="http://www.w3.org/2000/svg" xmlns:xlink="http://www.w3.org/1999/xlink" width="300px" height="300px" viewBox="0.000 0.000 1.000 1.000"><rect x="0" y="0" width="1" height="1" fill="none" stroke="blue" stroke-width="0.005"/><path d="M 0.397 0.183 L 0.603 0.183 L 0.770 0.304 L 0.831 0.500 L 0.770 0.696 L 0.603 0.817 L 0.397 0.817 L 0.230 0.696 L 0.169 0.500 L 0.230 0.304 Z" fill="silver" stroke="gray" stroke-width="0.005"/><path d="M 0.770 0.304 L 0.831 0.500" fill="none" stroke="purple" stroke-width="0.002"/><path d="M 0.729 0.581 L 0.770 0.696" fill="none" stroke="purple" stroke-width="0.002"/><path d="M 0.603 0.183 L 0.770 0.304" fill="none" stroke="purple" stroke-width="0.002"/><path d="M 0.738 0.581 L 0.773 0.687" fill="none" stroke="purple" stroke-width="0.002"/><path d="M 0.523 0.183 L 0.556 0.286" fill="none" stroke="purple" stroke-width="0.002"/><path d="M 0.410 0.183 L 0.763 0.701" fill="none" stroke="purple" stroke-width="0.002"/><path d="M 0.489 0.183 L 0.508 0.251" fill="none" stroke="purple" stroke-width="0.002"/><path d="M 0.649 0.551 L 0.763 0.701" fill="none" stroke="purple" stroke-width="0.002"/><path d="M 0.410 0.183 L 0.452 0.311" fill="none" stroke="purple" stroke-width="0.002"/><path d="M 0.418 0.183 L 0.556 0.286" fill="none" stroke="purple" stroke-width="0.002"/><path d="M 0.397 0.183 L 0.500 0.257" fill="none" stroke="purple" stroke-width="0.002"/><path d="M 0.409 0.184 L 0.508 0.251" fill="none" stroke="purple" stroke-width="0.002"/><path d="M 0.230 0.304 L 0.271 0.419" fill="none" stroke="purple" stroke-width="0.002"/><path d="M 0.356 0.693 L 0.397 0.817" fill="none" stroke="purple" stroke-width="0.002"/><path d="M 0.237 0.299 L 0.590 0.817" fill="none" stroke="purple" stroke-width="0.002"/><path d="M 0.237 0.299 L 0.462 0.594" fill="none" stroke="purple" stroke-width="0.002"/><path d="M 0.169 0.500 L 0.230 0.696" fill="none" stroke="purple" stroke-width="0.002"/><path d="M 0.706 0.508 L 0.806 0.580" fill="none" stroke="purple" stroke-width="0.002"/><path d="M 0.734 0.596 L 0.790 0.634" fill="none" stroke="purple" stroke-width="0.002"/><path d="M 0.230 0.304 L 0.169 0.500" fill="none" stroke="purple" stroke-width="0.002"/><path d="M 0.410 0.183 L 0.407 0.191" fill="none" stroke="purple" stroke-width="0.002"/><path d="M 0.489 0.183 L 0.452 0.311" fill="none" stroke="purple" stroke-width="0.002"/><path d="M 0.323 0.634 L 0.291 0.740" fill="none" stroke="purple" stroke-width="0.002"/><path d="M 0.523 0.183 L 0.500 0.257" fill="none" stroke="purple" stroke-width="0.002"/><path d="M 0.397 0.183 L 0.603 0.183" fill="none" stroke="purple" stroke-width="0.002"/><path d="M 0.194 0.420 L 0.450 0.603" fill="none" stroke="purple" stroke-width="0.002"/><path d="M 0.556 0.286 L 0.450 0.603" fill="none" stroke="purple" stroke-width="0.002"/><path d="M 0.738 0.581 L 0.734 0.596" fill="none" stroke="purple" stroke-width="0.002"/><path d="M 0.410 0.183 L 0.409 0.184" fill="none" stroke="purple" stroke-width="0.002"/><path d="M 0.706 0.508 L 0.603 0.817" fill="none" stroke="purple" stroke-width="0.002"/><path d="M 0.831 0.500 L 0.770 0.696" fill="none" stroke="purple" stroke-width="0.002"/><path d="M 0.323 0.634 L 0.591 0.816" fill="none" stroke="purple" stroke-width="0.002"/><path d="M 0.397 0.183 L 0.230 0.304" fill="none" stroke="purple" stroke-width="0.002"/><path d="M 0.418 0.183 L 0.407 0.191" fill="none" stroke="purple" stroke-width="0.002"/><path d="M 0.770 0.304 L 0.452 0.311" fill="none" stroke="purple" stroke-width="0.002"/><path d="M 0.230 0.696 L 0.397 0.817" fill="none" stroke="purple" stroke-width="0.002"/><path d="M 0.271 0.419 L 0.169 0.500" fill="none" stroke="purple" stroke-width="0.002"/><path d="M 0.603 0.183 L 0.500 0.257" fill="none" stroke="purple" stroke-width="0.002"/><path d="M 0.271 0.419 L 0.194 0.420" fill="none" stroke="purple" stroke-width="0.002"/><path d="M 0.591 0.816 L 0.590 0.817" fill="none" stroke="purple" stroke-width="0.002"/><path d="M 0.806 0.580 L 0.729 0.581" fill="none" stroke="purple" stroke-width="0.002"/><path d="M 0.462 0.594 L 0.450 0.603" fill="none" stroke="purple" stroke-width="0.002"/><path d="M 0.356 0.693 L 0.291 0.740" fill="none" stroke="purple" stroke-width="0.002"/><path d="M 0.323 0.634 L 0.790 0.634" fill="none" stroke="purple" stroke-width="0.002"/><path d="M 0.706 0.508 L 0.649 0.551" fill="none" stroke="purple" stroke-width="0.002"/><path d="M 0.356 0.693 L 0.230 0.696" fill="none" stroke="purple" stroke-width="0.002"/><path d="M 0.831 0.500 L 0.729 0.581" fill="none" stroke="purple" stroke-width="0.002"/><path d="M 0.773 0.687 L 0.760 0.697" fill="none" stroke="purple" stroke-width="0.002"/><path d="M 0.397 0.817 L 0.603 0.817" fill="none" stroke="purple" stroke-width="0.002"/><path d="M 0.770 0.696 L 0.603 0.817" fill="none" stroke="purple" stroke-width="0.002"/></svg>