<svg xmlns="http://www.w3.org/2000/svg" xmlns:xlink="http://www.w3.org/1999/xlink" width="400px" height="400px" viewBox="0.000 0.000 0.662 0.634"><path d="M0.228 0.000L0.434 0.000L0.601 0.121L0.662 0.317L0.601 0.513L0.434 0.634L0.228 0.634L0.060 0.513L0.000 0.317L0.060 0.121Z" fill="silver" stroke="gray" stroke-width="0.005"/><g fill="none" stroke="purple" stroke-width="0.002"><path d="M0.601 0.121L0.662 0.317"/><path d="M0.559 0.398L0.601 0.513"/><path d="M0.434 0.000L0.601 0.121"/><path d="M0.569 0.398L0.604 0.504"/><path d="M0.354 0.000L0.386 0.103"/><path d="M0.241 0.000L0.594 0.518"/><path d="M0.320 0.000L0.339 0.068"/><path d="M0.480 0.368L0.594 0.518"/><path d="M0.241 0.000L0.283 0.128"/><path d="M0.248 0.000L0.386 0.103"/><path d="M0.228 0.000L0.331 0.074"/><path d="M0.240 0.001L0.339 0.068"/><path d="M0.060 0.121L0.102 0.235"/><path d="M0.187 0.510L0.228 0.634"/><path d="M0.068 0.116L0.421 0.634"/><path d="M0.068 0.116L0.293 0.411"/><path d="M0.000 0.317L0.060 0.513"/><path d="M0.536 0.325L0.637 0.397"/><path d="M0.565 0.413L0.620 0.451"/><path d="M0.060 0.121L0.000 0.317"/><path d="M0.241 0.000L0.238 0.008"/><path d="M0.320 0.000L0.283 0.128"/><path d="M0.154 0.451L0.121 0.557"/><path d="M0.354 0.000L0.331 0.074"/><path d="M0.228 0.000L0.434 0.000"/><path d="M0.025 0.237L0.281 0.420"/><path d="M0.386 0.103L0.281 0.420"/><path d="M0.569 0.398L0.565 0.413"/><path d="M0.241 0.000L0.240 0.001"/><path d="M0.536 0.325L0.434 0.634"/><path d="M0.662 0.317L0.601 0.513"/><path d="M0.154 0.451L0.421 0.633"/><path d="M0.228 0.000L0.060 0.121"/><path d="M0.248 0.000L0.238 0.008"/><path d="M0.601 0.121L0.283 0.128"/><path d="M0.060 0.513L0.228 0.634"/><path d="M0.102 0.235L0.000 0.317"/><path d="M0.434 0.000L0.331 0.074"/><path d="M0.102 0.235L0.025 0.237"/><path d="M0.421 0.633L0.421 0.634"/><path d="M0.637 0.397L0.559 0.398"/><path d="M0.293 0.411L0.281 0.420"/><path d="M0.187 0.510L0.121 0.557"/><path d="M0.154 0.451L0.620 0.451"/><path d="M0.536 0.325L0.480 0.368"/><path d="M0.187 0.510L0.060 0.513"/><path d="M0.662 0.317L0.559 0.398"/><path d="M0.604 0.504L0.591 0.514"/><path d="M0.228 0.634L0.434 0.634"/><path d="M0.601 0.513L0.434 0.634"/></g></svg>