<svg xmlns="http://www.w3.org/2000/svg" xmlns:xlink="http://www.w3.org/1999/xlink" width="400px" height="400px" viewBox="0.000 0.000 0.938 0.562"><path d="M0.062 0.000L0.812 0.000L0.938 0.125L0.938 0.250L0.625 0.562L0.438 0.375L0.375 0.438L0.000 0.062Z" fill="silver" stroke="gray" stroke-width="0.005"/><g fill="none" stroke="purple" stroke-width="0.002"><path d="M0.812 0.000L0.938 0.125"/><path d="M0.875 0.188L0.938 0.250"/><path d="M0.375 0.000L0.375 0.438"/><path d="M0.625 0.000L0.625 0.562"/><path d="M0.938 0.125L0.938 0.250"/><path d="M0.062 0.000L0.625 0.562"/><path d="M0.000 0.062L0.375 0.438"/><path d="M0.062 0.000L0.000 0.062"/><path d="M0.062 0.000L0.812 0.000"/><path d="M0.000 0.062L0.625 0.062"/><path d="M0.375 0.188L0.938 0.188"/><path d="M0.812 0.000L0.375 0.438"/><path d="M0.938 0.125L0.875 0.188"/><path d="M0.938 0.250L0.625 0.562"/></g></svg>