<svg xmlns="http://www.w3.org/2000/svg" xmlns:xlink="http://www.w3.org/1999/xlink" width="300px" height="300px" viewBox="0.000 0.000 1.000 1.000"><rect x="0" y="0" width="1" height="1" fill="none" stroke="blue" stroke-width="0.005"/><path d="M 0.062 0.438 L 0.812 0.438 L 0.938 0.562 L 0.938 0.688 L 0.625 1.000 L 0.438 0.812 L 0.375 0.875 L 0.000 0.500 Z" fill="silver" stroke="gray" stroke-width="0.005"/><path d="M 0.812 0.438 L 0.938 0.562" fill="none" stroke="purple" stroke-width="0.002"/><path d="M 0.875 0.625 L 0.938 0.688" fill="none" stroke="purple" stroke-width="0.002"/><path d="M 0.375 0.438 L 0.375 0.875" fill="none" stroke="purple" stroke-width="0.002"/><path d="M 0.625 0.438 L 0.625 1.000" fill="none" stroke="purple" stroke-width="0.002"/><path d="M 0.938 0.562 L 0.938 0.688" fill="none" stroke="purple" stroke-width="0.002"/><path d="M 0.062 0.438 L 0.625 1.000" fill="none" stroke="purple" stroke-width="0.002"/><path d="M 0.000 0.500 L 0.375 0.875" fill="none" stroke="purple" stroke-width="0.002"/><path d="M 0.062 0.438 L 0.000 0.500" fill="none" stroke="purple" stroke-width="0.002"/><path d="M 0.062 0.438 L 0.812 0.438" fill="none" stroke="purple" stroke-width="0.002"/><path d="M 0.000 0.500 L 0.625 0.500" fill="none" stroke="purple" stroke-width="0.002"/><path d="M 0.375 0.625 L 0.938 0.625" fill="none" stroke="purple" stroke-width="0.002"/><path d="M 0.812 0.438 L 0.375 0.875" fill="none" stroke="purple" stroke-width="0.002"/><path d="M 0.938 0.562 L 0.875 0.625" fill="none" stroke="purple" stroke-width="0.002"/><path d="M 0.938 0.688 L 0.625 1.000" fill="none" stroke="purple" stroke-width="0.002"/></svg>