<svg xmlns="http://www.w3.org/2000/svg" xmlns:xlink="http://www.w3.org/1999/xlink" width="400px" height="400px" viewBox="0.000 0.000 0.625 0.500"><path d="M0.250 0.000L0.375 0.000L0.625 0.250L0.625 0.438L0.438 0.438L0.375 0.500L0.250 0.500L0.188 0.438L0.000 0.438L0.000 0.250Z" fill="silver" stroke="gray" stroke-width="0.005"/><g fill="none" stroke="purple" stroke-width="0.002"><path d="M0.375 0.000L0.625 0.250"/><path d="M0.250 0.000L0.312 0.062"/><path d="M0.000 0.250L0.000 0.438"/><path d="M0.062 0.312L0.062 0.438"/><path d="M0.188 0.062L0.188 0.438"/><path d="M0.312 0.062L0.312 0.500"/><path d="M0.438 0.062L0.438 0.438"/><path d="M0.562 0.312L0.562 0.438"/><path d="M0.625 0.250L0.625 0.438"/><path d="M0.312 0.438L0.375 0.500"/><path d="M0.000 0.250L0.250 0.500"/><path d="M0.250 0.000L0.375 0.000"/><path d="M0.250 0.000L0.000 0.250"/><path d="M0.188 0.062L0.438 0.062"/><path d="M0.375 0.000L0.312 0.062"/><path d="M0.312 0.438L0.250 0.500"/><path d="M0.000 0.312L0.625 0.312"/><path d="M0.625 0.250L0.375 0.500"/><path d="M0.000 0.438L0.625 0.438"/><path d="M0.250 0.500L0.375 0.500"/></g></svg>