<svg xmlns="http://www.w3.org/2000/svg" xmlns:xlink="http://www.w3.org/1999/xlink" width="400px" height="400px" viewBox="0.000 0.000 0.167 1.000"><path d="M0.056 0.000L0.167 0.000L0.167 0.111L0.111 0.167L0.167 0.222L0.167 0.444L0.111 0.500L0.167 0.556L0.167 0.778L0.111 0.833L0.167 0.889L0.167 1.000L0.056 1.000L0.000 0.944L0.000 0.722L0.056 0.667L0.000 0.611L0.000 0.389L0.056 0.333L0.000 0.278L0.000 0.056Z" fill="silver" stroke="gray" stroke-width="0.005"/><g fill="none" stroke="purple" stroke-width="0.002"><path d="M0.000 0.056L0.167 0.222"/><path d="M0.000 0.278L0.167 0.444"/><path d="M0.000 0.389L0.167 0.556"/><path d="M0.056 0.000L0.167 0.000"/><path d="M0.000 0.056L0.000 0.278"/><path d="M0.000 0.389L0.000 0.611"/><path d="M0.000 0.722L0.000 0.944"/><path d="M0.056 0.000L0.056 1.000"/><path d="M0.167 0.000L0.167 0.111"/><path d="M0.167 0.222L0.167 0.444"/><path d="M0.167 0.556L0.167 0.778"/><path d="M0.167 0.889L0.167 1.000"/><path d="M0.000 0.611L0.167 0.778"/><path d="M0.000 0.722L0.167 0.889"/><path d="M0.000 0.111L0.167 0.111"/><path d="M0.000 0.944L0.056 1.000"/><path d="M0.000 0.222L0.167 0.222"/><path d="M0.056 0.000L0.000 0.056"/><path d="M0.056 0.333L0.167 0.333"/><path d="M0.167 0.111L0.000 0.278"/><path d="M0.000 0.444L0.167 0.444"/><path d="M0.167 0.222L0.000 0.389"/><path d="M0.000 0.556L0.167 0.556"/><path d="M0.167 0.444L0.000 0.611"/><path d="M0.167 0.556L0.000 0.722"/><path d="M0.056 0.667L0.167 0.667"/><path d="M0.167 0.778L0.000 0.944"/><path d="M0.000 0.778L0.167 0.778"/><path d="M0.000 0.889L0.167 0.889"/><path d="M0.056 1.000L0.167 1.000"/></g></svg>