<svg xmlns="http://www.w3.org/2000/svg" xmlns:xlink="http://www.w3.org/1999/xlink" width="300px" height="300px" viewBox="0.000 0.000 1.000 1.000"><rect x="0" y="0" width="1" height="1" fill="none" stroke="blue" stroke-width="0.005"/><path d="M 0.556 0.000 L 0.667 0.000 L 0.667 0.111 L 0.611 0.167 L 0.667 0.222 L 0.667 0.444 L 0.611 0.500 L 0.667 0.556 L 0.667 0.778 L 0.611 0.833 L 0.667 0.889 L 0.667 1.000 L 0.556 1.000 L 0.500 0.944 L 0.500 0.722 L 0.556 0.667 L 0.500 0.611 L 0.500 0.389 L 0.556 0.333 L 0.500 0.278 L 0.500 0.056 Z" fill="silver" stroke="gray" stroke-width="0.005"/><path d="M 0.500 0.056 L 0.667 0.222" fill="none" stroke="purple" stroke-width="0.002"/><path d="M 0.500 0.278 L 0.667 0.444" fill="none" stroke="purple" stroke-width="0.002"/><path d="M 0.500 0.389 L 0.667 0.556" fill="none" stroke="purple" stroke-width="0.002"/><path d="M 0.556 0.000 L 0.667 0.000" fill="none" stroke="purple" stroke-width="0.002"/><path d="M 0.500 0.056 L 0.500 0.278" fill="none" stroke="purple" stroke-width="0.002"/><path d="M 0.500 0.389 L 0.500 0.611" fill="none" stroke="purple" stroke-width="0.002"/><path d="M 0.500 0.722 L 0.500 0.944" fill="none" stroke="purple" stroke-width="0.002"/><path d="M 0.556 0.000 L 0.556 1.000" fill="none" stroke="purple" stroke-width="0.002"/><path d="M 0.667 0.000 L 0.667 0.111" fill="none" stroke="purple" stroke-width="0.002"/><path d="M 0.667 0.222 L 0.667 0.444" fill="none" stroke="purple" stroke-width="0.002"/><path d="M 0.667 0.556 L 0.667 0.778" fill="none" stroke="purple" stroke-width="0.002"/><path d="M 0.667 0.889 L 0.667 1.000" fill="none" stroke="purple" stroke-width="0.002"/><path d="M 0.500 0.611 L 0.667 0.778" fill="none" stroke="purple" stroke-width="0.002"/><path d="M 0.500 0.722 L 0.667 0.889" fill="none" stroke="purple" stroke-width="0.002"/><path d="M 0.500 0.111 L 0.667 0.111" fill="none" stroke="purple" stroke-width="0.002"/><path d="M 0.500 0.944 L 0.556 1.000" fill="none" stroke="purple" stroke-width="0.002"/><path d="M 0.500 0.222 L 0.667 0.222" fill="none" stroke="purple" stroke-width="0.002"/><path d="M 0.556 0.000 L 0.500 0.056" fill="none" stroke="purple" stroke-width="0.002"/><path d="M 0.556 0.333 L 0.667 0.333" fill="none" stroke="purple" stroke-width="0.002"/><path d="M 0.667 0.111 L 0.500 0.278" fill="none" stroke="purple" stroke-width="0.002"/><path d="M 0.500 0.444 L 0.667 0.444" fill="none" stroke="purple" stroke-width="0.002"/><path d="M 0.667 0.222 L 0.500 0.389" fill="none" stroke="purple" stroke-width="0.002"/><path d="M 0.500 0.556 L 0.667 0.556" fill="none" stroke="purple" stroke-width="0.002"/><path d="M 0.667 0.444 L 0.500 0.611" fill="none" stroke="purple" stroke-width="0.002"/><path d="M 0.667 0.556 L 0.500 0.722" fill="none" stroke="purple" stroke-width="0.002"/><path d="M 0.556 0.667 L 0.667 0.667" fill="none" stroke="purple" stroke-width="0.002"/><path d="M 0.667 0.778 L 0.500 0.944" fill="none" stroke="purple" stroke-width="0.002"/><path d="M 0.500 0.778 L 0.667 0.778" fill="none" stroke="purple" stroke-width="0.002"/><path d="M 0.500 0.889 L 0.667 0.889" fill="none" stroke="purple" stroke-width="0.002"/><path d="M 0.556 1.000 L 0.667 1.000" fill="none" stroke="purple" stroke-width="0.002"/></svg>