<svg xmlns="http://www.w3.org/2000/svg" xmlns:xlink="http://www.w3.org/1999/xlink" width="400px" height="400px" viewBox="0.000 0.000 0.500 0.500"><path d="M0.250 0.000L0.500 0.250L0.250 0.500L0.000 0.250L0.062 0.188L0.125 0.250L0.188 0.250L0.188 0.188L0.250 0.188L0.250 0.125L0.188 0.062Z" fill="silver" stroke="gray" stroke-width="0.005"/><g fill="none" stroke="purple" stroke-width="0.002"><path d="M0.250 0.000L0.500 0.250"/><path d="M0.188 0.062L0.438 0.312"/><path d="M0.188 0.188L0.188 0.438"/><path d="M0.250 0.000L0.250 0.500"/><path d="M0.438 0.188L0.438 0.312"/><path d="M0.062 0.188L0.312 0.438"/><path d="M0.000 0.250L0.250 0.500"/><path d="M0.250 0.000L0.188 0.062"/><path d="M0.062 0.188L0.000 0.250"/><path d="M0.188 0.188L0.438 0.188"/><path d="M0.000 0.250L0.500 0.250"/><path d="M0.500 0.250L0.250 0.500"/><path d="M0.188 0.438L0.312 0.438"/></g></svg>