<svg xmlns="http://www.w3.org/2000/svg" xmlns:xlink="http://www.w3.org/1999/xlink" width="400px" height="400px" viewBox="0.000 0.000 0.688 0.438"><path d="M0.250 0.000L0.625 0.000L0.625 0.125L0.688 0.188L0.688 0.312L0.562 0.438L0.438 0.438L0.375 0.375L0.312 0.438L0.000 0.125L0.125 0.125Z" fill="silver" stroke="gray" stroke-width="0.005"/><g fill="none" stroke="purple" stroke-width="0.002"><path d="M0.625 0.125L0.688 0.188"/><path d="M0.250 0.000L0.312 0.062"/><path d="M0.125 0.125L0.438 0.438"/><path d="M0.125 0.125L0.125 0.250"/><path d="M0.250 0.250L0.250 0.375"/><path d="M0.375 0.000L0.375 0.375"/><path d="M0.500 0.125L0.500 0.438"/><path d="M0.562 0.312L0.562 0.438"/><path d="M0.625 0.000L0.625 0.125"/><path d="M0.625 0.250L0.625 0.375"/><path d="M0.688 0.188L0.688 0.312"/><path d="M0.000 0.125L0.312 0.438"/><path d="M0.250 0.000L0.625 0.000"/><path d="M0.312 0.062L0.625 0.062"/><path d="M0.000 0.125L0.625 0.125"/><path d="M0.250 0.000L0.062 0.188"/><path d="M0.375 0.000L0.312 0.062"/><path d="M0.125 0.250L0.688 0.250"/><path d="M0.562 0.312L0.688 0.312"/><path d="M0.250 0.375L0.375 0.375"/><path d="M0.500 0.375L0.625 0.375"/><path d="M0.625 0.125L0.312 0.438"/><path d="M0.438 0.438L0.562 0.438"/><path d="M0.688 0.188L0.625 0.250"/><path d="M0.500 0.375L0.438 0.438"/><path d="M0.688 0.312L0.562 0.438"/></g></svg>