<svg xmlns="http://www.w3.org/2000/svg" xmlns:xlink="http://www.w3.org/1999/xlink" width="300px" height="300px" viewBox="0.000 0.000 1.000 1.000"><rect x="0" y="0" width="1" height="1" fill="none" stroke="blue" stroke-width="0.005"/><path d="M 0.500 0.250 L 0.875 0.250 L 0.875 0.375 L 0.938 0.438 L 0.938 0.562 L 0.812 0.688 L 0.688 0.688 L 0.625 0.625 L 0.562 0.688 L 0.250 0.375 L 0.375 0.375 Z" fill="silver" stroke="gray" stroke-width="0.005"/><path d="M 0.875 0.375 L 0.938 0.438" fill="none" stroke="purple" stroke-width="0.002"/><path d="M 0.500 0.250 L 0.562 0.312" fill="none" stroke="purple" stroke-width="0.002"/><path d="M 0.375 0.375 L 0.688 0.688" fill="none" stroke="purple" stroke-width="0.002"/><path d="M 0.375 0.375 L 0.375 0.500" fill="none" stroke="purple" stroke-width="0.002"/><path d="M 0.500 0.500 L 0.500 0.625" fill="none" stroke="purple" stroke-width="0.002"/><path d="M 0.625 0.250 L 0.625 0.625" fill="none" stroke="purple" stroke-width="0.002"/><path d="M 0.750 0.375 L 0.750 0.688" fill="none" stroke="purple" stroke-width="0.002"/><path d="M 0.812 0.562 L 0.812 0.688" fill="none" stroke="purple" stroke-width="0.002"/><path d="M 0.875 0.250 L 0.875 0.375" fill="none" stroke="purple" stroke-width="0.002"/><path d="M 0.875 0.500 L 0.875 0.625" fill="none" stroke="purple" stroke-width="0.002"/><path d="M 0.938 0.438 L 0.938 0.562" fill="none" stroke="purple" stroke-width="0.002"/><path d="M 0.250 0.375 L 0.562 0.688" fill="none" stroke="purple" stroke-width="0.002"/><path d="M 0.500 0.250 L 0.875 0.250" fill="none" stroke="purple" stroke-width="0.002"/><path d="M 0.562 0.312 L 0.875 0.312" fill="none" stroke="purple" stroke-width="0.002"/><path d="M 0.250 0.375 L 0.875 0.375" fill="none" stroke="purple" stroke-width="0.002"/><path d="M 0.500 0.250 L 0.312 0.438" fill="none" stroke="purple" stroke-width="0.002"/><path d="M 0.625 0.250 L 0.562 0.312" fill="none" stroke="purple" stroke-width="0.002"/><path d="M 0.375 0.500 L 0.938 0.500" fill="none" stroke="purple" stroke-width="0.002"/><path d="M 0.812 0.562 L 0.938 0.562" fill="none" stroke="purple" stroke-width="0.002"/><path d="M 0.500 0.625 L 0.625 0.625" fill="none" stroke="purple" stroke-width="0.002"/><path d="M 0.750 0.625 L 0.875 0.625" fill="none" stroke="purple" stroke-width="0.002"/><path d="M 0.875 0.375 L 0.562 0.688" fill="none" stroke="purple" stroke-width="0.002"/><path d="M 0.688 0.688 L 0.812 0.688" fill="none" stroke="purple" stroke-width="0.002"/><path d="M 0.938 0.438 L 0.875 0.500" fill="none" stroke="purple" stroke-width="0.002"/><path d="M 0.750 0.625 L 0.688 0.688" fill="none" stroke="purple" stroke-width="0.002"/><path d="M 0.938 0.562 L 0.812 0.688" fill="none" stroke="purple" stroke-width="0.002"/></svg>