<svg xmlns="http://www.w3.org/2000/svg" xmlns:xlink="http://www.w3.org/1999/xlink" width="400px" height="400px" viewBox="0.000 0.000 0.250 1.000"><path d="M0.150 0.000L0.150 0.100L0.200 0.150L0.200 0.450L0.250 0.500L0.250 1.000L0.000 0.750L0.050 0.700L0.050 0.300L0.100 0.250L0.100 0.050Z" fill="silver" stroke="gray" stroke-width="0.005"/><g fill="none" stroke="purple" stroke-width="0.002"><path d="M0.100 0.050L0.200 0.150"/><path d="M0.050 0.300L0.250 0.500"/><path d="M0.050 0.300L0.050 0.800"/><path d="M0.100 0.050L0.100 0.850"/><path d="M0.150 0.000L0.150 0.900"/><path d="M0.200 0.150L0.200 0.950"/><path d="M0.250 0.500L0.250 1.000"/><path d="M0.000 0.750L0.250 1.000"/><path d="M0.150 0.000L0.100 0.050"/><path d="M0.200 0.150L0.050 0.300"/><path d="M0.250 0.500L0.000 0.750"/><path d="M0.000 0.750L0.250 0.750"/><path d="M0.050 0.800L0.250 0.800"/><path d="M0.100 0.850L0.250 0.850"/><path d="M0.150 0.900L0.250 0.900"/><path d="M0.200 0.950L0.250 0.950"/></g></svg>