<svg xmlns="http://www.w3.org/2000/svg" xmlns:xlink="http://www.w3.org/1999/xlink" width="300px" height="300px" viewBox="0.000 0.000 1.000 1.000"><rect x="0" y="0" width="1" height="1" fill="none" stroke="blue" stroke-width="0.005"/><path d="M 0.500 0.000 L 0.500 0.100 L 0.550 0.150 L 0.550 0.450 L 0.600 0.500 L 0.600 1.000 L 0.350 0.750 L 0.400 0.700 L 0.400 0.300 L 0.450 0.250 L 0.450 0.050 Z" fill="silver" stroke="gray" stroke-width="0.005"/><path d="M 0.450 0.050 L 0.550 0.150" fill="none" stroke="purple" stroke-width="0.002"/><path d="M 0.400 0.300 L 0.600 0.500" fill="none" stroke="purple" stroke-width="0.002"/><path d="M 0.400 0.300 L 0.400 0.800" fill="none" stroke="purple" stroke-width="0.002"/><path d="M 0.450 0.050 L 0.450 0.850" fill="none" stroke="purple" stroke-width="0.002"/><path d="M 0.500 0.000 L 0.500 0.900" fill="none" stroke="purple" stroke-width="0.002"/><path d="M 0.550 0.150 L 0.550 0.950" fill="none" stroke="purple" stroke-width="0.002"/><path d="M 0.600 0.500 L 0.600 1.000" fill="none" stroke="purple" stroke-width="0.002"/><path d="M 0.350 0.750 L 0.600 1.000" fill="none" stroke="purple" stroke-width="0.002"/><path d="M 0.500 0.000 L 0.450 0.050" fill="none" stroke="purple" stroke-width="0.002"/><path d="M 0.550 0.150 L 0.400 0.300" fill="none" stroke="purple" stroke-width="0.002"/><path d="M 0.600 0.500 L 0.350 0.750" fill="none" stroke="purple" stroke-width="0.002"/><path d="M 0.350 0.750 L 0.600 0.750" fill="none" stroke="purple" stroke-width="0.002"/><path d="M 0.400 0.800 L 0.600 0.800" fill="none" stroke="purple" stroke-width="0.002"/><path d="M 0.450 0.850 L 0.600 0.850" fill="none" stroke="purple" stroke-width="0.002"/><path d="M 0.500 0.900 L 0.600 0.900" fill="none" stroke="purple" stroke-width="0.002"/><path d="M 0.550 0.950 L 0.600 0.950" fill="none" stroke="purple" stroke-width="0.002"/></svg>