<svg xmlns="http://www.w3.org/2000/svg" xmlns:xlink="http://www.w3.org/1999/xlink" width="300px" height="300px" viewBox="0.000 0.000 1.000 1.000"><rect x="0" y="0" width="1" height="1" fill="none" stroke="blue" stroke-width="0.005"/><path d="M 0.438 0.188 L 0.562 0.188 L 0.750 0.375 L 0.750 0.500 L 0.625 0.625 L 0.562 0.562 L 0.562 0.688 L 0.438 0.812 L 0.312 0.812 L 0.250 0.750 L 0.312 0.688 L 0.375 0.688 L 0.375 0.250 Z" fill="silver" stroke="gray" stroke-width="0.005"/><path d="M 0.562 0.188 L 0.750 0.375" fill="none" stroke="purple" stroke-width="0.002"/><path d="M 0.562 0.562 L 0.625 0.625" fill="none" stroke="purple" stroke-width="0.002"/><path d="M 0.375 0.250 L 0.375 0.812" fill="none" stroke="purple" stroke-width="0.002"/><path d="M 0.438 0.188 L 0.438 0.250" fill="none" stroke="purple" stroke-width="0.002"/><path d="M 0.500 0.188 L 0.500 0.750" fill="none" stroke="purple" stroke-width="0.002"/><path d="M 0.562 0.188 L 0.562 0.688" fill="none" stroke="purple" stroke-width="0.002"/><path d="M 0.625 0.250 L 0.625 0.625" fill="none" stroke="purple" stroke-width="0.002"/><path d="M 0.750 0.375 L 0.750 0.500" fill="none" stroke="purple" stroke-width="0.002"/><path d="M 0.312 0.688 L 0.438 0.812" fill="none" stroke="purple" stroke-width="0.002"/><path d="M 0.438 0.188 L 0.562 0.188" fill="none" stroke="purple" stroke-width="0.002"/><path d="M 0.250 0.750 L 0.312 0.812" fill="none" stroke="purple" stroke-width="0.002"/><path d="M 0.375 0.250 L 0.625 0.250" fill="none" stroke="purple" stroke-width="0.002"/><path d="M 0.438 0.188 L 0.375 0.250" fill="none" stroke="purple" stroke-width="0.002"/><path d="M 0.375 0.375 L 0.750 0.375" fill="none" stroke="purple" stroke-width="0.002"/><path d="M 0.625 0.500 L 0.750 0.500" fill="none" stroke="purple" stroke-width="0.002"/><path d="M 0.312 0.688 L 0.250 0.750" fill="none" stroke="purple" stroke-width="0.002"/><path d="M 0.750 0.375 L 0.312 0.812" fill="none" stroke="purple" stroke-width="0.002"/><path d="M 0.750 0.500 L 0.625 0.625" fill="none" stroke="purple" stroke-width="0.002"/><path d="M 0.562 0.688 L 0.438 0.812" fill="none" stroke="purple" stroke-width="0.002"/><path d="M 0.312 0.688 L 0.562 0.688" fill="none" stroke="purple" stroke-width="0.002"/><path d="M 0.250 0.750 L 0.500 0.750" fill="none" stroke="purple" stroke-width="0.002"/><path d="M 0.312 0.812 L 0.438 0.812" fill="none" stroke="purple" stroke-width="0.002"/></svg>