<svg xmlns="http://www.w3.org/2000/svg" xmlns:xlink="http://www.w3.org/1999/xlink" width="300px" height="300px" viewBox="0.000 0.000 1.000 1.000"><rect x="0" y="0" width="1" height="1" fill="none" stroke="blue" stroke-width="0.005"/><path d="M 0.000 0.000 L 0.062 0.000 L 0.062 0.062 L 0.125 0.062 L 0.188 0.125 L 0.188 0.188 L 0.250 0.188 L 0.312 0.250 L 0.312 0.312 L 0.375 0.312 L 0.438 0.375 L 0.438 0.438 L 0.500 0.438 L 0.562 0.500 L 0.438 0.500 L 0.375 0.438 L 0.375 0.375 L 0.312 0.375 L 0.250 0.312 L 0.250 0.250 L 0.188 0.250 L 0.125 0.188 L 0.125 0.125 L 0.062 0.125 L 0.000 0.062 Z" fill="silver" stroke="gray" stroke-width="0.005"/><path d="M 0.125 0.062 L 0.188 0.125" fill="none" stroke="purple" stroke-width="0.002"/><path d="M 0.250 0.188 L 0.312 0.250" fill="none" stroke="purple" stroke-width="0.002"/><path d="M 0.375 0.312 L 0.438 0.375" fill="none" stroke="purple" stroke-width="0.002"/><path d="M 0.500 0.438 L 0.562 0.500" fill="none" stroke="purple" stroke-width="0.002"/><path d="M 0.000 0.000 L 0.062 0.000" fill="none" stroke="purple" stroke-width="0.002"/><path d="M 0.000 0.000 L 0.000 0.062" fill="none" stroke="purple" stroke-width="0.002"/><path d="M 0.062 0.000 L 0.062 0.125" fill="none" stroke="purple" stroke-width="0.002"/><path d="M 0.125 0.062 L 0.125 0.188" fill="none" stroke="purple" stroke-width="0.002"/><path d="M 0.188 0.125 L 0.188 0.250" fill="none" stroke="purple" stroke-width="0.002"/><path d="M 0.250 0.188 L 0.250 0.312" fill="none" stroke="purple" stroke-width="0.002"/><path d="M 0.312 0.250 L 0.312 0.375" fill="none" stroke="purple" stroke-width="0.002"/><path d="M 0.375 0.312 L 0.375 0.438" fill="none" stroke="purple" stroke-width="0.002"/><path d="M 0.438 0.375 L 0.438 0.500" fill="none" stroke="purple" stroke-width="0.002"/><path d="M 0.500 0.438 L 0.500 0.500" fill="none" stroke="purple" stroke-width="0.002"/><path d="M 0.000 0.062 L 0.062 0.125" fill="none" stroke="purple" stroke-width="0.002"/><path d="M 0.125 0.188 L 0.188 0.250" fill="none" stroke="purple" stroke-width="0.002"/><path d="M 0.250 0.312 L 0.312 0.375" fill="none" stroke="purple" stroke-width="0.002"/><path d="M 0.375 0.438 L 0.438 0.500" fill="none" stroke="purple" stroke-width="0.002"/><path d="M 0.000 0.062 L 0.125 0.062" fill="none" stroke="purple" stroke-width="0.002"/><path d="M 0.062 0.125 L 0.188 0.125" fill="none" stroke="purple" stroke-width="0.002"/><path d="M 0.125 0.188 L 0.250 0.188" fill="none" stroke="purple" stroke-width="0.002"/><path d="M 0.188 0.250 L 0.312 0.250" fill="none" stroke="purple" stroke-width="0.002"/><path d="M 0.250 0.312 L 0.375 0.312" fill="none" stroke="purple" stroke-width="0.002"/><path d="M 0.312 0.375 L 0.438 0.375" fill="none" stroke="purple" stroke-width="0.002"/><path d="M 0.375 0.438 L 0.500 0.438" fill="none" stroke="purple" stroke-width="0.002"/><path d="M 0.438 0.500 L 0.562 0.500" fill="none" stroke="purple" stroke-width="0.002"/></svg>