<svg xmlns="http://www.w3.org/2000/svg" xmlns:xlink="http://www.w3.org/1999/xlink" width="400px" height="400px" viewBox="0.000 0.000 0.562 0.500"><path d="M0.000 0.000L0.062 0.000L0.062 0.062L0.125 0.062L0.188 0.125L0.188 0.188L0.250 0.188L0.312 0.250L0.312 0.312L0.375 0.312L0.438 0.375L0.438 0.438L0.500 0.438L0.562 0.500L0.438 0.500L0.375 0.438L0.375 0.375L0.312 0.375L0.250 0.312L0.250 0.250L0.188 0.250L0.125 0.188L0.125 0.125L0.062 0.125L0.000 0.062Z" fill="silver" stroke="gray" stroke-width="0.005"/><g fill="none" stroke="purple" stroke-width="0.002"><path d="M0.125 0.062L0.188 0.125"/><path d="M0.250 0.188L0.312 0.250"/><path d="M0.375 0.312L0.438 0.375"/><path d="M0.500 0.438L0.562 0.500"/><path d="M0.000 0.000L0.062 0.000"/><path d="M0.000 0.000L0.000 0.062"/><path d="M0.062 0.000L0.062 0.125"/><path d="M0.125 0.062L0.125 0.188"/><path d="M0.188 0.125L0.188 0.250"/><path d="M0.250 0.188L0.250 0.312"/><path d="M0.312 0.250L0.312 0.375"/><path d="M0.375 0.312L0.375 0.438"/><path d="M0.438 0.375L0.438 0.500"/><path d="M0.500 0.438L0.500 0.500"/><path d="M0.000 0.062L0.062 0.125"/><path d="M0.125 0.188L0.188 0.250"/><path d="M0.250 0.312L0.312 0.375"/><path d="M0.375 0.438L0.438 0.500"/><path d="M0.000 0.062L0.125 0.062"/><path d="M0.062 0.125L0.188 0.125"/><path d="M0.125 0.188L0.250 0.188"/><path d="M0.188 0.250L0.312 0.250"/><path d="M0.250 0.312L0.375 0.312"/><path d="M0.312 0.375L0.438 0.375"/><path d="M0.375 0.438L0.500 0.438"/><path d="M0.438 0.500L0.562 0.500"/></g></svg>