<svg xmlns="http://www.w3.org/2000/svg" xmlns:xlink="http://www.w3.org/1999/xlink" width="300px" height="300px" viewBox="0.000 0.000 1.000 1.207"><rect x="0" y="0" width="1" height="1" fill="none" stroke="blue" stroke-width="0.005"/><path d="M 0.862 0.845 L 0.665 1.052 L 0.728 1.131 L 0.603 1.116 L 0.517 1.207 L 0.427 1.121 L 0.303 1.141 L 0.362 1.059 L 0.155 0.862 Z" fill="silver" stroke="gray" stroke-width="0.005"/><path d="M 0.509 0.853 L 0.603 1.116" fill="none" stroke="purple" stroke-width="0.002"/><path d="M 0.509 0.853 L 0.517 1.207" fill="none" stroke="purple" stroke-width="0.002"/><path d="M 0.509 0.853 L 0.728 1.131" fill="none" stroke="purple" stroke-width="0.002"/><path d="M 0.685 0.849 L 0.776 0.935" fill="none" stroke="purple" stroke-width="0.002"/><path d="M 0.509 0.853 L 0.427 1.121" fill="none" stroke="purple" stroke-width="0.002"/><path d="M 0.332 0.858 L 0.513 1.030" fill="none" stroke="purple" stroke-width="0.002"/><path d="M 0.155 0.862 L 0.517 1.207" fill="none" stroke="purple" stroke-width="0.002"/><path d="M 0.509 0.853 L 0.303 1.141" fill="none" stroke="purple" stroke-width="0.002"/><path d="M 0.332 0.858 L 0.246 0.948" fill="none" stroke="purple" stroke-width="0.002"/><path d="M 0.685 0.849 L 0.513 1.030" fill="none" stroke="purple" stroke-width="0.002"/><path d="M 0.862 0.845 L 0.517 1.207" fill="none" stroke="purple" stroke-width="0.002"/><path d="M 0.862 0.845 L 0.155 0.862" fill="none" stroke="purple" stroke-width="0.002"/><path d="M 0.776 0.935 L 0.246 0.948" fill="none" stroke="purple" stroke-width="0.002"/><path d="M 0.603 1.116 L 0.728 1.131" fill="none" stroke="purple" stroke-width="0.002"/><path d="M 0.427 1.121 L 0.303 1.141" fill="none" stroke="purple" stroke-width="0.002"/></svg>