<svg xmlns="http://www.w3.org/2000/svg" xmlns:xlink="http://www.w3.org/1999/xlink" width="400px" height="400px" viewBox="0.000 0.000 0.707 0.362"><path d="M0.707 0.000L0.510 0.207L0.572 0.286L0.448 0.272L0.362 0.362L0.272 0.276L0.148 0.297L0.207 0.214L0.000 0.017Z" fill="silver" stroke="gray" stroke-width="0.005"/><g fill="none" stroke="purple" stroke-width="0.002"><path d="M0.353 0.009L0.448 0.272"/><path d="M0.353 0.009L0.362 0.362"/><path d="M0.353 0.009L0.572 0.286"/><path d="M0.530 0.004L0.621 0.091"/><path d="M0.353 0.009L0.272 0.276"/><path d="M0.177 0.013L0.358 0.185"/><path d="M0.000 0.017L0.362 0.362"/><path d="M0.353 0.009L0.148 0.297"/><path d="M0.177 0.013L0.091 0.103"/><path d="M0.530 0.004L0.358 0.185"/><path d="M0.707 0.000L0.362 0.362"/><path d="M0.707 0.000L0.000 0.017"/><path d="M0.621 0.091L0.091 0.103"/><path d="M0.448 0.272L0.572 0.286"/><path d="M0.272 0.276L0.148 0.297"/></g></svg>