<svg xmlns="http://www.w3.org/2000/svg" xmlns:xlink="http://www.w3.org/1999/xlink" width="400px" height="400px" viewBox="0.000 0.000 1.000 1.000"><path d="M0.500 0.000L0.750 0.250L0.750 0.500L1.000 0.500L0.750 0.750L0.500 0.750L0.500 1.000L0.250 0.750L0.250 0.500L0.000 0.500L0.250 0.250L0.500 0.250Z" fill="silver" stroke="gray" stroke-width="0.005"/><g fill="none" stroke="purple" stroke-width="0.002"><path d="M0.500 0.000L0.750 0.250"/><path d="M0.250 0.250L0.250 0.750"/><path d="M0.500 0.000L0.500 1.000"/><path d="M0.750 0.250L0.750 0.750"/><path d="M0.250 0.250L0.750 0.750"/><path d="M0.250 0.750L0.500 1.000"/><path d="M0.250 0.250L0.000 0.500"/><path d="M0.250 0.250L0.750 0.250"/><path d="M0.750 0.250L0.250 0.750"/><path d="M0.000 0.500L1.000 0.500"/><path d="M1.000 0.500L0.750 0.750"/><path d="M0.250 0.750L0.750 0.750"/></g></svg>