<svg xmlns="http://www.w3.org/2000/svg" xmlns:xlink="http://www.w3.org/1999/xlink" width="400px" height="400px" viewBox="0.000 0.000 0.436 0.761"><path d="M0.264 0.000L0.436 0.181L0.428 0.534L0.247 0.707L0.068 0.761L0.000 0.666L0.070 0.677L0.074 0.526L0.255 0.353Z" fill="silver" stroke="gray" stroke-width="0.005"/><g fill="none" stroke="purple" stroke-width="0.002"><path d="M0.264 0.000L0.436 0.181"/><path d="M0.255 0.353L0.428 0.534"/><path d="M0.000 0.666L0.068 0.761"/><path d="M0.074 0.526L0.068 0.761"/><path d="M0.264 0.000L0.255 0.353"/><path d="M0.436 0.181L0.428 0.534"/><path d="M0.074 0.526L0.428 0.534"/><path d="M0.000 0.666L0.247 0.707"/><path d="M0.436 0.181L0.074 0.526"/><path d="M0.247 0.707L0.068 0.761"/><path d="M0.428 0.534L0.247 0.707"/></g></svg>