<svg xmlns="http://www.w3.org/2000/svg" xmlns:xlink="http://www.w3.org/1999/xlink" width="300px" height="300px" viewBox="0.000 -0.379 1.000 1.379"><rect x="0" y="0" width="1" height="1" fill="none" stroke="blue" stroke-width="0.005"/><path d="M 0.698 -0.379 L 0.871 -0.198 L 0.862 0.155 L 0.681 0.328 L 0.503 0.382 L 0.434 0.286 L 0.505 0.298 L 0.509 0.147 L 0.690 -0.026 Z" fill="silver" stroke="gray" stroke-width="0.005"/><path d="M 0.698 -0.379 L 0.871 -0.198" fill="none" stroke="purple" stroke-width="0.002"/><path d="M 0.690 -0.026 L 0.862 0.155" fill="none" stroke="purple" stroke-width="0.002"/><path d="M 0.434 0.286 L 0.503 0.382" fill="none" stroke="purple" stroke-width="0.002"/><path d="M 0.509 0.147 L 0.503 0.382" fill="none" stroke="purple" stroke-width="0.002"/><path d="M 0.698 -0.379 L 0.690 -0.026" fill="none" stroke="purple" stroke-width="0.002"/><path d="M 0.871 -0.198 L 0.862 0.155" fill="none" stroke="purple" stroke-width="0.002"/><path d="M 0.509 0.147 L 0.862 0.155" fill="none" stroke="purple" stroke-width="0.002"/><path d="M 0.434 0.286 L 0.681 0.328" fill="none" stroke="purple" stroke-width="0.002"/><path d="M 0.871 -0.198 L 0.509 0.147" fill="none" stroke="purple" stroke-width="0.002"/><path d="M 0.681 0.328 L 0.503 0.382" fill="none" stroke="purple" stroke-width="0.002"/><path d="M 0.862 0.155 L 0.681 0.328" fill="none" stroke="purple" stroke-width="0.002"/></svg>